<?xml version="1.0" encoding="UTF-8" standalone="no"?>
<!-- Created with Inkscape (http://www.inkscape.org/) -->

<svg
   width="123.29583mm"
   height="87.047905mm"
   viewBox="0 0 123.29583 87.047905"
   version="1.1"
   id="svg5"
   xml:space="preserve"
   xmlns="http://www.w3.org/2000/svg"
   xmlns:svg="http://www.w3.org/2000/svg"><defs
     id="defs2"><style
       type="text/css"
       id="style2367">*{stroke-linejoin: round; stroke-linecap: butt}</style><clipPath
       clipPathUnits="userSpaceOnUse"
       id="clipPath4750"><rect
         x="59.999996"
         y="613"
         width="719"
         height="328.99997"
         id="rect4752"
         style="stroke-width:0.999999" /></clipPath><clipPath
       clipPathUnits="userSpaceOnUse"
       id="clipPath4754"><rect
         x="59.999996"
         y="613"
         width="719"
         height="328.99997"
         id="rect4756"
         style="stroke-width:0.999999" /></clipPath><clipPath
       clipPathUnits="userSpaceOnUse"
       id="clipPath4758"><rect
         x="59.999996"
         y="613"
         width="719"
         height="328.99997"
         id="rect4760"
         style="stroke-width:0.999999" /></clipPath><clipPath
       clipPathUnits="userSpaceOnUse"
       id="clipPath4766"><rect
         x="59.999996"
         y="613"
         width="719"
         height="328.99997"
         id="rect4768"
         style="stroke-width:0.999999" /></clipPath><clipPath
       clipPathUnits="userSpaceOnUse"
       id="clipPath4770"><rect
         x="59.999996"
         y="613"
         width="719"
         height="328.99997"
         id="rect4772"
         style="stroke-width:0.999999" /></clipPath><clipPath
       clipPathUnits="userSpaceOnUse"
       id="clipPath4774"><rect
         x="59.999996"
         y="613"
         width="719"
         height="328.99997"
         id="rect4776"
         style="stroke-width:0.999999" /></clipPath><clipPath
       clipPathUnits="userSpaceOnUse"
       id="clipPath4778"><rect
         x="59.999996"
         y="613"
         width="719"
         height="328.99997"
         id="rect4780"
         style="stroke-width:0.999999" /></clipPath><clipPath
       clipPathUnits="userSpaceOnUse"
       id="clipPath4782"><rect
         x="59.999996"
         y="613"
         width="719"
         height="328.99997"
         id="rect4784"
         style="stroke-width:0.999999" /></clipPath><clipPath
       clipPathUnits="userSpaceOnUse"
       id="clipPath4786"><rect
         x="59.999996"
         y="613"
         width="719"
         height="328.99997"
         id="rect4788"
         style="stroke-width:0.999999" /></clipPath><clipPath
       clipPathUnits="userSpaceOnUse"
       id="clipPath4790"><rect
         x="59.999996"
         y="613"
         width="719"
         height="328.99997"
         id="rect4792"
         style="stroke-width:0.999999" /></clipPath></defs><g
     id="layer1"
     transform="translate(-76.346384,-88.352908)"><path
       d="m 315.5,778 c 0,-89.194 72.53,-161.5 162,-161.5 89.47,0 162,72.306 162,161.5 0,89.194 -72.53,161.5 -162,161.5 -89.47,0 -162,-72.306 -162,-161.5 z"
       stroke="#000000"
       stroke-width="5"
       stroke-miterlimit="8"
       fill="#f2f2f2"
       fill-rule="evenodd"
       id="path207"
       style="fill:#d62728;fill-opacity:0.3"
       transform="matrix(0.26458333,0,0,0.26458333,-6.4681985,-73.836673)"
       clip-path="url(#clipPath4790)" /><path
       d="m 452.5,777 c 0,-89.194 72.53,-161.5 162,-161.5 89.47,0 162,72.306 162,161.5 0,89.194 -72.53,161.5 -162,161.5 -89.47,0 -162,-72.306 -162,-161.5 z"
       stroke="#000000"
       stroke-width="5"
       stroke-miterlimit="8"
       fill="#f2f2f2"
       fill-rule="evenodd"
       id="path209"
       style="fill:#9467bd;fill-opacity:0.3"
       transform="matrix(0.26458333,0,0,0.26458333,-6.4681985,-73.836673)"
       clip-path="url(#clipPath4786)" /><path
       d="m 409.889,747.237 c -3.786,-37.045 23.17,-70.149 60.208,-73.939 14.886,-1.524 29.856,1.95 42.55,9.873"
       stroke="#000000"
       stroke-width="5"
       stroke-miterlimit="8"
       fill="none"
       fill-rule="evenodd"
       id="path211"
       style="stroke-width:5.00032;stroke-dasharray:none"
       transform="matrix(0.26458333,0,0,0.26458333,-6.4681985,-73.836673)"
       clip-path="url(#clipPath4782)" /><g
       id="g13403"
       transform="matrix(0.26458333,0,0,0.26458333,-7.3917061,-75.314279)"
       style="fill:#030303;fill-opacity:1"><g
         aria-label="N"
         id="text213"
         style="font-size:33px;font-family:'Cambria Math', 'Cambria Math_MSFontService', sans-serif"><path
           d="m 475.72675,643.11487 q 0.58007,0.9668 0.96679,1.69189 0.40283,0.7251 0.82178,1.62744 h 0.20947 q -0.0806,-0.98291 -0.14502,-3.89941 -0.0645,-2.93262 -0.0645,-5.28516 v -3.38379 q 0,-1.11181 -0.0644,-1.62744 -0.0645,-0.51562 -0.2417,-0.78955 -0.16114,-0.27392 -0.46729,-0.43506 -0.29004,-0.17724 -1.03125,-0.38671 v -0.78956 h 5.80078 v 0.78956 q -0.72509,0.19335 -1.03125,0.35449 -0.29004,0.16113 -0.48339,0.41894 -0.17725,0.25782 -0.27393,0.77344 -0.0967,0.51563 -0.0967,1.69189 v 18.06299 H 477.612 l -8.9751,-15.0498 q -0.83789,-1.40186 -1.19238,-2.04639 -0.35449,-0.64453 -0.66065,-1.27295 h -0.27392 q 0.11279,1.24073 0.16113,4.49561 0.0483,3.23877 0.0483,6.46142 v 3.28711 q 0,1.07959 0.0644,1.5791 0.0806,0.49952 0.2417,0.78956 0.17725,0.29003 0.49952,0.48339 0.33837,0.19336 1.07959,0.38672 v 0.78955 h -5.88135 v -0.78955 q 0.99902,-0.25781 1.3374,-0.56396 0.33838,-0.32227 0.43506,-0.90235 0.11279,-0.58007 0.11279,-1.77246 v -13.93799 q 0,-1.11181 -0.0806,-1.61132 -0.0806,-0.51563 -0.27393,-0.78955 -0.17725,-0.29004 -0.4834,-0.45118 -0.30615,-0.17724 -1.04736,-0.38671 v -0.78956 h 5.04345 z"
           id="path18274" /></g><g
         aria-label="1"
         id="text215"
         style="font-size:22px;font-family:'Cambria Math', 'Cambria Math_MSFontService', sans-serif"><path
           d="m 490.99588,656.02844 q 0,0.62305 0.0645,0.94531 0.0752,0.31153 0.24707,0.51563 0.18262,0.19336 0.51563,0.31152 0.33301,0.10743 0.83789,0.17188 0.50488,0.0537 1.33203,0.0752 v 0.78418 h -7.93848 v -0.78418 q 1.19239,-0.0537 1.69727,-0.13964 0.51562,-0.0967 0.78418,-0.2793 0.26855,-0.18262 0.38672,-0.51563 0.1289,-0.333 0.1289,-1.08496 v -8.71191 q 0,-0.42969 -0.15039,-0.62305 -0.15039,-0.2041 -0.44043,-0.2041 -0.34375,0 -0.97754,0.35449 -0.63378,0.35449 -1.56835,0.97754 l -0.47266,-0.82715 5.02734,-2.99707 h 0.59082 q -0.0645,1.03125 -0.0645,2.85742 z"
           id="path18277" /></g></g><path
       d="m 449.769,895.478 c -65.628,-8.846 -114.31,-49.555 -108.733,-90.926 5.577,-41.371 63.299,-67.737 128.927,-58.891 65.628,8.847 114.31,49.556 108.733,90.927 -5.576,41.37 -63.299,67.737 -128.927,58.89 z"
       stroke="#000000"
       stroke-width="5"
       stroke-miterlimit="8"
       fill="#c5e0b4"
       fill-rule="evenodd"
       fill-opacity="0.901961"
       id="path217"
       style="fill:#ffffff;fill-opacity:0.725333"
       transform="matrix(0.26458333,0,0,0.26458333,-6.4681985,-73.836673)"
       clip-path="url(#clipPath4778)" /><path
       d="m 353.5,813 c 0,-25.681 20.819,-46.5 46.5,-46.5 25.681,0 46.5,20.819 46.5,46.5 0,25.681 -20.819,46.5 -46.5,46.5 -25.681,0 -46.5,-20.819 -46.5,-46.5 z"
       stroke="#000000"
       stroke-width="5"
       stroke-miterlimit="8"
       fill="#b4c7e7"
       fill-rule="evenodd"
       id="path219"
       style="fill:#1f77b4;fill-opacity:1"
       transform="matrix(0.26458333,0,0,0.26458333,-6.4681985,-73.836673)"
       clip-path="url(#clipPath4774)" /><g
       aria-label="A"
       id="text221"
       style="font-size:8.73125px;font-family:'Cambria Math', 'Cambria Math_MSFontService', sans-serif;fill:#ffffff;stroke-width:0.264583"><path
         d="m 100.06645,144.21339 v -0.2089 q 0.21317,-0.0426 0.31549,-0.0938 0.10658,-0.0512 0.15774,-0.14069 0.0512,-0.0938 0.0512,-0.24727 0,-0.14495 -0.0341,-0.31122 -0.0341,-0.17053 -0.0981,-0.37944 l -0.15774,-0.54996 h -1.986698 l -0.144953,0.4178 q -0.110845,0.31549 -0.144952,0.47749 -0.03411,0.16201 -0.03411,0.29417 0,0.2558 0.127899,0.37517 0.132162,0.11937 0.400751,0.15774 v 0.2089 h -1.820432 v -0.2089 q 0.238745,-0.0384 0.413541,-0.27711 0.179058,-0.23875 0.345327,-0.68213 l 1.777799,-4.71948 h 0.673602 l 1.449526,4.75358 q 0.10232,0.33254 0.17906,0.50734 0.081,0.17479 0.19185,0.27285 0.11085,0.0981 0.30269,0.14495 v 0.2089 z m -1.637109,-2.30218 h 1.782059 l -0.810025,-2.74983 z"
         id="path18295" /></g><path
       d="m 473.5,827.5 c 0,-25.405 20.819,-46 46.5,-46 25.681,0 46.5,20.595 46.5,46 0,25.405 -20.819,46 -46.5,46 -25.681,0 -46.5,-20.595 -46.5,-46 z"
       stroke="#000000"
       stroke-width="5"
       stroke-miterlimit="8"
       fill="#b4c7e7"
       fill-rule="evenodd"
       id="path223"
       style="fill:#ff7f0e;fill-opacity:1"
       transform="matrix(0.26458333,0,0,0.26458333,-6.4681985,-73.836673)"
       clip-path="url(#clipPath4770)" /><g
       aria-label="B"
       id="text225"
       style="font-size:8.73125px;font-family:'Cambria Math', 'Cambria Math_MSFontService', sans-serif;fill:#ffffff;stroke-width:0.264583"><path
         d="m 128.9643,148.01573 v -0.2089 q 0.26433,-0.0682 0.35385,-0.14922 0.0895,-0.0853 0.11511,-0.23874 0.0299,-0.15348 0.0299,-0.46896 v -3.68776 q 0,-0.29417 -0.0213,-0.42633 -0.0213,-0.13643 -0.0725,-0.20891 -0.0469,-0.0767 -0.12789,-0.11937 -0.081,-0.0469 -0.27712,-0.10232 v -0.2089 h 2.33203 q 0.67786,0 1.08714,0.14495 0.41354,0.14495 0.61392,0.4306 0.20037,0.28137 0.20037,0.72902 0,0.37091 -0.14495,0.64376 -0.14069,0.27285 -0.37091,0.45191 -0.23022,0.17906 -0.5926,0.33254 v 0.0384 q 0.57981,0.17479 0.87824,0.54144 0.29844,0.36238 0.29844,0.86545 0,0.57981 -0.26007,0.94645 -0.25579,0.36665 -0.72049,0.53292 -0.4647,0.162 -1.12552,0.162 z m 2.04212,-3.21027 q 0.64803,0 0.98909,-0.31122 0.34533,-0.31548 0.34533,-0.91235 0,-0.29416 -0.0981,-0.48601 -0.0938,-0.19611 -0.26432,-0.31122 -0.16627,-0.11511 -0.39649,-0.16201 -0.23022,-0.0512 -0.49881,-0.0512 -0.162,0 -0.42633,0.009 -0.26432,0.009 -0.39648,0.0171 v 2.20839 z m -0.74607,2.80526 q 0.31122,0.0298 0.69491,0.0298 0.5585,0 0.86546,-0.14069 0.31122,-0.14069 0.44764,-0.41354 0.14069,-0.27711 0.14069,-0.69065 0,-0.41354 -0.15348,-0.68213 -0.14921,-0.26859 -0.4647,-0.40075 -0.31548,-0.13217 -0.86971,-0.13217 h -0.66081 z"
         id="path18289" /></g><path
       d="m 506.69,691.672 10.495,-17.466"
       stroke="#000000"
       stroke-width="5"
       stroke-linecap="round"
       stroke-miterlimit="8"
       fill="none"
       fill-rule="evenodd"
       id="path227"
       transform="matrix(0.26458333,0,0,0.26458333,-6.4681985,-73.836673)"
       clip-path="url(#clipPath4766)" /><g
       id="g13399"
       transform="matrix(0.26458333,0,0,0.26458333,-31.033497,-88.058688)"><g
         aria-label="N"
         transform="translate(704.642,700)"
         id="text233"
         style="font-size:33px;font-family:'Cambria Math', 'Cambria Math_MSFontService', sans-serif;fill:#030303"><path
           d="m 14.888672,-8.7172852 q 0.580078,0.9667969 0.966797,1.6918946 0.402832,0.7250976 0.821777,1.6274414 h 0.209473 q -0.08057,-0.9829102 -0.14502,-3.8994141 -0.06445,-2.9326167 -0.06445,-5.2851567 v -3.383789 q 0,-1.111816 -0.06445,-1.627441 -0.06445,-0.515625 -0.241699,-0.789551 -0.161133,-0.273926 -0.467285,-0.435058 -0.290039,-0.177246 -1.03125,-0.386719 v -0.789551 h 5.800781 v 0.789551 q -0.725098,0.193359 -1.03125,0.354492 -0.290039,0.161133 -0.483399,0.418945 -0.177246,0.257813 -0.273925,0.773438 -0.09668,0.515625 -0.09668,1.691894 V 0.09667969 h -2.01416 L 7.7988281,-14.953125 Q 6.9609375,-16.35498 6.6064453,-16.999512 6.2519531,-17.644043 5.9458008,-18.272461 H 5.671875 q 0.112793,1.240723 0.1611328,4.495606 0.04834,3.238769 0.04834,6.4614253 v 3.2871094 q 0,1.0795898 0.064453,1.5791015 0.080566,0.4995118 0.2416992,0.7895508 0.1772461,0.2900391 0.4995117,0.4833985 0.3383789,0.19335934 1.0795899,0.38671872 V 0 H 1.8852539 V -0.78955078 Q 2.8842773,-1.0473633 3.2226563,-1.3535156 3.5610352,-1.6757812 3.6577148,-2.2558594 3.7705078,-2.8359375 3.7705078,-4.0283203 V -17.966309 q 0,-1.111816 -0.080566,-1.611328 -0.080566,-0.515625 -0.2739258,-0.78955 -0.1772461,-0.29004 -0.4833984,-0.451172 -0.3061524,-0.177246 -1.0473633,-0.386719 v -0.789551 h 5.043457 z"
           id="path18280" /></g><g
         aria-label="2"
         transform="translate(727.333,707)"
         id="text235"
         style="font-size:22px;font-family:'Cambria Math', 'Cambria Math_MSFontService', sans-serif;fill:#030303"><path
           d="m 7.5410156,-1.71875 q 0.5263672,0 0.8486328,-0.064453 0.3222657,-0.064453 0.515625,-0.2148438 0.1933594,-0.1503906 0.3007813,-0.3867187 0.1181641,-0.2470703 0.2900391,-0.7519532 H 10.40918 L 10.226563,0 H 1.3857422 v -0.515625 q 0.461914,-1.1279297 1.2460937,-2.3095703 0.7841797,-1.1816406 2.2236328,-2.7822266 1.2460938,-1.375 1.7939454,-2.0839843 0.6015625,-0.7734376 0.8916015,-1.3320313 0.3007813,-0.5693359 0.4296875,-1.0634765 0.1289063,-0.504883 0.1289063,-1.009766 0,-0.805664 -0.2578125,-1.417968 -0.2578125,-0.623047 -0.7949219,-0.97754 -0.5263672,-0.354492 -1.3320313,-0.354492 -2.008789,0 -2.7070312,2.234375 H 1.7080078 v -2.0625 q 1.2998047,-0.612304 2.4277344,-0.880859 1.1386719,-0.279297 2.0410156,-0.279297 1.9980469,0 3.0185547,0.880859 1.0205075,0.870118 1.0205075,2.535157 0,0.569336 -0.118164,1.052734 -0.1074216,0.4726563 -0.3544919,0.9453126 -0.2363282,0.461914 -0.6445313,0.9990234 -0.4082031,0.5371094 -0.9023437,1.0957031 -0.4941407,0.5478516 -1.7080079,1.8369141 -2.0410156,2.1591797 -2.9970703,3.7705078 z"
           id="path18283" /></g></g><path
       d="m 511.5,714 c 0,-25.681 20.819,-46.5 46.5,-46.5 25.681,0 46.5,20.819 46.5,46.5 0,25.681 -20.819,46.5 -46.5,46.5 -25.681,0 -46.5,-20.819 -46.5,-46.5 z"
       stroke="#000000"
       stroke-width="5"
       stroke-miterlimit="8"
       fill="#f4b183"
       fill-rule="evenodd"
       id="path239"
       style="fill:#2ca02c;fill-opacity:1"
       transform="matrix(0.26458333,0,0,0.26458333,-6.4681985,-73.836673)"
       clip-path="url(#clipPath4758)" /><g
       aria-label="C"
       id="text241"
       style="font-size:8.73125px;font-family:'Cambria Math', 'Cambria Math_MSFontService', sans-serif;fill:#ffffff;stroke-width:0.264583"><path
         d="m 143.13682,112.28975 v 1.18094 h -0.42206 q -0.10232,-0.37091 -0.26007,-0.58834 -0.15774,-0.22169 -0.36664,-0.31548 -0.2089,-0.0938 -0.50307,-0.0938 -0.43912,0 -0.78445,0.29417 -0.34106,0.28991 -0.53718,0.87824 -0.19611,0.58407 -0.19611,1.41542 0,0.83561 0.16201,1.42821 0.162,0.58833 0.47749,0.89103 0.31548,0.29843 0.77592,0.29843 0.34959,0 0.57128,-0.0981 0.22169,-0.10232 0.37091,-0.31974 0.15348,-0.21743 0.28991,-0.6395 h 0.42206 v 1.2193 q -0.40075,0.10659 -0.82282,0.15775 -0.4178,0.0554 -0.92087,0.0554 -1.08288,0 -1.63711,-0.73329 -0.55423,-0.73329 -0.55423,-2.18707 0,-0.91235 0.28564,-1.59874 0.28991,-0.6864 0.8484,-1.06157 0.55849,-0.37517 1.33442,-0.37517 0.38796,0 0.71623,0.0426 0.32828,0.0384 0.75034,0.14921 z"
         id="path18286" /></g><g
       aria-label="T"
       id="text243"
       style="font-size:8.73125px;font-family:'Cambria Math', 'Cambria Math_MSFontService', sans-serif;stroke-width:0.264583"><path
         d="m 112.16104,155.29391 h 4.6129 v 1.48364 h -0.41781 q -0.0938,-0.36665 -0.18758,-0.57981 -0.0895,-0.21317 -0.19185,-0.32402 -0.10232,-0.11084 -0.22169,-0.15774 -0.11511,-0.0469 -0.34959,-0.0469 h -0.54144 v 4.36562 q 0,0.25154 0.0256,0.40075 0.0298,0.14922 0.0853,0.23875 0.0597,0.0853 0.15774,0.13642 0.0981,0.0469 0.30696,0.0938 v 0.2089 h -1.94833 v -0.2089 q 0.1279,-0.0298 0.22596,-0.0639 0.0981,-0.0341 0.15774,-0.081 0.064,-0.0512 0.10232,-0.1279 0.0426,-0.0767 0.064,-0.2089 0.0256,-0.13216 0.0256,-0.38796 v -4.36562 h -0.53718 q -0.20037,0 -0.33254,0.0384 -0.1279,0.0384 -0.23874,0.162 -0.11085,0.11937 -0.20464,0.34533 -0.0895,0.22169 -0.17053,0.56276 h -0.42207 z"
         id="path18292" /></g><path
       d="m 315.5,778 c 0,-89.194 72.53,-161.5 162,-161.5 89.47,0 162,72.306 162,161.5 0,89.194 -72.53,161.5 -162,161.5 -89.47,0 -162,-72.306 -162,-161.5 z"
       stroke="#000000"
       stroke-width="5"
       stroke-miterlimit="8"
       fill="none"
       fill-rule="evenodd"
       id="path245"
       transform="matrix(0.26458333,0,0,0.26458333,-6.4681985,-73.836673)"
       clip-path="url(#clipPath4754)" /><g
       id="path4000"
       clip-path="url(#clipPath4750)"
       transform="matrix(0.26458333,0,0,0.26458333,-7.846232,-74.831919)"><g
         id="g4951"
         transform="rotate(10.036189,644.13589,788.9661)"><path
           style="color:#000000;fill:#000000;stroke-linecap:round;stroke-linejoin:round;-inkscape-stroke:none"
           d="m 610.87305,789.48437 a 1.87857,1.87857 0 0 0 -1.42969,0.14258 1.87857,1.87857 0 0 0 -0.76758,2.54492 l 8.00391,14.9043 a 1.8787578,1.8787578 0 0 0 3.20703,0.17188 l 9.54883,-13.96485 a 1.87857,1.87857 0 0 0 -0.49219,-2.61133 1.87857,1.87857 0 0 0 -2.60938,0.49024 l -7.80468,11.41601 -6.54297,-12.18359 a 1.87857,1.87857 0 0 0 -1.11328,-0.91016 z"
           id="path4953" /></g><path
         style="color:#000000;fill:#000000;stroke-linecap:square;-inkscape-stroke:none;paint-order:markers fill stroke"
         d="m 597.5,746.36523 -2.98828,4.00782 2.00586,1.49414 c 13.46712,10.03505 19.89751,24.61481 19.16601,38.28711 -0.97851,18.28943 -14.41689,35.17885 -42.80078,37.94922 l -2.48828,0.24218 0.48633,4.97657 2.48828,-0.24219 c 30.23923,-2.95145 46.20471,-22.02729 47.30859,-42.66016 0.82523,-15.42413 -6.45471,-31.59452 -21.17382,-42.5625 z"
         id="path4959" /></g><g
       id="g8392-3-6"
       style="fill:#ffffff;fill-opacity:1;stroke-linecap:butt;stroke-linejoin:round"
       transform="translate(0.29797225,-1.5675199)"><path
         id="path354-1-3"
         style="fill:#ffffff;fill-opacity:1;stroke:#000000;stroke-width:0.623;stroke-linecap:square;stroke-linejoin:round;stroke-dasharray:none;paint-order:markers fill stroke;stop-color:#000000"
         d="m 91.466225,137.26411 a 2.057102,2.057102 0 0 0 -2.056722,2.05673 2.057102,2.057102 0 0 0 2.056722,2.05723 2.057102,2.057102 0 0 0 2.057238,-2.05723 2.057102,2.057102 0 0 0 -2.057238,-2.05673 z m 0,1.07591 a 0.98118341,0.98118341 0 0 1 0.981335,0.98082 0.98118341,0.98118341 0 0 1 -0.981335,0.98133 0.98118341,0.98118341 0 0 1 -0.980819,-0.98133 0.98118341,0.98118341 0 0 1 0.980819,-0.98082 z" /></g><g
       id="g8392-3-6-8"
       style="fill:#ffffff;fill-opacity:1;stroke-linecap:butt;stroke-linejoin:round"
       transform="translate(34.795337,12.957262)"><path
         id="path354-1-3-9"
         style="fill:#ffffff;fill-opacity:1;stroke:#000000;stroke-width:0.623;stroke-linecap:square;stroke-linejoin:round;stroke-dasharray:none;paint-order:markers fill stroke;stop-color:#000000"
         d="m 91.466225,137.26411 a 2.057102,2.057102 0 0 0 -2.056722,2.05673 2.057102,2.057102 0 0 0 2.056722,2.05723 2.057102,2.057102 0 0 0 2.057238,-2.05723 2.057102,2.057102 0 0 0 -2.057238,-2.05673 z m 0,1.07591 a 0.98118341,0.98118341 0 0 1 0.981335,0.98082 0.98118341,0.98118341 0 0 1 -0.981335,0.98133 0.98118341,0.98118341 0 0 1 -0.980819,-0.98133 0.98118341,0.98118341 0 0 1 0.980819,-0.98082 z" /></g><g
       id="g8392-3-6-8-2"
       style="fill:#ffffff;fill-opacity:1;stroke-linecap:butt;stroke-linejoin:round"
       transform="translate(46.58518,10.277752)"><path
         id="path354-1-3-9-9"
         style="fill:#ffffff;fill-opacity:1;stroke:#000000;stroke-width:0.623;stroke-linecap:square;stroke-linejoin:round;stroke-dasharray:none;paint-order:markers fill stroke;stop-color:#000000"
         d="m 91.466225,137.26411 a 2.057102,2.057102 0 0 0 -2.056722,2.05673 2.057102,2.057102 0 0 0 2.056722,2.05723 2.057102,2.057102 0 0 0 2.057238,-2.05723 2.057102,2.057102 0 0 0 -2.057238,-2.05673 z m 0,1.07591 a 0.98118341,0.98118341 0 0 1 0.981335,0.98082 0.98118341,0.98118341 0 0 1 -0.981335,0.98133 0.98118341,0.98118341 0 0 1 -0.980819,-0.98133 0.98118341,0.98118341 0 0 1 0.980819,-0.98082 z" /></g><g
       id="g8392-3-6-8-6"
       style="fill:#ffffff;fill-opacity:1;stroke-linecap:butt;stroke-linejoin:round"
       transform="translate(3.9426982,8.8997188)"><path
         id="path354-1-3-9-3"
         style="fill:#ffffff;fill-opacity:1;stroke:#000000;stroke-width:0.623;stroke-linecap:square;stroke-linejoin:round;stroke-dasharray:none;paint-order:markers fill stroke;stop-color:#000000"
         d="m 91.466225,137.26411 a 2.057102,2.057102 0 0 0 -2.056722,2.05673 2.057102,2.057102 0 0 0 2.056722,2.05723 2.057102,2.057102 0 0 0 2.057238,-2.05723 2.057102,2.057102 0 0 0 -2.057238,-2.05673 z m 0,1.07591 a 0.98118341,0.98118341 0 0 1 0.981335,0.98082 0.98118341,0.98118341 0 0 1 -0.981335,0.98133 0.98118341,0.98118341 0 0 1 -0.980819,-0.98133 0.98118341,0.98118341 0 0 1 0.980819,-0.98082 z" /></g></g></svg>
