<?xml version="1.0" encoding="utf-8" standalone="no"?>
<!DOCTYPE svg PUBLIC "-//W3C//DTD SVG 1.1//EN"
  "http://www.w3.org/Graphics/SVG/1.1/DTD/svg11.dtd">
<svg xmlns:xlink="http://www.w3.org/1999/xlink" width="604.785441pt" height="240.279448pt" viewBox="0 0 604.785441 240.279448" xmlns="http://www.w3.org/2000/svg" version="1.1">
 <metadata>
  <rdf:RDF xmlns:dc="http://purl.org/dc/elements/1.1/" xmlns:cc="http://creativecommons.org/ns#" xmlns:rdf="http://www.w3.org/1999/02/22-rdf-syntax-ns#">
   <cc:Work>
    <dc:type rdf:resource="http://purl.org/dc/dcmitype/StillImage"/>
    <dc:date>2023-03-31T14:45:47.431666</dc:date>
    <dc:format>image/svg+xml</dc:format>
    <dc:creator>
     <cc:Agent>
      <dc:title>Matplotlib v3.6.2, https://matplotlib.org/</dc:title>
     </cc:Agent>
    </dc:creator>
   </cc:Work>
  </rdf:RDF>
 </metadata>
 <defs>
  <style type="text/css">*{stroke-linejoin: round; stroke-linecap: butt}</style>
 </defs>
 <g id="figure_1">
  <g id="patch_1">
   <path d="M 0 240.279448 
L 604.785441 240.279448 
L 604.785441 0 
L 0 0 
z
" style="fill: #ffffff"/>
  </g>
  <g id="axes_1">
   <g id="patch_2">
    <path d="M 30.98024 92.521395 
L 133.333992 92.521395 
L 133.333992 22.318125 
L 30.98024 22.318125 
z
" style="fill: #ffffff"/>
   </g>
   <g id="matplotlib.axis_1">
    <g id="xtick_1">
     <g id="line2d_1">
      <defs>
       <path id="mfed3f3abf5" d="M 0 0 
L 0 3.5 
" style="stroke: #000000; stroke-width: 0.8"/>
      </defs>
      <g>
       <use xlink:href="#mfed3f3abf5" x="45.306294" y="92.521395" style="stroke: #000000; stroke-width: 0.8"/>
      </g>
     </g>
     <g id="text_1">
      <!-- 0.75 -->
      <g transform="translate(34.173481 107.119833) scale(0.1 -0.1)">
       <defs>
        <path id="DejaVuSans-30" d="M 2034 4250 
Q 1547 4250 1301 3770 
Q 1056 3291 1056 2328 
Q 1056 1369 1301 889 
Q 1547 409 2034 409 
Q 2525 409 2770 889 
Q 3016 1369 3016 2328 
Q 3016 3291 2770 3770 
Q 2525 4250 2034 4250 
z
M 2034 4750 
Q 2819 4750 3233 4129 
Q 3647 3509 3647 2328 
Q 3647 1150 3233 529 
Q 2819 -91 2034 -91 
Q 1250 -91 836 529 
Q 422 1150 422 2328 
Q 422 3509 836 4129 
Q 1250 4750 2034 4750 
z
" transform="scale(0.015625)"/>
        <path id="DejaVuSans-2e" d="M 684 794 
L 1344 794 
L 1344 0 
L 684 0 
L 684 794 
z
" transform="scale(0.015625)"/>
        <path id="DejaVuSans-37" d="M 525 4666 
L 3525 4666 
L 3525 4397 
L 1831 0 
L 1172 0 
L 2766 4134 
L 525 4134 
L 525 4666 
z
" transform="scale(0.015625)"/>
        <path id="DejaVuSans-35" d="M 691 4666 
L 3169 4666 
L 3169 4134 
L 1269 4134 
L 1269 2991 
Q 1406 3038 1543 3061 
Q 1681 3084 1819 3084 
Q 2600 3084 3056 2656 
Q 3513 2228 3513 1497 
Q 3513 744 3044 326 
Q 2575 -91 1722 -91 
Q 1428 -91 1123 -41 
Q 819 9 494 109 
L 494 744 
Q 775 591 1075 516 
Q 1375 441 1709 441 
Q 2250 441 2565 725 
Q 2881 1009 2881 1497 
Q 2881 1984 2565 2268 
Q 2250 2553 1709 2553 
Q 1456 2553 1204 2497 
Q 953 2441 691 2322 
L 691 4666 
z
" transform="scale(0.015625)"/>
       </defs>
       <use xlink:href="#DejaVuSans-30"/>
       <use xlink:href="#DejaVuSans-2e" x="63.623047"/>
       <use xlink:href="#DejaVuSans-37" x="95.410156"/>
       <use xlink:href="#DejaVuSans-35" x="159.033203"/>
      </g>
     </g>
    </g>
    <g id="xtick_2">
     <g id="line2d_2">
      <g>
       <use xlink:href="#mfed3f3abf5" x="76.476995" y="92.521395" style="stroke: #000000; stroke-width: 0.8"/>
      </g>
     </g>
     <g id="text_2">
      <!-- 1.00 -->
      <g transform="translate(65.344182 107.119833) scale(0.1 -0.1)">
       <defs>
        <path id="DejaVuSans-31" d="M 794 531 
L 1825 531 
L 1825 4091 
L 703 3866 
L 703 4441 
L 1819 4666 
L 2450 4666 
L 2450 531 
L 3481 531 
L 3481 0 
L 794 0 
L 794 531 
z
" transform="scale(0.015625)"/>
       </defs>
       <use xlink:href="#DejaVuSans-31"/>
       <use xlink:href="#DejaVuSans-2e" x="63.623047"/>
       <use xlink:href="#DejaVuSans-30" x="95.410156"/>
       <use xlink:href="#DejaVuSans-30" x="159.033203"/>
      </g>
     </g>
    </g>
    <g id="xtick_3">
     <g id="line2d_3">
      <g>
       <use xlink:href="#mfed3f3abf5" x="107.647696" y="92.521395" style="stroke: #000000; stroke-width: 0.8"/>
      </g>
     </g>
     <g id="text_3">
      <!-- 1.25 -->
      <g transform="translate(96.514883 107.119833) scale(0.1 -0.1)">
       <defs>
        <path id="DejaVuSans-32" d="M 1228 531 
L 3431 531 
L 3431 0 
L 469 0 
L 469 531 
Q 828 903 1448 1529 
Q 2069 2156 2228 2338 
Q 2531 2678 2651 2914 
Q 2772 3150 2772 3378 
Q 2772 3750 2511 3984 
Q 2250 4219 1831 4219 
Q 1534 4219 1204 4116 
Q 875 4013 500 3803 
L 500 4441 
Q 881 4594 1212 4672 
Q 1544 4750 1819 4750 
Q 2544 4750 2975 4387 
Q 3406 4025 3406 3419 
Q 3406 3131 3298 2873 
Q 3191 2616 2906 2266 
Q 2828 2175 2409 1742 
Q 1991 1309 1228 531 
z
" transform="scale(0.015625)"/>
       </defs>
       <use xlink:href="#DejaVuSans-31"/>
       <use xlink:href="#DejaVuSans-2e" x="63.623047"/>
       <use xlink:href="#DejaVuSans-32" x="95.410156"/>
       <use xlink:href="#DejaVuSans-35" x="159.033203"/>
      </g>
     </g>
    </g>
   </g>
   <g id="matplotlib.axis_2"/>
   <g id="patch_3">
    <path d="M 35.632683 92.521395 
L 35.632683 92.365179 
L 37.183498 92.365179 
L 37.183498 92.365179 
L 38.734312 92.365179 
L 38.734312 92.521395 
L 40.285127 92.521395 
L 40.285127 92.365179 
L 41.835941 92.365179 
L 41.835941 92.365179 
L 43.386755 92.365179 
L 43.386755 91.740317 
L 44.93757 91.740317 
L 44.93757 91.427886 
L 46.488384 91.427886 
L 46.488384 90.803024 
L 48.039199 90.803024 
L 48.039199 89.553299 
L 49.590013 89.553299 
L 49.590013 88.772222 
L 51.140828 88.772222 
L 51.140828 86.585204 
L 52.691642 86.585204 
L 52.691642 84.085755 
L 54.242456 84.085755 
L 54.242456 81.273875 
L 55.793271 81.273875 
L 55.793271 77.524702 
L 57.344085 77.524702 
L 57.344085 73.306882 
L 58.8949 73.306882 
L 58.8949 68.151769 
L 60.445714 68.151769 
L 60.445714 62.84044 
L 61.996528 62.84044 
L 61.996528 57.060464 
L 63.547343 57.060464 
L 63.547343 50.968058 
L 65.098157 50.968058 
L 65.098157 45.500513 
L 66.648972 45.500513 
L 66.648972 39.876753 
L 68.199786 39.876753 
L 68.199786 35.346502 
L 69.750601 35.346502 
L 69.750601 31.284898 
L 71.301415 31.284898 
L 71.301415 28.160587 
L 72.852229 28.160587 
L 72.852229 26.286 
L 74.403044 26.286 
L 74.403044 25.661138 
L 75.953858 25.661138 
L 75.953858 26.129785 
L 77.504673 26.129785 
L 77.504673 27.69194 
L 79.055487 27.69194 
L 79.055487 30.035173 
L 80.606302 30.035173 
L 80.606302 33.628131 
L 82.157116 33.628131 
L 82.157116 37.377304 
L 83.70793 37.377304 
L 83.70793 41.907555 
L 85.258745 41.907555 
L 85.258745 46.594022 
L 86.809559 46.594022 
L 86.809559 51.749135 
L 88.360374 51.749135 
L 88.360374 56.279386 
L 89.911188 56.279386 
L 89.911188 61.122069 
L 91.462003 61.122069 
L 91.462003 65.339889 
L 93.012817 65.339889 
L 93.012817 69.401493 
L 94.563631 69.401493 
L 94.563631 72.994451 
L 96.114446 72.994451 
L 96.114446 76.431193 
L 97.66526 76.431193 
L 97.66526 79.399288 
L 99.216075 79.399288 
L 99.216075 81.586306 
L 100.766889 81.586306 
L 100.766889 83.773324 
L 102.317704 83.773324 
L 102.317704 85.491695 
L 103.868518 85.491695 
L 103.868518 87.053851 
L 105.419332 87.053851 
L 105.419332 88.147359 
L 106.970147 88.147359 
L 106.970147 88.928437 
L 108.520961 88.928437 
L 108.520961 89.865731 
L 110.071776 89.865731 
L 110.071776 90.334377 
L 111.62259 90.334377 
L 111.62259 91.271671 
L 113.173405 91.271671 
L 113.173405 91.427886 
L 114.724219 91.427886 
L 114.724219 91.584102 
L 116.275033 91.584102 
L 116.275033 91.896533 
L 117.825848 91.896533 
L 117.825848 92.052748 
L 119.376662 92.052748 
L 119.376662 92.208964 
L 120.927477 92.208964 
L 120.927477 92.208964 
L 122.478291 92.208964 
L 122.478291 92.208964 
L 124.029105 92.208964 
L 124.029105 92.521395 
L 125.57992 92.521395 
L 125.57992 92.365179 
L 127.130734 92.365179 
L 127.130734 92.365179 
L 128.681549 92.365179 
L 128.681549 92.521395 
" clip-path="url(#p5c8ca3aa8a)" style="fill: none; stroke: #000000; stroke-linejoin: miter"/>
   </g>
   <g id="patch_4">
    <path d="M 30.98024 92.521395 
L 30.98024 22.318125 
" style="fill: none; stroke: #000000; stroke-width: 0.8; stroke-linejoin: miter; stroke-linecap: square"/>
   </g>
   <g id="patch_5">
    <path d="M 133.333992 92.521395 
L 133.333992 22.318125 
" style="fill: none; stroke: #000000; stroke-width: 0.8; stroke-linejoin: miter; stroke-linecap: square"/>
   </g>
   <g id="patch_6">
    <path d="M 30.98024 92.521395 
L 133.333992 92.521395 
" style="fill: none; stroke: #000000; stroke-width: 0.8; stroke-linejoin: miter; stroke-linecap: square"/>
   </g>
   <g id="patch_7">
    <path d="M 30.98024 22.318125 
L 133.333992 22.318125 
" style="fill: none; stroke: #000000; stroke-width: 0.8; stroke-linejoin: miter; stroke-linecap: square"/>
   </g>
   <g id="text_4">
    <!-- $b$ -->
    <g transform="translate(78.317116 16.318125) scale(0.12 -0.12)">
     <defs>
      <path id="DejaVuSans-62" d="M 3116 1747 
Q 3116 2381 2855 2742 
Q 2594 3103 2138 3103 
Q 1681 3103 1420 2742 
Q 1159 2381 1159 1747 
Q 1159 1113 1420 752 
Q 1681 391 2138 391 
Q 2594 391 2855 752 
Q 3116 1113 3116 1747 
z
M 1159 2969 
Q 1341 3281 1617 3432 
Q 1894 3584 2278 3584 
Q 2916 3584 3314 3078 
Q 3713 2572 3713 1747 
Q 3713 922 3314 415 
Q 2916 -91 2278 -91 
Q 1894 -91 1617 61 
Q 1341 213 1159 525 
L 1159 0 
L 581 0 
L 581 4863 
L 1159 4863 
L 1159 2969 
z
" transform="scale(0.015625)"/>
     </defs>
     <use xlink:href="#DejaVuSans-62" transform="translate(0 0.015625)"/>
    </g>
   </g>
  </g>
  <g id="axes_2">
   <g id="patch_8">
    <path d="M 142.956456 92.521395 
L 245.310208 92.521395 
L 245.310208 22.318125 
L 142.956456 22.318125 
z
" style="fill: #ffffff"/>
   </g>
   <g id="matplotlib.axis_3">
    <g id="xtick_4">
     <g id="line2d_4">
      <g>
       <use xlink:href="#mfed3f3abf5" x="147.245089" y="92.521395" style="stroke: #000000; stroke-width: 0.8"/>
      </g>
     </g>
     <g id="text_5">
      <!-- 0.0 -->
      <g transform="translate(139.293527 107.119833) scale(0.1 -0.1)">
       <use xlink:href="#DejaVuSans-30"/>
       <use xlink:href="#DejaVuSans-2e" x="63.623047"/>
       <use xlink:href="#DejaVuSans-30" x="95.410156"/>
      </g>
     </g>
    </g>
    <g id="xtick_5">
     <g id="line2d_5">
      <g>
       <use xlink:href="#mfed3f3abf5" x="194.18167" y="92.521395" style="stroke: #000000; stroke-width: 0.8"/>
      </g>
     </g>
     <g id="text_6">
      <!-- 0.5 -->
      <g transform="translate(186.230108 107.119833) scale(0.1 -0.1)">
       <use xlink:href="#DejaVuSans-30"/>
       <use xlink:href="#DejaVuSans-2e" x="63.623047"/>
       <use xlink:href="#DejaVuSans-35" x="95.410156"/>
      </g>
     </g>
    </g>
    <g id="xtick_6">
     <g id="line2d_6">
      <g>
       <use xlink:href="#mfed3f3abf5" x="241.118251" y="92.521395" style="stroke: #000000; stroke-width: 0.8"/>
      </g>
     </g>
     <g id="text_7">
      <!-- 1.0 -->
      <g transform="translate(233.166689 107.119833) scale(0.1 -0.1)">
       <use xlink:href="#DejaVuSans-31"/>
       <use xlink:href="#DejaVuSans-2e" x="63.623047"/>
       <use xlink:href="#DejaVuSans-30" x="95.410156"/>
      </g>
     </g>
    </g>
   </g>
   <g id="matplotlib.axis_4"/>
   <g id="patch_9">
    <path d="M 147.6089 92.521395 
L 147.6089 90.51056 
L 149.159714 90.51056 
L 149.159714 89.002434 
L 150.710528 89.002434 
L 150.710528 86.237536 
L 152.261343 86.237536 
L 152.261343 84.226701 
L 153.812157 84.226701 
L 153.812157 81.713158 
L 155.362972 81.713158 
L 155.362972 79.953677 
L 156.913786 79.953677 
L 156.913786 77.18878 
L 158.464601 77.18878 
L 158.464601 74.92659 
L 160.015415 74.92659 
L 160.015415 73.16711 
L 161.566229 73.16711 
L 161.566229 70.653567 
L 163.117044 70.653567 
L 163.117044 68.391377 
L 164.667858 68.391377 
L 164.667858 65.877834 
L 166.218673 65.877834 
L 166.218673 64.118353 
L 167.769487 64.118353 
L 167.769487 61.60481 
L 169.320302 61.60481 
L 169.320302 59.342621 
L 170.871116 59.342621 
L 170.871116 57.331786 
L 172.42193 57.331786 
L 172.42193 54.566888 
L 173.972745 54.566888 
L 173.972745 52.807408 
L 175.523559 52.807408 
L 175.523559 50.545219 
L 177.074374 50.545219 
L 177.074374 48.283029 
L 178.625188 48.283029 
L 178.625188 45.518132 
L 180.176003 45.518132 
L 180.176003 44.010005 
L 181.726817 44.010005 
L 181.726817 41.245108 
L 183.277631 41.245108 
L 183.277631 39.234273 
L 184.828446 39.234273 
L 184.828446 36.720729 
L 186.37926 36.720729 
L 186.37926 34.961249 
L 187.930075 34.961249 
L 187.930075 32.447705 
L 189.480889 32.447705 
L 189.480889 30.185516 
L 191.031704 30.185516 
L 191.031704 27.671973 
L 192.582518 27.671973 
L 192.582518 25.661138 
L 194.133332 25.661138 
L 194.133332 25.661138 
L 195.684147 25.661138 
L 195.684147 27.671973 
L 197.234961 27.671973 
L 197.234961 29.934162 
L 198.785776 29.934162 
L 198.785776 32.447705 
L 200.33659 32.447705 
L 200.33659 34.45854 
L 201.887405 34.45854 
L 201.887405 36.972084 
L 203.438219 36.972084 
L 203.438219 38.982918 
L 204.989033 38.982918 
L 204.989033 41.245108 
L 206.539848 41.245108 
L 206.539848 43.507297 
L 208.090662 43.507297 
L 208.090662 45.769486 
L 209.641477 45.769486 
L 209.641477 48.283029 
L 211.192291 48.283029 
L 211.192291 50.04251 
L 212.743105 50.04251 
L 212.743105 52.556053 
L 214.29392 52.556053 
L 214.29392 54.818242 
L 215.844734 54.818242 
L 215.844734 57.080432 
L 217.395549 57.080432 
L 217.395549 59.091266 
L 218.946363 59.091266 
L 218.946363 61.60481 
L 220.497178 61.60481 
L 220.497178 63.615645 
L 222.047992 63.615645 
L 222.047992 65.877834 
L 223.598806 65.877834 
L 223.598806 68.642732 
L 225.149621 68.642732 
L 225.149621 70.402212 
L 226.700435 70.402212 
L 226.700435 72.664401 
L 228.25125 72.664401 
L 228.25125 75.177945 
L 229.802064 75.177945 
L 229.802064 77.18878 
L 231.352879 77.18878 
L 231.352879 79.199614 
L 232.903693 79.199614 
L 232.903693 81.713158 
L 234.454507 81.713158 
L 234.454507 83.975347 
L 236.005322 83.975347 
L 236.005322 86.488891 
L 237.556136 86.488891 
L 237.556136 88.248371 
L 239.106951 88.248371 
L 239.106951 90.761915 
L 240.657765 90.761915 
L 240.657765 92.521395 
" clip-path="url(#pa6fb7c15fb)" style="fill: none; stroke: #000000; stroke-linejoin: miter"/>
   </g>
   <g id="patch_10">
    <path d="M 142.956456 92.521395 
L 142.956456 22.318125 
" style="fill: none; stroke: #000000; stroke-width: 0.8; stroke-linejoin: miter; stroke-linecap: square"/>
   </g>
   <g id="patch_11">
    <path d="M 245.310208 92.521395 
L 245.310208 22.318125 
" style="fill: none; stroke: #000000; stroke-width: 0.8; stroke-linejoin: miter; stroke-linecap: square"/>
   </g>
   <g id="patch_12">
    <path d="M 142.956456 92.521395 
L 245.310208 92.521395 
" style="fill: none; stroke: #000000; stroke-width: 0.8; stroke-linejoin: miter; stroke-linecap: square"/>
   </g>
   <g id="patch_13">
    <path d="M 142.956456 22.318125 
L 245.310208 22.318125 
" style="fill: none; stroke: #000000; stroke-width: 0.8; stroke-linejoin: miter; stroke-linecap: square"/>
   </g>
   <g id="text_8">
    <!-- $fA$ -->
    <g transform="translate(187.893332 16.318125) scale(0.12 -0.12)">
     <defs>
      <path id="DejaVuSans-66" d="M 2375 4863 
L 2375 4384 
L 1825 4384 
Q 1516 4384 1395 4259 
Q 1275 4134 1275 3809 
L 1275 3500 
L 2222 3500 
L 2222 3053 
L 1275 3053 
L 1275 0 
L 697 0 
L 697 3053 
L 147 3053 
L 147 3500 
L 697 3500 
L 697 3744 
Q 697 4328 969 4595 
Q 1241 4863 1831 4863 
L 2375 4863 
z
" transform="scale(0.015625)"/>
      <path id="DejaVuSans-41" d="M 2188 4044 
L 1331 1722 
L 3047 1722 
L 2188 4044 
z
M 1831 4666 
L 2547 4666 
L 4325 0 
L 3669 0 
L 3244 1197 
L 1141 1197 
L 716 0 
L 50 0 
L 1831 4666 
z
" transform="scale(0.015625)"/>
     </defs>
     <use xlink:href="#DejaVuSans-66" transform="translate(0 0.015625)"/>
     <use xlink:href="#DejaVuSans-41" transform="translate(35.205078 0.015625)"/>
    </g>
   </g>
  </g>
  <g id="axes_3">
   <g id="patch_14">
    <path d="M 258.959381 92.521395 
L 361.313133 92.521395 
L 361.313133 22.318125 
L 258.959381 22.318125 
z
" style="fill: #ffffff"/>
   </g>
   <g id="matplotlib.axis_5">
    <g id="xtick_7">
     <g id="line2d_7">
      <g>
       <use xlink:href="#mfed3f3abf5" x="263.312882" y="92.521395" style="stroke: #000000; stroke-width: 0.8"/>
      </g>
     </g>
     <g id="text_9">
      <!-- 0.0 -->
      <g transform="translate(255.36132 107.119833) scale(0.1 -0.1)">
       <use xlink:href="#DejaVuSans-30"/>
       <use xlink:href="#DejaVuSans-2e" x="63.623047"/>
       <use xlink:href="#DejaVuSans-30" x="95.410156"/>
      </g>
     </g>
    </g>
    <g id="xtick_8">
     <g id="line2d_8">
      <g>
       <use xlink:href="#mfed3f3abf5" x="310.455697" y="92.521395" style="stroke: #000000; stroke-width: 0.8"/>
      </g>
     </g>
     <g id="text_10">
      <!-- 0.5 -->
      <g transform="translate(302.504134 107.119833) scale(0.1 -0.1)">
       <use xlink:href="#DejaVuSans-30"/>
       <use xlink:href="#DejaVuSans-2e" x="63.623047"/>
       <use xlink:href="#DejaVuSans-35" x="95.410156"/>
      </g>
     </g>
    </g>
    <g id="xtick_9">
     <g id="line2d_9">
      <g>
       <use xlink:href="#mfed3f3abf5" x="357.598511" y="92.521395" style="stroke: #000000; stroke-width: 0.8"/>
      </g>
     </g>
     <g id="text_11">
      <!-- 1.0 -->
      <g transform="translate(349.646948 107.119833) scale(0.1 -0.1)">
       <use xlink:href="#DejaVuSans-31"/>
       <use xlink:href="#DejaVuSans-2e" x="63.623047"/>
       <use xlink:href="#DejaVuSans-30" x="95.410156"/>
      </g>
     </g>
    </g>
   </g>
   <g id="matplotlib.axis_6"/>
   <g id="patch_15">
    <path d="M 263.611824 92.521395 
L 263.611824 90.755275 
L 265.162638 90.755275 
L 265.162638 89.241458 
L 266.713453 89.241458 
L 266.713453 85.961521 
L 268.264267 85.961521 
L 268.264267 84.447704 
L 269.815082 84.447704 
L 269.815082 81.924675 
L 271.365896 81.924675 
L 271.365896 79.906252 
L 272.916711 79.906252 
L 272.916711 77.383224 
L 274.467525 77.383224 
L 274.467525 75.617104 
L 276.018339 75.617104 
L 276.018339 73.094075 
L 277.569154 73.094075 
L 277.569154 70.823349 
L 279.119968 70.823349 
L 279.119968 68.552624 
L 280.670783 68.552624 
L 280.670783 66.281898 
L 282.221597 66.281898 
L 282.221597 64.263475 
L 283.772411 64.263475 
L 283.772411 61.740446 
L 285.323226 61.740446 
L 285.323226 59.722024 
L 286.87404 59.722024 
L 286.87404 57.451298 
L 288.424855 57.451298 
L 288.424855 55.180572 
L 289.975669 55.180572 
L 289.975669 52.909846 
L 291.526484 52.909846 
L 291.526484 50.639121 
L 293.077298 50.639121 
L 293.077298 48.620698 
L 294.628112 48.620698 
L 294.628112 45.845366 
L 296.178927 45.845366 
L 296.178927 44.331549 
L 297.729741 44.331549 
L 297.729741 41.808521 
L 299.280556 41.808521 
L 299.280556 39.537795 
L 300.83137 39.537795 
L 300.83137 37.267069 
L 302.382185 37.267069 
L 302.382185 35.248646 
L 303.932999 35.248646 
L 303.932999 32.473315 
L 305.483813 32.473315 
L 305.483813 30.707195 
L 307.034628 30.707195 
L 307.034628 28.436469 
L 308.585442 28.436469 
L 308.585442 25.661138 
L 310.136257 25.661138 
L 310.136257 25.661138 
L 311.687071 25.661138 
L 311.687071 27.427258 
L 313.237886 27.427258 
L 313.237886 29.445681 
L 314.7887 29.445681 
L 314.7887 31.968709 
L 316.339514 31.968709 
L 316.339514 34.239435 
L 317.890329 34.239435 
L 317.890329 36.005555 
L 319.441143 36.005555 
L 319.441143 39.033189 
L 320.991958 39.033189 
L 320.991958 41.051612 
L 322.542772 41.051612 
L 322.542772 42.565429 
L 324.093587 42.565429 
L 324.093587 45.593064 
L 325.644401 45.593064 
L 325.644401 47.359184 
L 327.195215 47.359184 
L 327.195215 49.882212 
L 328.74603 49.882212 
L 328.74603 51.900635 
L 330.296844 51.900635 
L 330.296844 54.423664 
L 331.847659 54.423664 
L 331.847659 56.442086 
L 333.398473 56.442086 
L 333.398473 58.712812 
L 334.949288 58.712812 
L 334.949288 61.488144 
L 336.500102 61.488144 
L 336.500102 62.749658 
L 338.050916 62.749658 
L 338.050916 65.777292 
L 339.601731 65.777292 
L 339.601731 67.291109 
L 341.152545 67.291109 
L 341.152545 70.318744 
L 342.70336 70.318744 
L 342.70336 71.832561 
L 344.254174 71.832561 
L 344.254174 74.355589 
L 345.804988 74.355589 
L 345.804988 76.626315 
L 347.355803 76.626315 
L 347.355803 78.897041 
L 348.906617 78.897041 
L 348.906617 81.167766 
L 350.457432 81.167766 
L 350.457432 83.438492 
L 352.008246 83.438492 
L 352.008246 85.456915 
L 353.559061 85.456915 
L 353.559061 87.727641 
L 355.109875 87.727641 
L 355.109875 89.746064 
L 356.660689 89.746064 
L 356.660689 92.521395 
" clip-path="url(#p4a43ac6869)" style="fill: none; stroke: #000000; stroke-linejoin: miter"/>
   </g>
   <g id="patch_16">
    <path d="M 258.959381 92.521395 
L 258.959381 22.318125 
" style="fill: none; stroke: #000000; stroke-width: 0.8; stroke-linejoin: miter; stroke-linecap: square"/>
   </g>
   <g id="patch_17">
    <path d="M 361.313133 92.521395 
L 361.313133 22.318125 
" style="fill: none; stroke: #000000; stroke-width: 0.8; stroke-linejoin: miter; stroke-linecap: square"/>
   </g>
   <g id="patch_18">
    <path d="M 258.959381 92.521395 
L 361.313133 92.521395 
" style="fill: none; stroke: #000000; stroke-width: 0.8; stroke-linejoin: miter; stroke-linecap: square"/>
   </g>
   <g id="patch_19">
    <path d="M 258.959381 22.318125 
L 361.313133 22.318125 
" style="fill: none; stroke: #000000; stroke-width: 0.8; stroke-linejoin: miter; stroke-linecap: square"/>
   </g>
   <g id="text_12">
    <!-- $fB$ -->
    <g transform="translate(303.896257 16.318125) scale(0.12 -0.12)">
     <defs>
      <path id="DejaVuSans-42" d="M 1259 2228 
L 1259 519 
L 2272 519 
Q 2781 519 3026 730 
Q 3272 941 3272 1375 
Q 3272 1813 3026 2020 
Q 2781 2228 2272 2228 
L 1259 2228 
z
M 1259 4147 
L 1259 2741 
L 2194 2741 
Q 2656 2741 2882 2914 
Q 3109 3088 3109 3444 
Q 3109 3797 2882 3972 
Q 2656 4147 2194 4147 
L 1259 4147 
z
M 628 4666 
L 2241 4666 
Q 2963 4666 3353 4366 
Q 3744 4066 3744 3513 
Q 3744 3084 3544 2831 
Q 3344 2578 2956 2516 
Q 3422 2416 3680 2098 
Q 3938 1781 3938 1306 
Q 3938 681 3513 340 
Q 3088 0 2303 0 
L 628 0 
L 628 4666 
z
" transform="scale(0.015625)"/>
     </defs>
     <use xlink:href="#DejaVuSans-66" transform="translate(0 0.015625)"/>
     <use xlink:href="#DejaVuSans-42" transform="translate(35.205078 0.015625)"/>
    </g>
   </g>
  </g>
  <g id="axes_4">
   <g id="patch_20">
    <path d="M 375.015089 92.521395 
L 477.368841 92.521395 
L 477.368841 22.318125 
L 375.015089 22.318125 
z
" style="fill: #ffffff"/>
   </g>
   <g id="matplotlib.axis_7">
    <g id="xtick_10">
     <g id="line2d_10">
      <g>
       <use xlink:href="#mfed3f3abf5" x="375.624607" y="92.521395" style="stroke: #000000; stroke-width: 0.8"/>
      </g>
     </g>
     <g id="text_13">
      <!-- 0 -->
      <g transform="translate(372.443357 107.119833) scale(0.1 -0.1)">
       <use xlink:href="#DejaVuSans-30"/>
      </g>
     </g>
    </g>
    <g id="xtick_11">
     <g id="line2d_11">
      <g>
       <use xlink:href="#mfed3f3abf5" x="413.521005" y="92.521395" style="stroke: #000000; stroke-width: 0.8"/>
      </g>
     </g>
     <g id="text_14">
      <!-- 20 -->
      <g transform="translate(407.158505 107.119833) scale(0.1 -0.1)">
       <use xlink:href="#DejaVuSans-32"/>
       <use xlink:href="#DejaVuSans-30" x="63.623047"/>
      </g>
     </g>
    </g>
    <g id="xtick_12">
     <g id="line2d_12">
      <g>
       <use xlink:href="#mfed3f3abf5" x="451.417403" y="92.521395" style="stroke: #000000; stroke-width: 0.8"/>
      </g>
     </g>
     <g id="text_15">
      <!-- 40 -->
      <g transform="translate(445.054903 107.119833) scale(0.1 -0.1)">
       <defs>
        <path id="DejaVuSans-34" d="M 2419 4116 
L 825 1625 
L 2419 1625 
L 2419 4116 
z
M 2253 4666 
L 3047 4666 
L 3047 1625 
L 3713 1625 
L 3713 1100 
L 3047 1100 
L 3047 0 
L 2419 0 
L 2419 1100 
L 313 1100 
L 313 1709 
L 2253 4666 
z
" transform="scale(0.015625)"/>
       </defs>
       <use xlink:href="#DejaVuSans-34"/>
       <use xlink:href="#DejaVuSans-30" x="63.623047"/>
      </g>
     </g>
    </g>
   </g>
   <g id="matplotlib.axis_8"/>
   <g id="patch_21">
    <path d="M 379.667532 92.521395 
L 379.667532 91.488442 
L 381.218346 91.488442 
L 381.218346 87.356628 
L 382.769161 87.356628 
L 382.769161 77.684428 
L 384.319975 77.684428 
L 384.319975 63.786509 
L 385.870789 63.786509 
L 385.870789 49.043447 
L 387.421604 49.043447 
L 387.421604 36.648006 
L 388.972418 36.648006 
L 388.972418 28.853903 
L 390.523233 28.853903 
L 390.523233 25.661138 
L 392.074047 25.661138 
L 392.074047 26.224567 
L 393.624862 26.224567 
L 393.624862 30.168571 
L 395.175676 30.168571 
L 395.175676 35.615053 
L 396.72649 35.615053 
L 396.72649 42.188392 
L 398.277305 42.188392 
L 398.277305 48.761732 
L 399.828119 48.761732 
L 399.828119 55.335072 
L 401.378934 55.335072 
L 401.378934 61.063268 
L 402.929748 61.063268 
L 402.929748 66.415845 
L 404.480563 66.415845 
L 404.480563 70.829373 
L 406.031377 70.829373 
L 406.031377 74.867282 
L 407.582191 74.867282 
L 407.582191 78.060047 
L 409.133006 78.060047 
L 409.133006 80.689383 
L 410.68382 80.689383 
L 410.68382 82.9431 
L 412.234635 82.9431 
L 412.234635 84.915102 
L 413.785449 84.915102 
L 413.785449 86.22977 
L 415.336264 86.22977 
L 415.336264 87.544438 
L 416.887078 87.544438 
L 416.887078 88.483486 
L 418.437892 88.483486 
L 418.437892 89.234725 
L 419.988707 89.234725 
L 419.988707 89.892059 
L 421.539521 89.892059 
L 421.539521 90.361583 
L 423.090336 90.361583 
L 423.090336 90.831108 
L 424.64115 90.831108 
L 424.64115 91.206727 
L 426.191965 91.206727 
L 426.191965 91.300632 
L 427.742779 91.300632 
L 427.742779 91.676251 
L 429.293593 91.676251 
L 429.293593 91.770156 
L 430.844408 91.770156 
L 430.844408 91.864061 
L 432.395222 91.864061 
L 432.395222 92.145776 
L 433.946037 92.145776 
L 433.946037 92.051871 
L 435.496851 92.051871 
L 435.496851 92.333585 
L 437.047666 92.333585 
L 437.047666 92.145776 
L 438.59848 92.145776 
L 438.59848 92.333585 
L 440.149294 92.333585 
L 440.149294 92.521395 
L 441.700109 92.521395 
L 441.700109 92.333585 
L 443.250923 92.333585 
L 443.250923 92.23968 
L 444.801738 92.23968 
L 444.801738 92.521395 
L 446.352552 92.521395 
L 446.352552 92.42749 
L 447.903366 92.42749 
L 447.903366 92.42749 
L 449.454181 92.42749 
L 449.454181 92.521395 
L 451.004995 92.521395 
L 451.004995 92.42749 
L 452.55581 92.42749 
L 452.55581 92.521395 
L 454.106624 92.521395 
L 454.106624 92.521395 
L 455.657439 92.521395 
L 455.657439 92.521395 
L 457.208253 92.521395 
L 457.208253 92.521395 
L 458.759067 92.521395 
L 458.759067 92.42749 
L 460.309882 92.42749 
L 460.309882 92.521395 
L 461.860696 92.521395 
L 461.860696 92.521395 
L 463.411511 92.521395 
L 463.411511 92.521395 
L 464.962325 92.521395 
L 464.962325 92.521395 
L 466.51314 92.521395 
L 466.51314 92.521395 
L 468.063954 92.521395 
L 468.063954 92.521395 
L 469.614768 92.521395 
L 469.614768 92.521395 
L 471.165583 92.521395 
L 471.165583 92.42749 
L 472.716397 92.42749 
L 472.716397 92.521395 
" clip-path="url(#p09c3c3e47c)" style="fill: none; stroke: #000000; stroke-linejoin: miter"/>
   </g>
   <g id="patch_22">
    <path d="M 375.015089 92.521395 
L 375.015089 22.318125 
" style="fill: none; stroke: #000000; stroke-width: 0.8; stroke-linejoin: miter; stroke-linecap: square"/>
   </g>
   <g id="patch_23">
    <path d="M 477.368841 92.521395 
L 477.368841 22.318125 
" style="fill: none; stroke: #000000; stroke-width: 0.8; stroke-linejoin: miter; stroke-linecap: square"/>
   </g>
   <g id="patch_24">
    <path d="M 375.015089 92.521395 
L 477.368841 92.521395 
" style="fill: none; stroke: #000000; stroke-width: 0.8; stroke-linejoin: miter; stroke-linecap: square"/>
   </g>
   <g id="patch_25">
    <path d="M 375.015089 22.318125 
L 477.368841 22.318125 
" style="fill: none; stroke: #000000; stroke-width: 0.8; stroke-linejoin: miter; stroke-linecap: square"/>
   </g>
   <g id="text_16">
    <!-- $k$ -->
    <g transform="translate(422.711965 16.318125) scale(0.12 -0.12)">
     <defs>
      <path id="DejaVuSans-6b" d="M 581 4863 
L 1159 4863 
L 1159 1991 
L 2875 3500 
L 3609 3500 
L 1753 1863 
L 3688 0 
L 2938 0 
L 1159 1709 
L 1159 0 
L 581 0 
L 581 4863 
z
" transform="scale(0.015625)"/>
     </defs>
     <use xlink:href="#DejaVuSans-6b" transform="translate(0 0.015625)"/>
    </g>
   </g>
  </g>
  <g id="axes_5">
   <g id="patch_26">
    <path d="M 488.805486 92.521395 
L 591.159238 92.521395 
L 591.159238 22.318125 
L 488.805486 22.318125 
z
" style="fill: #ffffff"/>
   </g>
   <g id="matplotlib.axis_9">
    <g id="xtick_13">
     <g id="line2d_13">
      <g>
       <use xlink:href="#mfed3f3abf5" x="534.047292" y="92.521395" style="stroke: #000000; stroke-width: 0.8"/>
      </g>
     </g>
     <g id="text_17">
      <!-- 0.0002 -->
      <g transform="translate(516.55198 107.119833) scale(0.1 -0.1)">
       <use xlink:href="#DejaVuSans-30"/>
       <use xlink:href="#DejaVuSans-2e" x="63.623047"/>
       <use xlink:href="#DejaVuSans-30" x="95.410156"/>
       <use xlink:href="#DejaVuSans-30" x="159.033203"/>
       <use xlink:href="#DejaVuSans-30" x="222.65625"/>
       <use xlink:href="#DejaVuSans-32" x="286.279297"/>
      </g>
     </g>
    </g>
    <g id="xtick_14">
     <g id="line2d_14">
      <g>
       <use xlink:href="#mfed3f3abf5" x="580.090129" y="92.521395" style="stroke: #000000; stroke-width: 0.8"/>
      </g>
     </g>
     <g id="text_18">
      <!-- 0.0004 -->
      <g transform="translate(562.594816 107.119833) scale(0.1 -0.1)">
       <use xlink:href="#DejaVuSans-30"/>
       <use xlink:href="#DejaVuSans-2e" x="63.623047"/>
       <use xlink:href="#DejaVuSans-30" x="95.410156"/>
       <use xlink:href="#DejaVuSans-30" x="159.033203"/>
       <use xlink:href="#DejaVuSans-30" x="222.65625"/>
       <use xlink:href="#DejaVuSans-34" x="286.279297"/>
      </g>
     </g>
    </g>
   </g>
   <g id="matplotlib.axis_10"/>
   <g id="patch_27">
    <path d="M 493.457929 92.521395 
L 493.457929 91.040674 
L 495.008743 91.040674 
L 495.008743 87.168018 
L 496.559558 87.168018 
L 496.559558 79.650511 
L 498.110372 79.650511 
L 498.110372 68.715954 
L 499.661186 68.715954 
L 499.661186 56.52848 
L 501.212001 56.52848 
L 501.212001 44.68271 
L 502.762815 44.68271 
L 502.762815 35.57058 
L 504.31363 35.57058 
L 504.31363 28.964285 
L 505.864444 28.964285 
L 505.864444 26.002843 
L 507.415259 26.002843 
L 507.415259 25.661138 
L 508.966073 25.661138 
L 508.966073 27.711367 
L 510.516887 27.711367 
L 510.516887 31.470121 
L 512.067702 31.470121 
L 512.067702 36.253989 
L 513.618516 36.253989 
L 513.618516 41.607366 
L 515.169331 41.607366 
L 515.169331 46.960743 
L 516.720145 46.960743 
L 516.720145 52.428021 
L 518.27096 52.428021 
L 518.27096 57.553594 
L 519.821774 57.553594 
L 519.821774 62.337463 
L 521.372588 62.337463 
L 521.372588 66.437922 
L 522.923403 66.437922 
L 522.923403 70.310577 
L 524.474217 70.310577 
L 524.474217 73.499823 
L 526.025032 73.499823 
L 526.025032 76.575167 
L 527.575846 76.575167 
L 527.575846 78.967101 
L 529.126661 78.967101 
L 529.126661 81.01733 
L 530.677475 81.01733 
L 530.677475 82.953658 
L 532.228289 82.953658 
L 532.228289 84.434379 
L 533.779104 84.434379 
L 533.779104 85.573396 
L 535.329918 85.573396 
L 535.329918 87.054117 
L 536.880733 87.054117 
L 536.880733 87.737527 
L 538.431547 87.737527 
L 538.431547 88.420936 
L 539.982362 88.420936 
L 539.982362 89.218248 
L 541.533176 89.218248 
L 541.533176 89.673854 
L 543.08399 89.673854 
L 543.08399 90.357264 
L 544.634805 90.357264 
L 544.634805 90.357264 
L 546.185619 90.357264 
L 546.185619 90.926772 
L 547.736434 90.926772 
L 547.736434 91.268477 
L 549.287248 91.268477 
L 549.287248 91.382379 
L 550.838063 91.382379 
L 550.838063 91.49628 
L 552.388877 91.49628 
L 552.388877 91.724084 
L 553.939691 91.724084 
L 553.939691 91.951887 
L 555.490506 91.951887 
L 555.490506 91.837985 
L 557.04132 91.837985 
L 557.04132 91.951887 
L 558.592135 91.951887 
L 558.592135 92.17969 
L 560.142949 92.17969 
L 560.142949 92.065788 
L 561.693763 92.065788 
L 561.693763 92.293592 
L 563.244578 92.293592 
L 563.244578 92.407493 
L 564.795392 92.407493 
L 564.795392 92.17969 
L 566.346207 92.17969 
L 566.346207 92.293592 
L 567.897021 92.293592 
L 567.897021 92.407493 
L 569.447836 92.407493 
L 569.447836 92.407493 
L 570.99865 92.407493 
L 570.99865 92.407493 
L 572.549464 92.407493 
L 572.549464 92.407493 
L 574.100279 92.407493 
L 574.100279 92.521395 
L 575.651093 92.521395 
L 575.651093 92.407493 
L 577.201908 92.407493 
L 577.201908 92.407493 
L 578.752722 92.407493 
L 578.752722 92.521395 
L 580.303537 92.521395 
L 580.303537 92.521395 
L 581.854351 92.521395 
L 581.854351 92.521395 
L 583.405165 92.521395 
L 583.405165 92.407493 
L 584.95598 92.407493 
L 584.95598 92.407493 
L 586.506794 92.407493 
L 586.506794 92.521395 
" clip-path="url(#p61d0959fdb)" style="fill: none; stroke: #000000; stroke-linejoin: miter"/>
   </g>
   <g id="patch_28">
    <path d="M 488.805486 92.521395 
L 488.805486 22.318125 
" style="fill: none; stroke: #000000; stroke-width: 0.8; stroke-linejoin: miter; stroke-linecap: square"/>
   </g>
   <g id="patch_29">
    <path d="M 591.159238 92.521395 
L 591.159238 22.318125 
" style="fill: none; stroke: #000000; stroke-width: 0.8; stroke-linejoin: miter; stroke-linecap: square"/>
   </g>
   <g id="patch_30">
    <path d="M 488.805486 92.521395 
L 591.159238 92.521395 
" style="fill: none; stroke: #000000; stroke-width: 0.8; stroke-linejoin: miter; stroke-linecap: square"/>
   </g>
   <g id="patch_31">
    <path d="M 488.805486 22.318125 
L 591.159238 22.318125 
" style="fill: none; stroke: #000000; stroke-width: 0.8; stroke-linejoin: miter; stroke-linecap: square"/>
   </g>
   <g id="text_19">
    <!-- $KT$ -->
    <g transform="translate(532.362362 16.318125) scale(0.12 -0.12)">
     <defs>
      <path id="DejaVuSans-4b" d="M 628 4666 
L 1259 4666 
L 1259 2694 
L 3353 4666 
L 4166 4666 
L 1850 2491 
L 4331 0 
L 3500 0 
L 1259 2247 
L 1259 0 
L 628 0 
L 628 4666 
z
" transform="scale(0.015625)"/>
      <path id="DejaVuSans-54" d="M -19 4666 
L 3928 4666 
L 3928 4134 
L 2272 4134 
L 2272 0 
L 1638 0 
L 1638 4134 
L -19 4134 
L -19 4666 
z
" transform="scale(0.015625)"/>
     </defs>
     <use xlink:href="#DejaVuSans-4b" transform="translate(0 0.09375)"/>
     <use xlink:href="#DejaVuSans-54" transform="translate(65.576172 0.09375)"/>
    </g>
   </g>
  </g>
  <g id="axes_6">
   <g id="patch_32">
    <path d="M 30.98024 200.521395 
L 133.333992 200.521395 
L 133.333992 130.318125 
L 30.98024 130.318125 
z
" style="fill: #ffffff"/>
   </g>
   <g id="matplotlib.axis_11">
    <g id="xtick_15">
     <g id="line2d_15">
      <g>
       <use xlink:href="#mfed3f3abf5" x="35.139171" y="200.521395" style="stroke: #000000; stroke-width: 0.8"/>
      </g>
     </g>
     <g id="text_20">
      <!-- 0 -->
      <g transform="translate(31.957921 215.119833) scale(0.1 -0.1)">
       <use xlink:href="#DejaVuSans-30"/>
      </g>
     </g>
    </g>
    <g id="xtick_16">
     <g id="line2d_16">
      <g>
       <use xlink:href="#mfed3f3abf5" x="100.54186" y="200.521395" style="stroke: #000000; stroke-width: 0.8"/>
      </g>
     </g>
     <g id="text_21">
      <!-- 10 -->
      <g transform="translate(94.17936 215.119833) scale(0.1 -0.1)">
       <use xlink:href="#DejaVuSans-31"/>
       <use xlink:href="#DejaVuSans-30" x="63.623047"/>
      </g>
     </g>
    </g>
   </g>
   <g id="matplotlib.axis_12"/>
   <g id="patch_33">
    <path d="M 35.632683 200.521395 
L 35.632683 182.278096 
L 37.183498 182.278096 
L 37.183498 142.926059 
L 38.734312 142.926059 
L 38.734312 133.661138 
L 40.285127 133.661138 
L 40.285127 142.257457 
L 41.835941 142.257457 
L 41.835941 154.578847 
L 43.386755 154.578847 
L 43.386755 165.658547 
L 44.93757 165.658547 
L 44.93757 174.541409 
L 46.488384 174.541409 
L 46.488384 181.036406 
L 48.039199 181.036406 
L 48.039199 185.95541 
L 49.590013 185.95541 
L 49.590013 189.584967 
L 51.140828 189.584967 
L 51.140828 192.259378 
L 52.691642 192.259378 
L 52.691642 194.169671 
L 54.242456 194.169671 
L 54.242456 195.650148 
L 55.793271 195.650148 
L 55.793271 196.700809 
L 57.344085 196.700809 
L 57.344085 197.608198 
L 58.8949 197.608198 
L 58.8949 198.229043 
L 60.445714 198.229043 
L 60.445714 198.658859 
L 61.996528 198.658859 
L 61.996528 199.040918 
L 63.547343 199.040918 
L 63.547343 199.327462 
L 65.098157 199.327462 
L 65.098157 199.661763 
L 66.648972 199.661763 
L 66.648972 199.757278 
L 68.199786 199.757278 
L 68.199786 199.852792 
L 69.750601 199.852792 
L 69.750601 199.996064 
L 71.301415 199.996064 
L 71.301415 200.187094 
L 72.852229 200.187094 
L 72.852229 200.139336 
L 74.403044 200.139336 
L 74.403044 200.234851 
L 75.953858 200.234851 
L 75.953858 200.234851 
L 77.504673 200.234851 
L 77.504673 200.330366 
L 79.055487 200.330366 
L 79.055487 200.42588 
L 80.606302 200.42588 
L 80.606302 200.330366 
L 82.157116 200.330366 
L 82.157116 200.42588 
L 83.70793 200.42588 
L 83.70793 200.42588 
L 85.258745 200.42588 
L 85.258745 200.42588 
L 86.809559 200.42588 
L 86.809559 200.42588 
L 88.360374 200.42588 
L 88.360374 200.42588 
L 89.911188 200.42588 
L 89.911188 200.521395 
L 91.462003 200.521395 
L 91.462003 200.473638 
L 93.012817 200.473638 
L 93.012817 200.473638 
L 94.563631 200.473638 
L 94.563631 200.521395 
L 96.114446 200.521395 
L 96.114446 200.521395 
L 97.66526 200.521395 
L 97.66526 200.473638 
L 99.216075 200.473638 
L 99.216075 200.42588 
L 100.766889 200.42588 
L 100.766889 200.521395 
L 102.317704 200.521395 
L 102.317704 200.473638 
L 103.868518 200.473638 
L 103.868518 200.521395 
L 105.419332 200.521395 
L 105.419332 200.521395 
L 106.970147 200.521395 
L 106.970147 200.521395 
L 108.520961 200.521395 
L 108.520961 200.521395 
L 110.071776 200.521395 
L 110.071776 200.521395 
L 111.62259 200.521395 
L 111.62259 200.521395 
L 113.173405 200.521395 
L 113.173405 200.473638 
L 114.724219 200.473638 
L 114.724219 200.521395 
L 116.275033 200.521395 
L 116.275033 200.521395 
L 117.825848 200.521395 
L 117.825848 200.521395 
L 119.376662 200.521395 
L 119.376662 200.521395 
L 120.927477 200.521395 
L 120.927477 200.521395 
L 122.478291 200.521395 
L 122.478291 200.521395 
L 124.029105 200.521395 
L 124.029105 200.521395 
L 125.57992 200.521395 
L 125.57992 200.521395 
L 127.130734 200.521395 
L 127.130734 200.473638 
L 128.681549 200.473638 
L 128.681549 200.521395 
" clip-path="url(#pdb5d867443)" style="fill: none; stroke: #000000; stroke-linejoin: miter"/>
   </g>
   <g id="patch_34">
    <path d="M 30.98024 200.521395 
L 30.98024 130.318125 
" style="fill: none; stroke: #000000; stroke-width: 0.8; stroke-linejoin: miter; stroke-linecap: square"/>
   </g>
   <g id="patch_35">
    <path d="M 133.333992 200.521395 
L 133.333992 130.318125 
" style="fill: none; stroke: #000000; stroke-width: 0.8; stroke-linejoin: miter; stroke-linecap: square"/>
   </g>
   <g id="patch_36">
    <path d="M 30.98024 200.521395 
L 133.333992 200.521395 
" style="fill: none; stroke: #000000; stroke-width: 0.8; stroke-linejoin: miter; stroke-linecap: square"/>
   </g>
   <g id="patch_37">
    <path d="M 30.98024 130.318125 
L 133.333992 130.318125 
" style="fill: none; stroke: #000000; stroke-width: 0.8; stroke-linejoin: miter; stroke-linecap: square"/>
   </g>
   <g id="text_22">
    <!-- $K1$ -->
    <g transform="translate(74.357116 124.318125) scale(0.12 -0.12)">
     <use xlink:href="#DejaVuSans-4b" transform="translate(0 0.09375)"/>
     <use xlink:href="#DejaVuSans-31" transform="translate(65.576172 0.09375)"/>
    </g>
   </g>
  </g>
  <g id="axes_7">
   <g id="patch_38">
    <path d="M 142.956456 200.521395 
L 245.310208 200.521395 
L 245.310208 130.318125 
L 142.956456 130.318125 
z
" style="fill: #ffffff"/>
   </g>
   <g id="matplotlib.axis_13">
    <g id="xtick_17">
     <g id="line2d_17">
      <g>
       <use xlink:href="#mfed3f3abf5" x="147.225414" y="200.521395" style="stroke: #000000; stroke-width: 0.8"/>
      </g>
     </g>
     <g id="text_23">
      <!-- 0 -->
      <g transform="translate(144.044164 215.119833) scale(0.1 -0.1)">
       <use xlink:href="#DejaVuSans-30"/>
      </g>
     </g>
    </g>
    <g id="xtick_18">
     <g id="line2d_18">
      <g>
       <use xlink:href="#mfed3f3abf5" x="205.285461" y="200.521395" style="stroke: #000000; stroke-width: 0.8"/>
      </g>
     </g>
     <g id="text_24">
      <!-- 10 -->
      <g transform="translate(198.922961 215.119833) scale(0.1 -0.1)">
       <use xlink:href="#DejaVuSans-31"/>
       <use xlink:href="#DejaVuSans-30" x="63.623047"/>
      </g>
     </g>
    </g>
   </g>
   <g id="matplotlib.axis_14"/>
   <g id="patch_39">
    <path d="M 147.6089 200.521395 
L 147.6089 180.450285 
L 149.159714 180.450285 
L 149.159714 138.439974 
L 150.710528 138.439974 
L 150.710528 133.661138 
L 152.261343 133.661138 
L 152.261343 145.868891 
L 153.812157 145.868891 
L 153.812157 159.684071 
L 155.362972 159.684071 
L 155.362972 171.022945 
L 156.913786 171.022945 
L 156.913786 179.277298 
L 158.464601 179.277298 
L 158.464601 185.142233 
L 160.015415 185.142233 
L 160.015415 189.443185 
L 161.566229 189.443185 
L 161.566229 192.397374 
L 163.117044 192.397374 
L 163.117044 194.43924 
L 164.667858 194.43924 
L 164.667858 196.090111 
L 166.218673 196.090111 
L 166.218673 197.132766 
L 167.769487 197.132766 
L 167.769487 197.914757 
L 169.320302 197.914757 
L 169.320302 198.566417 
L 170.871116 198.566417 
L 170.871116 199.000856 
L 172.42193 199.000856 
L 172.42193 199.348408 
L 173.972745 199.348408 
L 173.972745 199.565628 
L 175.523559 199.565628 
L 175.523559 199.782848 
L 177.074374 199.782848 
L 177.074374 199.91318 
L 178.625188 199.91318 
L 178.625188 200.086955 
L 180.176003 200.086955 
L 180.176003 200.173843 
L 181.726817 200.173843 
L 181.726817 200.217287 
L 183.277631 200.217287 
L 183.277631 200.217287 
L 184.828446 200.217287 
L 184.828446 200.347619 
L 186.37926 200.347619 
L 186.37926 200.391063 
L 187.930075 200.391063 
L 187.930075 200.347619 
L 189.480889 200.347619 
L 189.480889 200.391063 
L 191.031704 200.391063 
L 191.031704 200.434507 
L 192.582518 200.434507 
L 192.582518 200.477951 
L 194.133332 200.477951 
L 194.133332 200.434507 
L 195.684147 200.434507 
L 195.684147 200.477951 
L 197.234961 200.477951 
L 197.234961 200.477951 
L 198.785776 200.477951 
L 198.785776 200.477951 
L 200.33659 200.477951 
L 200.33659 200.434507 
L 201.887405 200.434507 
L 201.887405 200.521395 
L 203.438219 200.521395 
L 203.438219 200.477951 
L 204.989033 200.477951 
L 204.989033 200.521395 
L 206.539848 200.521395 
L 206.539848 200.521395 
L 208.090662 200.521395 
L 208.090662 200.477951 
L 209.641477 200.477951 
L 209.641477 200.521395 
L 211.192291 200.521395 
L 211.192291 200.521395 
L 212.743105 200.521395 
L 212.743105 200.521395 
L 214.29392 200.521395 
L 214.29392 200.521395 
L 215.844734 200.521395 
L 215.844734 200.477951 
L 217.395549 200.477951 
L 217.395549 200.521395 
L 218.946363 200.521395 
L 218.946363 200.521395 
L 220.497178 200.521395 
L 220.497178 200.521395 
L 222.047992 200.521395 
L 222.047992 200.521395 
L 223.598806 200.521395 
L 223.598806 200.521395 
L 225.149621 200.521395 
L 225.149621 200.521395 
L 226.700435 200.521395 
L 226.700435 200.521395 
L 228.25125 200.521395 
L 228.25125 200.521395 
L 229.802064 200.521395 
L 229.802064 200.521395 
L 231.352879 200.521395 
L 231.352879 200.521395 
L 232.903693 200.521395 
L 232.903693 200.521395 
L 234.454507 200.521395 
L 234.454507 200.521395 
L 236.005322 200.521395 
L 236.005322 200.521395 
L 237.556136 200.521395 
L 237.556136 200.521395 
L 239.106951 200.521395 
L 239.106951 200.477951 
L 240.657765 200.477951 
L 240.657765 200.521395 
" clip-path="url(#pfb189835df)" style="fill: none; stroke: #000000; stroke-linejoin: miter"/>
   </g>
   <g id="patch_40">
    <path d="M 142.956456 200.521395 
L 142.956456 130.318125 
" style="fill: none; stroke: #000000; stroke-width: 0.8; stroke-linejoin: miter; stroke-linecap: square"/>
   </g>
   <g id="patch_41">
    <path d="M 245.310208 200.521395 
L 245.310208 130.318125 
" style="fill: none; stroke: #000000; stroke-width: 0.8; stroke-linejoin: miter; stroke-linecap: square"/>
   </g>
   <g id="patch_42">
    <path d="M 142.956456 200.521395 
L 245.310208 200.521395 
" style="fill: none; stroke: #000000; stroke-width: 0.8; stroke-linejoin: miter; stroke-linecap: square"/>
   </g>
   <g id="patch_43">
    <path d="M 142.956456 130.318125 
L 245.310208 130.318125 
" style="fill: none; stroke: #000000; stroke-width: 0.8; stroke-linejoin: miter; stroke-linecap: square"/>
   </g>
   <g id="text_25">
    <!-- $K2$ -->
    <g transform="translate(186.333332 124.318125) scale(0.12 -0.12)">
     <use xlink:href="#DejaVuSans-4b" transform="translate(0 0.78125)"/>
     <use xlink:href="#DejaVuSans-32" transform="translate(65.576172 0.78125)"/>
    </g>
   </g>
  </g>
  <g id="axes_8">
   <g id="patch_44">
    <path d="M 258.959381 200.521395 
L 361.313133 200.521395 
L 361.313133 130.318125 
L 258.959381 130.318125 
z
" style="fill: #ffffff"/>
   </g>
   <g id="matplotlib.axis_15">
    <g id="xtick_19">
     <g id="line2d_19">
      <g>
       <use xlink:href="#mfed3f3abf5" x="262.943794" y="200.521395" style="stroke: #000000; stroke-width: 0.8"/>
      </g>
     </g>
     <g id="text_26">
      <!-- 0.0 -->
      <g transform="translate(254.992231 215.119833) scale(0.1 -0.1)">
       <use xlink:href="#DejaVuSans-30"/>
       <use xlink:href="#DejaVuSans-2e" x="63.623047"/>
       <use xlink:href="#DejaVuSans-30" x="95.410156"/>
      </g>
     </g>
    </g>
    <g id="xtick_20">
     <g id="line2d_20">
      <g>
       <use xlink:href="#mfed3f3abf5" x="310.047328" y="200.521395" style="stroke: #000000; stroke-width: 0.8"/>
      </g>
     </g>
     <g id="text_27">
      <!-- 0.5 -->
      <g transform="translate(302.095765 215.119833) scale(0.1 -0.1)">
       <use xlink:href="#DejaVuSans-30"/>
       <use xlink:href="#DejaVuSans-2e" x="63.623047"/>
       <use xlink:href="#DejaVuSans-35" x="95.410156"/>
      </g>
     </g>
    </g>
    <g id="xtick_21">
     <g id="line2d_21">
      <g>
       <use xlink:href="#mfed3f3abf5" x="357.150862" y="200.521395" style="stroke: #000000; stroke-width: 0.8"/>
      </g>
     </g>
     <g id="text_28">
      <!-- 1.0 -->
      <g transform="translate(349.199299 215.119833) scale(0.1 -0.1)">
       <use xlink:href="#DejaVuSans-31"/>
       <use xlink:href="#DejaVuSans-2e" x="63.623047"/>
       <use xlink:href="#DejaVuSans-30" x="95.410156"/>
      </g>
     </g>
    </g>
   </g>
   <g id="matplotlib.axis_16"/>
   <g id="patch_45">
    <path d="M 263.611824 200.521395 
L 263.611824 198.276088 
L 265.162638 198.276088 
L 265.162638 196.280259 
L 266.713453 196.280259 
L 266.713453 194.034952 
L 268.264267 194.034952 
L 268.264267 191.789645 
L 269.815082 191.789645 
L 269.815082 189.793816 
L 271.365896 189.793816 
L 271.365896 187.049552 
L 272.916711 187.049552 
L 272.916711 185.303202 
L 274.467525 185.303202 
L 274.467525 183.057895 
L 276.018339 183.057895 
L 276.018339 180.812588 
L 277.569154 180.812588 
L 277.569154 178.068324 
L 279.119968 178.068324 
L 279.119968 176.571452 
L 280.670783 176.571452 
L 280.670783 174.076666 
L 282.221597 174.076666 
L 282.221597 172.080838 
L 283.772411 172.080838 
L 283.772411 169.586052 
L 285.323226 169.586052 
L 285.323226 167.091266 
L 286.87404 167.091266 
L 286.87404 165.594395 
L 288.424855 165.594395 
L 288.424855 162.600652 
L 289.975669 162.600652 
L 289.975669 161.103781 
L 291.526484 161.103781 
L 291.526484 158.608995 
L 293.077298 158.608995 
L 293.077298 156.363688 
L 294.628112 156.363688 
L 294.628112 154.118381 
L 296.178927 154.118381 
L 296.178927 151.873074 
L 297.729741 151.873074 
L 297.729741 149.877245 
L 299.280556 149.877245 
L 299.280556 147.382459 
L 300.83137 147.382459 
L 300.83137 145.137152 
L 302.382185 145.137152 
L 302.382185 143.141324 
L 303.932999 143.141324 
L 303.932999 140.896016 
L 305.483813 140.896016 
L 305.483813 138.900188 
L 307.034628 138.900188 
L 307.034628 136.654881 
L 308.585442 136.654881 
L 308.585442 133.661138 
L 310.136257 133.661138 
L 310.136257 134.659052 
L 311.687071 134.659052 
L 311.687071 136.654881 
L 313.237886 136.654881 
L 313.237886 138.900188 
L 314.7887 138.900188 
L 314.7887 141.145495 
L 316.339514 141.145495 
L 316.339514 143.390802 
L 317.890329 143.390802 
L 317.890329 145.386631 
L 319.441143 145.386631 
L 319.441143 147.881416 
L 320.991958 147.881416 
L 320.991958 150.126724 
L 322.542772 150.126724 
L 322.542772 152.122552 
L 324.093587 152.122552 
L 324.093587 154.617338 
L 325.644401 154.617338 
L 325.644401 156.114209 
L 327.195215 156.114209 
L 327.195215 158.858474 
L 328.74603 158.858474 
L 328.74603 161.103781 
L 330.296844 161.103781 
L 330.296844 163.349088 
L 331.847659 163.349088 
L 331.847659 165.594395 
L 333.398473 165.594395 
L 333.398473 167.590224 
L 334.949288 167.590224 
L 334.949288 170.085009 
L 336.500102 170.085009 
L 336.500102 172.080838 
L 338.050916 172.080838 
L 338.050916 174.326145 
L 339.601731 174.326145 
L 339.601731 176.571452 
L 341.152545 176.571452 
L 341.152545 178.567281 
L 342.70336 178.567281 
L 342.70336 181.062066 
L 344.254174 181.062066 
L 344.254174 183.307374 
L 345.804988 183.307374 
L 345.804988 185.552681 
L 347.355803 185.552681 
L 347.355803 187.299031 
L 348.906617 187.299031 
L 348.906617 189.793816 
L 350.457432 189.793816 
L 350.457432 192.538081 
L 352.008246 192.538081 
L 352.008246 194.034952 
L 353.559061 194.034952 
L 353.559061 196.529738 
L 355.109875 196.529738 
L 355.109875 198.525566 
L 356.660689 198.525566 
L 356.660689 200.521395 
" clip-path="url(#pac0a8deb3f)" style="fill: none; stroke: #000000; stroke-linejoin: miter"/>
   </g>
   <g id="patch_46">
    <path d="M 258.959381 200.521395 
L 258.959381 130.318125 
" style="fill: none; stroke: #000000; stroke-width: 0.8; stroke-linejoin: miter; stroke-linecap: square"/>
   </g>
   <g id="patch_47">
    <path d="M 361.313133 200.521395 
L 361.313133 130.318125 
" style="fill: none; stroke: #000000; stroke-width: 0.8; stroke-linejoin: miter; stroke-linecap: square"/>
   </g>
   <g id="patch_48">
    <path d="M 258.959381 200.521395 
L 361.313133 200.521395 
" style="fill: none; stroke: #000000; stroke-width: 0.8; stroke-linejoin: miter; stroke-linecap: square"/>
   </g>
   <g id="patch_49">
    <path d="M 258.959381 130.318125 
L 361.313133 130.318125 
" style="fill: none; stroke: #000000; stroke-width: 0.8; stroke-linejoin: miter; stroke-linecap: square"/>
   </g>
   <g id="text_29">
    <!-- $p$ -->
    <g transform="translate(306.296257 124.318125) scale(0.12 -0.12)">
     <defs>
      <path id="DejaVuSans-70" d="M 1159 525 
L 1159 -1331 
L 581 -1331 
L 581 3500 
L 1159 3500 
L 1159 2969 
Q 1341 3281 1617 3432 
Q 1894 3584 2278 3584 
Q 2916 3584 3314 3078 
Q 3713 2572 3713 1747 
Q 3713 922 3314 415 
Q 2916 -91 2278 -91 
Q 1894 -91 1617 61 
Q 1341 213 1159 525 
z
M 3116 1747 
Q 3116 2381 2855 2742 
Q 2594 3103 2138 3103 
Q 1681 3103 1420 2742 
Q 1159 2381 1159 1747 
Q 1159 1113 1420 752 
Q 1681 391 2138 391 
Q 2594 391 2855 752 
Q 3116 1113 3116 1747 
z
" transform="scale(0.015625)"/>
     </defs>
     <use xlink:href="#DejaVuSans-70"/>
    </g>
   </g>
  </g>
  <g id="axes_9">
   <g id="patch_50">
    <path d="M 375.015089 200.521395 
L 477.368841 200.521395 
L 477.368841 130.318125 
L 375.015089 130.318125 
z
" style="fill: #ffffff"/>
   </g>
   <g id="matplotlib.axis_17">
    <g id="xtick_22">
     <g id="line2d_22">
      <g>
       <use xlink:href="#mfed3f3abf5" x="402.539606" y="200.521395" style="stroke: #000000; stroke-width: 0.8"/>
      </g>
     </g>
     <g id="text_30">
      <!-- 1 -->
      <g transform="translate(399.358356 215.119833) scale(0.1 -0.1)">
       <use xlink:href="#DejaVuSans-31"/>
      </g>
     </g>
    </g>
    <g id="xtick_23">
     <g id="line2d_23">
      <g>
       <use xlink:href="#mfed3f3abf5" x="439.337568" y="200.521395" style="stroke: #000000; stroke-width: 0.8"/>
      </g>
     </g>
     <g id="text_31">
      <!-- 2 -->
      <g transform="translate(436.156318 215.119833) scale(0.1 -0.1)">
       <use xlink:href="#DejaVuSans-32"/>
      </g>
     </g>
    </g>
    <g id="xtick_24">
     <g id="line2d_24">
      <g>
       <use xlink:href="#mfed3f3abf5" x="476.13553" y="200.521395" style="stroke: #000000; stroke-width: 0.8"/>
      </g>
     </g>
     <g id="text_32">
      <!-- 3 -->
      <g transform="translate(472.95428 215.119833) scale(0.1 -0.1)">
       <defs>
        <path id="DejaVuSans-33" d="M 2597 2516 
Q 3050 2419 3304 2112 
Q 3559 1806 3559 1356 
Q 3559 666 3084 287 
Q 2609 -91 1734 -91 
Q 1441 -91 1130 -33 
Q 819 25 488 141 
L 488 750 
Q 750 597 1062 519 
Q 1375 441 1716 441 
Q 2309 441 2620 675 
Q 2931 909 2931 1356 
Q 2931 1769 2642 2001 
Q 2353 2234 1838 2234 
L 1294 2234 
L 1294 2753 
L 1863 2753 
Q 2328 2753 2575 2939 
Q 2822 3125 2822 3475 
Q 2822 3834 2567 4026 
Q 2313 4219 1838 4219 
Q 1578 4219 1281 4162 
Q 984 4106 628 3988 
L 628 4550 
Q 988 4650 1302 4700 
Q 1616 4750 1894 4750 
Q 2613 4750 3031 4423 
Q 3450 4097 3450 3541 
Q 3450 3153 3228 2886 
Q 3006 2619 2597 2516 
z
" transform="scale(0.015625)"/>
       </defs>
       <use xlink:href="#DejaVuSans-33"/>
      </g>
     </g>
    </g>
   </g>
   <g id="matplotlib.axis_18"/>
   <g id="patch_51">
    <path d="M 379.667532 200.521395 
L 379.667532 200.027961 
L 381.218346 200.027961 
L 381.218346 199.287811 
L 382.769161 199.287811 
L 382.769161 197.684152 
L 384.319975 197.684152 
L 384.319975 194.230116 
L 385.870789 194.230116 
L 385.870789 189.29578 
L 387.421604 189.29578 
L 387.421604 182.387709 
L 388.972418 182.387709 
L 388.972418 174.122696 
L 390.523233 174.122696 
L 390.523233 164.994173 
L 392.074047 164.994173 
L 392.074047 155.865651 
L 393.624862 155.865651 
L 393.624862 147.847355 
L 395.175676 147.847355 
L 395.175676 141.186001 
L 396.72649 141.186001 
L 396.72649 136.62174 
L 398.277305 136.62174 
L 398.277305 133.907855 
L 399.828119 133.907855 
L 399.828119 133.661138 
L 401.378934 133.661138 
L 401.378934 135.264797 
L 402.929748 135.264797 
L 402.929748 138.225399 
L 404.480563 138.225399 
L 404.480563 142.296226 
L 406.031377 142.296226 
L 406.031377 147.47728 
L 407.582191 147.47728 
L 407.582191 152.658333 
L 409.133006 152.658333 
L 409.133006 158.209461 
L 410.68382 158.209461 
L 410.68382 163.637231 
L 412.234635 163.637231 
L 412.234635 168.324851 
L 413.785449 168.324851 
L 413.785449 173.259187 
L 415.336264 173.259187 
L 415.336264 177.453373 
L 416.887078 177.453373 
L 416.887078 180.907408 
L 418.437892 180.907408 
L 418.437892 184.484802 
L 419.988707 184.484802 
L 419.988707 187.198687 
L 421.539521 187.198687 
L 421.539521 189.419138 
L 423.090336 189.419138 
L 423.090336 191.63959 
L 424.64115 191.63959 
L 424.64115 192.996532 
L 426.191965 192.996532 
L 426.191965 194.600191 
L 427.742779 194.600191 
L 427.742779 195.710417 
L 429.293593 195.710417 
L 429.293593 196.820643 
L 430.844408 196.820643 
L 430.844408 197.314076 
L 432.395222 197.314076 
L 432.395222 198.054227 
L 433.946037 198.054227 
L 433.946037 198.671019 
L 435.496851 198.671019 
L 435.496851 198.917736 
L 437.047666 198.917736 
L 437.047666 199.287811 
L 438.59848 199.287811 
L 438.59848 199.534528 
L 440.149294 199.534528 
L 440.149294 199.781245 
L 441.700109 199.781245 
L 441.700109 199.781245 
L 443.250923 199.781245 
L 443.250923 200.027961 
L 444.801738 200.027961 
L 444.801738 200.15132 
L 446.352552 200.15132 
L 446.352552 200.274678 
L 447.903366 200.274678 
L 447.903366 200.274678 
L 449.454181 200.274678 
L 449.454181 200.398037 
L 451.004995 200.398037 
L 451.004995 200.398037 
L 452.55581 200.398037 
L 452.55581 200.398037 
L 454.106624 200.398037 
L 454.106624 200.398037 
L 455.657439 200.398037 
L 455.657439 200.398037 
L 457.208253 200.398037 
L 457.208253 200.521395 
L 458.759067 200.521395 
L 458.759067 200.521395 
L 460.309882 200.521395 
L 460.309882 200.521395 
L 461.860696 200.521395 
L 461.860696 200.521395 
L 463.411511 200.521395 
L 463.411511 200.398037 
L 464.962325 200.398037 
L 464.962325 200.521395 
L 466.51314 200.521395 
L 466.51314 200.521395 
L 468.063954 200.521395 
L 468.063954 200.521395 
L 469.614768 200.521395 
L 469.614768 200.521395 
L 471.165583 200.521395 
L 471.165583 200.398037 
L 472.716397 200.398037 
L 472.716397 200.521395 
" clip-path="url(#pbd327344ab)" style="fill: none; stroke: #000000; stroke-linejoin: miter"/>
   </g>
   <g id="patch_52">
    <path d="M 375.015089 200.521395 
L 375.015089 130.318125 
" style="fill: none; stroke: #000000; stroke-width: 0.8; stroke-linejoin: miter; stroke-linecap: square"/>
   </g>
   <g id="patch_53">
    <path d="M 477.368841 200.521395 
L 477.368841 130.318125 
" style="fill: none; stroke: #000000; stroke-width: 0.8; stroke-linejoin: miter; stroke-linecap: square"/>
   </g>
   <g id="patch_54">
    <path d="M 375.015089 200.521395 
L 477.368841 200.521395 
" style="fill: none; stroke: #000000; stroke-width: 0.8; stroke-linejoin: miter; stroke-linecap: square"/>
   </g>
   <g id="patch_55">
    <path d="M 375.015089 130.318125 
L 477.368841 130.318125 
" style="fill: none; stroke: #000000; stroke-width: 0.8; stroke-linejoin: miter; stroke-linecap: square"/>
   </g>
   <g id="text_33">
    <!-- $r$ -->
    <g transform="translate(423.671965 124.318125) scale(0.12 -0.12)">
     <defs>
      <path id="DejaVuSans-72" d="M 2631 2963 
Q 2534 3019 2420 3045 
Q 2306 3072 2169 3072 
Q 1681 3072 1420 2755 
Q 1159 2438 1159 1844 
L 1159 0 
L 581 0 
L 581 3500 
L 1159 3500 
L 1159 2956 
Q 1341 3275 1631 3429 
Q 1922 3584 2338 3584 
Q 2397 3584 2469 3576 
Q 2541 3569 2628 3553 
L 2631 2963 
z
" transform="scale(0.015625)"/>
     </defs>
     <use xlink:href="#DejaVuSans-72"/>
    </g>
   </g>
  </g>
  <g id="axes_10">
   <g id="patch_56">
    <path d="M 488.805486 200.521395 
L 591.159238 200.521395 
L 591.159238 130.318125 
L 488.805486 130.318125 
z
" style="fill: #ffffff"/>
   </g>
   <g id="matplotlib.axis_19">
    <g id="xtick_25">
     <g id="line2d_25">
      <g>
       <use xlink:href="#mfed3f3abf5" x="488.886237" y="200.521395" style="stroke: #000000; stroke-width: 0.8"/>
      </g>
     </g>
     <g id="text_34">
      <!-- 0 -->
      <g transform="translate(485.704987 215.119833) scale(0.1 -0.1)">
       <use xlink:href="#DejaVuSans-30"/>
      </g>
     </g>
    </g>
    <g id="xtick_26">
     <g id="line2d_26">
      <g>
       <use xlink:href="#mfed3f3abf5" x="531.816977" y="200.521395" style="stroke: #000000; stroke-width: 0.8"/>
      </g>
     </g>
     <g id="text_35">
      <!-- 200 -->
      <g transform="translate(522.273227 215.119833) scale(0.1 -0.1)">
       <use xlink:href="#DejaVuSans-32"/>
       <use xlink:href="#DejaVuSans-30" x="63.623047"/>
       <use xlink:href="#DejaVuSans-30" x="127.246094"/>
      </g>
     </g>
    </g>
    <g id="xtick_27">
     <g id="line2d_27">
      <g>
       <use xlink:href="#mfed3f3abf5" x="574.747717" y="200.521395" style="stroke: #000000; stroke-width: 0.8"/>
      </g>
     </g>
     <g id="text_36">
      <!-- 400 -->
      <g transform="translate(565.203967 215.119833) scale(0.1 -0.1)">
       <use xlink:href="#DejaVuSans-34"/>
       <use xlink:href="#DejaVuSans-30" x="63.623047"/>
       <use xlink:href="#DejaVuSans-30" x="127.246094"/>
      </g>
     </g>
    </g>
   </g>
   <g id="matplotlib.axis_20"/>
   <g id="patch_57">
    <path d="M 493.457929 200.521395 
L 493.457929 199.672376 
L 495.008743 199.672376 
L 495.008743 196.488554 
L 496.559558 196.488554 
L 496.559558 189.165764 
L 498.110372 189.165764 
L 498.110372 178.128515 
L 499.661186 178.128515 
L 499.661186 164.756464 
L 501.212001 164.756464 
L 501.212001 152.233432 
L 502.762815 152.233432 
L 502.762815 142.575839 
L 504.31363 142.575839 
L 504.31363 136.42045 
L 505.864444 136.42045 
L 505.864444 133.661138 
L 507.415259 133.661138 
L 507.415259 134.191775 
L 508.966073 134.191775 
L 508.966073 137.163342 
L 510.516887 137.163342 
L 510.516887 141.72682 
L 512.067702 141.72682 
L 512.067702 147.139317 
L 513.618516 147.139317 
L 513.618516 153.082451 
L 515.169331 153.082451 
L 515.169331 158.707202 
L 516.720145 158.707202 
L 516.720145 164.544209 
L 518.27096 164.544209 
L 518.27096 169.532196 
L 519.821774 169.532196 
L 519.821774 174.201802 
L 521.372588 174.201802 
L 521.372588 178.128515 
L 522.923403 178.128515 
L 522.923403 181.842974 
L 524.474217 181.842974 
L 524.474217 184.814541 
L 526.025032 184.814541 
L 526.025032 187.467726 
L 527.575846 187.467726 
L 527.575846 189.590274 
L 529.126661 189.590274 
L 529.126661 191.394439 
L 530.677475 191.394439 
L 530.677475 193.092478 
L 532.228289 193.092478 
L 532.228289 194.366006 
L 533.779104 194.366006 
L 533.779104 195.42728 
L 535.329918 195.42728 
L 535.329918 196.170172 
L 536.880733 196.170172 
L 536.880733 197.125318 
L 538.431547 197.125318 
L 538.431547 197.443701 
L 539.982362 197.443701 
L 539.982362 198.29272 
L 541.533176 198.29272 
L 541.533176 198.398847 
L 543.08399 198.398847 
L 543.08399 198.929484 
L 544.634805 198.929484 
L 544.634805 199.035612 
L 546.185619 199.035612 
L 546.185619 199.566248 
L 547.736434 199.566248 
L 547.736434 199.566248 
L 549.287248 199.566248 
L 549.287248 199.778503 
L 550.838063 199.778503 
L 550.838063 199.884631 
L 552.388877 199.884631 
L 552.388877 199.990758 
L 553.939691 199.990758 
L 553.939691 200.096885 
L 555.490506 200.096885 
L 555.490506 200.096885 
L 557.04132 200.096885 
L 557.04132 200.203013 
L 558.592135 200.203013 
L 558.592135 200.30914 
L 560.142949 200.30914 
L 560.142949 200.203013 
L 561.693763 200.203013 
L 561.693763 200.30914 
L 563.244578 200.30914 
L 563.244578 200.415268 
L 564.795392 200.415268 
L 564.795392 200.415268 
L 566.346207 200.415268 
L 566.346207 200.415268 
L 567.897021 200.415268 
L 567.897021 200.415268 
L 569.447836 200.415268 
L 569.447836 200.521395 
L 570.99865 200.521395 
L 570.99865 200.521395 
L 572.549464 200.521395 
L 572.549464 200.415268 
L 574.100279 200.415268 
L 574.100279 200.415268 
L 575.651093 200.415268 
L 575.651093 200.521395 
L 577.201908 200.521395 
L 577.201908 200.521395 
L 578.752722 200.521395 
L 578.752722 200.415268 
L 580.303537 200.415268 
L 580.303537 200.521395 
L 581.854351 200.521395 
L 581.854351 200.521395 
L 583.405165 200.521395 
L 583.405165 200.521395 
L 584.95598 200.521395 
L 584.95598 200.415268 
L 586.506794 200.415268 
L 586.506794 200.521395 
" clip-path="url(#pa56e03aaca)" style="fill: none; stroke: #000000; stroke-linejoin: miter"/>
   </g>
   <g id="patch_58">
    <path d="M 488.805486 200.521395 
L 488.805486 130.318125 
" style="fill: none; stroke: #000000; stroke-width: 0.8; stroke-linejoin: miter; stroke-linecap: square"/>
   </g>
   <g id="patch_59">
    <path d="M 591.159238 200.521395 
L 591.159238 130.318125 
" style="fill: none; stroke: #000000; stroke-width: 0.8; stroke-linejoin: miter; stroke-linecap: square"/>
   </g>
   <g id="patch_60">
    <path d="M 488.805486 200.521395 
L 591.159238 200.521395 
" style="fill: none; stroke: #000000; stroke-width: 0.8; stroke-linejoin: miter; stroke-linecap: square"/>
   </g>
   <g id="patch_61">
    <path d="M 488.805486 130.318125 
L 591.159238 130.318125 
" style="fill: none; stroke: #000000; stroke-width: 0.8; stroke-linejoin: miter; stroke-linecap: square"/>
   </g>
   <g id="text_37">
    <!-- $u$ -->
    <g transform="translate(536.142362 124.318125) scale(0.12 -0.12)">
     <defs>
      <path id="DejaVuSans-75" d="M 544 1381 
L 544 3500 
L 1119 3500 
L 1119 1403 
Q 1119 906 1312 657 
Q 1506 409 1894 409 
Q 2359 409 2629 706 
Q 2900 1003 2900 1516 
L 2900 3500 
L 3475 3500 
L 3475 0 
L 2900 0 
L 2900 538 
Q 2691 219 2414 64 
Q 2138 -91 1772 -91 
Q 1169 -91 856 284 
Q 544 659 544 1381 
z
M 1991 3584 
L 1991 3584 
z
" transform="scale(0.015625)"/>
     </defs>
     <use xlink:href="#DejaVuSans-75"/>
    </g>
   </g>
  </g>
  <g id="text_38">
   <!-- Parameter Range -->
   <g transform="translate(269.033125 230.99976) scale(0.1 -0.1)">
    <defs>
     <path id="DejaVuSans-50" d="M 1259 4147 
L 1259 2394 
L 2053 2394 
Q 2494 2394 2734 2622 
Q 2975 2850 2975 3272 
Q 2975 3691 2734 3919 
Q 2494 4147 2053 4147 
L 1259 4147 
z
M 628 4666 
L 2053 4666 
Q 2838 4666 3239 4311 
Q 3641 3956 3641 3272 
Q 3641 2581 3239 2228 
Q 2838 1875 2053 1875 
L 1259 1875 
L 1259 0 
L 628 0 
L 628 4666 
z
" transform="scale(0.015625)"/>
     <path id="DejaVuSans-61" d="M 2194 1759 
Q 1497 1759 1228 1600 
Q 959 1441 959 1056 
Q 959 750 1161 570 
Q 1363 391 1709 391 
Q 2188 391 2477 730 
Q 2766 1069 2766 1631 
L 2766 1759 
L 2194 1759 
z
M 3341 1997 
L 3341 0 
L 2766 0 
L 2766 531 
Q 2569 213 2275 61 
Q 1981 -91 1556 -91 
Q 1019 -91 701 211 
Q 384 513 384 1019 
Q 384 1609 779 1909 
Q 1175 2209 1959 2209 
L 2766 2209 
L 2766 2266 
Q 2766 2663 2505 2880 
Q 2244 3097 1772 3097 
Q 1472 3097 1187 3025 
Q 903 2953 641 2809 
L 641 3341 
Q 956 3463 1253 3523 
Q 1550 3584 1831 3584 
Q 2591 3584 2966 3190 
Q 3341 2797 3341 1997 
z
" transform="scale(0.015625)"/>
     <path id="DejaVuSans-6d" d="M 3328 2828 
Q 3544 3216 3844 3400 
Q 4144 3584 4550 3584 
Q 5097 3584 5394 3201 
Q 5691 2819 5691 2113 
L 5691 0 
L 5113 0 
L 5113 2094 
Q 5113 2597 4934 2840 
Q 4756 3084 4391 3084 
Q 3944 3084 3684 2787 
Q 3425 2491 3425 1978 
L 3425 0 
L 2847 0 
L 2847 2094 
Q 2847 2600 2669 2842 
Q 2491 3084 2119 3084 
Q 1678 3084 1418 2786 
Q 1159 2488 1159 1978 
L 1159 0 
L 581 0 
L 581 3500 
L 1159 3500 
L 1159 2956 
Q 1356 3278 1631 3431 
Q 1906 3584 2284 3584 
Q 2666 3584 2933 3390 
Q 3200 3197 3328 2828 
z
" transform="scale(0.015625)"/>
     <path id="DejaVuSans-65" d="M 3597 1894 
L 3597 1613 
L 953 1613 
Q 991 1019 1311 708 
Q 1631 397 2203 397 
Q 2534 397 2845 478 
Q 3156 559 3463 722 
L 3463 178 
Q 3153 47 2828 -22 
Q 2503 -91 2169 -91 
Q 1331 -91 842 396 
Q 353 884 353 1716 
Q 353 2575 817 3079 
Q 1281 3584 2069 3584 
Q 2775 3584 3186 3129 
Q 3597 2675 3597 1894 
z
M 3022 2063 
Q 3016 2534 2758 2815 
Q 2500 3097 2075 3097 
Q 1594 3097 1305 2825 
Q 1016 2553 972 2059 
L 3022 2063 
z
" transform="scale(0.015625)"/>
     <path id="DejaVuSans-74" d="M 1172 4494 
L 1172 3500 
L 2356 3500 
L 2356 3053 
L 1172 3053 
L 1172 1153 
Q 1172 725 1289 603 
Q 1406 481 1766 481 
L 2356 481 
L 2356 0 
L 1766 0 
Q 1100 0 847 248 
Q 594 497 594 1153 
L 594 3053 
L 172 3053 
L 172 3500 
L 594 3500 
L 594 4494 
L 1172 4494 
z
" transform="scale(0.015625)"/>
     <path id="DejaVuSans-20" transform="scale(0.015625)"/>
     <path id="DejaVuSans-52" d="M 2841 2188 
Q 3044 2119 3236 1894 
Q 3428 1669 3622 1275 
L 4263 0 
L 3584 0 
L 2988 1197 
Q 2756 1666 2539 1819 
Q 2322 1972 1947 1972 
L 1259 1972 
L 1259 0 
L 628 0 
L 628 4666 
L 2053 4666 
Q 2853 4666 3247 4331 
Q 3641 3997 3641 3322 
Q 3641 2881 3436 2590 
Q 3231 2300 2841 2188 
z
M 1259 4147 
L 1259 2491 
L 2053 2491 
Q 2509 2491 2742 2702 
Q 2975 2913 2975 3322 
Q 2975 3731 2742 3939 
Q 2509 4147 2053 4147 
L 1259 4147 
z
" transform="scale(0.015625)"/>
     <path id="DejaVuSans-6e" d="M 3513 2113 
L 3513 0 
L 2938 0 
L 2938 2094 
Q 2938 2591 2744 2837 
Q 2550 3084 2163 3084 
Q 1697 3084 1428 2787 
Q 1159 2491 1159 1978 
L 1159 0 
L 581 0 
L 581 3500 
L 1159 3500 
L 1159 2956 
Q 1366 3272 1645 3428 
Q 1925 3584 2291 3584 
Q 2894 3584 3203 3211 
Q 3513 2838 3513 2113 
z
" transform="scale(0.015625)"/>
     <path id="DejaVuSans-67" d="M 2906 1791 
Q 2906 2416 2648 2759 
Q 2391 3103 1925 3103 
Q 1463 3103 1205 2759 
Q 947 2416 947 1791 
Q 947 1169 1205 825 
Q 1463 481 1925 481 
Q 2391 481 2648 825 
Q 2906 1169 2906 1791 
z
M 3481 434 
Q 3481 -459 3084 -895 
Q 2688 -1331 1869 -1331 
Q 1566 -1331 1297 -1286 
Q 1028 -1241 775 -1147 
L 775 -588 
Q 1028 -725 1275 -790 
Q 1522 -856 1778 -856 
Q 2344 -856 2625 -561 
Q 2906 -266 2906 331 
L 2906 616 
Q 2728 306 2450 153 
Q 2172 0 1784 0 
Q 1141 0 747 490 
Q 353 981 353 1791 
Q 353 2603 747 3093 
Q 1141 3584 1784 3584 
Q 2172 3584 2450 3431 
Q 2728 3278 2906 2969 
L 2906 3500 
L 3481 3500 
L 3481 434 
z
" transform="scale(0.015625)"/>
    </defs>
    <use xlink:href="#DejaVuSans-50"/>
    <use xlink:href="#DejaVuSans-61" x="55.802734"/>
    <use xlink:href="#DejaVuSans-72" x="117.082031"/>
    <use xlink:href="#DejaVuSans-61" x="158.195312"/>
    <use xlink:href="#DejaVuSans-6d" x="219.474609"/>
    <use xlink:href="#DejaVuSans-65" x="316.886719"/>
    <use xlink:href="#DejaVuSans-74" x="378.410156"/>
    <use xlink:href="#DejaVuSans-65" x="417.619141"/>
    <use xlink:href="#DejaVuSans-72" x="479.142578"/>
    <use xlink:href="#DejaVuSans-20" x="520.255859"/>
    <use xlink:href="#DejaVuSans-52" x="552.042969"/>
    <use xlink:href="#DejaVuSans-61" x="619.275391"/>
    <use xlink:href="#DejaVuSans-6e" x="680.554688"/>
    <use xlink:href="#DejaVuSans-67" x="743.933594"/>
    <use xlink:href="#DejaVuSans-65" x="807.410156"/>
   </g>
  </g>
  <g id="text_39">
   <!-- Density -->
   <g transform="translate(14.798437 131.208354) rotate(-90) scale(0.1 -0.1)">
    <defs>
     <path id="DejaVuSans-44" d="M 1259 4147 
L 1259 519 
L 2022 519 
Q 2988 519 3436 956 
Q 3884 1394 3884 2338 
Q 3884 3275 3436 3711 
Q 2988 4147 2022 4147 
L 1259 4147 
z
M 628 4666 
L 1925 4666 
Q 3281 4666 3915 4102 
Q 4550 3538 4550 2338 
Q 4550 1131 3912 565 
Q 3275 0 1925 0 
L 628 0 
L 628 4666 
z
" transform="scale(0.015625)"/>
     <path id="DejaVuSans-73" d="M 2834 3397 
L 2834 2853 
Q 2591 2978 2328 3040 
Q 2066 3103 1784 3103 
Q 1356 3103 1142 2972 
Q 928 2841 928 2578 
Q 928 2378 1081 2264 
Q 1234 2150 1697 2047 
L 1894 2003 
Q 2506 1872 2764 1633 
Q 3022 1394 3022 966 
Q 3022 478 2636 193 
Q 2250 -91 1575 -91 
Q 1294 -91 989 -36 
Q 684 19 347 128 
L 347 722 
Q 666 556 975 473 
Q 1284 391 1588 391 
Q 1994 391 2212 530 
Q 2431 669 2431 922 
Q 2431 1156 2273 1281 
Q 2116 1406 1581 1522 
L 1381 1569 
Q 847 1681 609 1914 
Q 372 2147 372 2553 
Q 372 3047 722 3315 
Q 1072 3584 1716 3584 
Q 2034 3584 2315 3537 
Q 2597 3491 2834 3397 
z
" transform="scale(0.015625)"/>
     <path id="DejaVuSans-69" d="M 603 3500 
L 1178 3500 
L 1178 0 
L 603 0 
L 603 3500 
z
M 603 4863 
L 1178 4863 
L 1178 4134 
L 603 4134 
L 603 4863 
z
" transform="scale(0.015625)"/>
     <path id="DejaVuSans-79" d="M 2059 -325 
Q 1816 -950 1584 -1140 
Q 1353 -1331 966 -1331 
L 506 -1331 
L 506 -850 
L 844 -850 
Q 1081 -850 1212 -737 
Q 1344 -625 1503 -206 
L 1606 56 
L 191 3500 
L 800 3500 
L 1894 763 
L 2988 3500 
L 3597 3500 
L 2059 -325 
z
" transform="scale(0.015625)"/>
    </defs>
    <use xlink:href="#DejaVuSans-44"/>
    <use xlink:href="#DejaVuSans-65" x="77.001953"/>
    <use xlink:href="#DejaVuSans-6e" x="138.525391"/>
    <use xlink:href="#DejaVuSans-73" x="201.904297"/>
    <use xlink:href="#DejaVuSans-69" x="254.003906"/>
    <use xlink:href="#DejaVuSans-74" x="281.787109"/>
    <use xlink:href="#DejaVuSans-79" x="320.996094"/>
   </g>
  </g>
 </g>
 <defs>
  <clipPath id="p5c8ca3aa8a">
   <rect x="30.98024" y="22.318125" width="102.353752" height="70.20327"/>
  </clipPath>
  <clipPath id="pa6fb7c15fb">
   <rect x="142.956456" y="22.318125" width="102.353752" height="70.20327"/>
  </clipPath>
  <clipPath id="p4a43ac6869">
   <rect x="258.959381" y="22.318125" width="102.353752" height="70.20327"/>
  </clipPath>
  <clipPath id="p09c3c3e47c">
   <rect x="375.015089" y="22.318125" width="102.353752" height="70.20327"/>
  </clipPath>
  <clipPath id="p61d0959fdb">
   <rect x="488.805486" y="22.318125" width="102.353752" height="70.20327"/>
  </clipPath>
  <clipPath id="pdb5d867443">
   <rect x="30.98024" y="130.318125" width="102.353752" height="70.20327"/>
  </clipPath>
  <clipPath id="pfb189835df">
   <rect x="142.956456" y="130.318125" width="102.353752" height="70.20327"/>
  </clipPath>
  <clipPath id="pac0a8deb3f">
   <rect x="258.959381" y="130.318125" width="102.353752" height="70.20327"/>
  </clipPath>
  <clipPath id="pbd327344ab">
   <rect x="375.015089" y="130.318125" width="102.353752" height="70.20327"/>
  </clipPath>
  <clipPath id="pa56e03aaca">
   <rect x="488.805486" y="130.318125" width="102.353752" height="70.20327"/>
  </clipPath>
 </defs>
</svg>
