<?xml version="1.0" encoding="UTF-8" standalone="no"?>
<!-- Created with Inkscape (http://www.inkscape.org/) -->

<svg
   width="173.888mm"
   height="96.838997mm"
   viewBox="0 0 173.888 96.838997"
   version="1.1"
   id="svg5"
   xml:space="preserve"
   xmlns:xlink="http://www.w3.org/1999/xlink"
   xmlns="http://www.w3.org/2000/svg"
   xmlns:svg="http://www.w3.org/2000/svg"><defs
     id="defs2"><style
       type="text/css"
       id="style3057">*{stroke-linejoin: round; stroke-linecap: butt}</style><style
       type="text/css"
       id="style4674">*{stroke-linejoin: round; stroke-linecap: butt}</style><style
       type="text/css"
       id="style27818">*{stroke-linejoin: round; stroke-linecap: butt}</style><path
       id="mc498c85d4f"
       d="M 77.222058,-30.833354 H 69.177942 L 43.44,-31.507312 l 7.900358,-0.673959 20.192603,-0.673958 1.576722,-0.673959 -0.05526,-0.673958 -0.06966,-0.673959 -0.06644,-0.673958 -0.03272,-0.673959 -0.0574,-0.673958 -0.03397,-0.673959 -0.0379,-0.673958 -0.04068,-0.673959 0.03218,-0.673958 0.01704,-0.673959 0.0031,-0.673958 0.0037,-0.673959 0.02448,-0.673958 0.0086,-0.673959 0.01336,-0.673958 0.04226,-0.673958 0.01325,-0.673959 0.04298,-0.673958 0.0519,-0.673959 0.02069,-0.673958 0.01044,-0.673959 0.02607,-0.673958 0.03512,-0.673959 0.01141,-0.673958 -0.0029,-0.673959 0.01948,-0.673958 0.01788,-0.673959 0.0077,-0.673958 0.0075,-0.673959 0.02398,-0.673958 0.006,-0.673959 0.0042,-0.673958 0.0072,-0.673959 0.0053,-0.673958 0.0012,-0.673959 0.0051,-0.673958 0.0077,-0.673958 -0.0014,-0.673959 0.0016,-0.673958 0.0023,-0.673959 -0.0018,-0.673958 0.0042,-0.673959 5.81e-4,-0.673958 0.0016,-0.673959 0.0048,-0.673958 0.0013,-0.673959 -5.07e-4,-0.673958 9.33e-4,-0.673959 0.0011,-0.673958 -8.44e-4,-0.673959 -3.95e-4,-0.673958 -0.0013,-0.673959 0.0014,-0.673958 0.0018,-0.673959 4.07e-4,-0.673958 9.84e-4,-0.673959 4.14e-4,-0.673958 -3.22e-4,-0.673958 2.7e-4,-0.673959 2e-4,-0.673958 9e-6,-0.673959 v -0.673958 l -1e-6,-0.673959 -5.6e-5,-0.673958 -6.04e-4,-0.673959 -0.0014,-0.673958 -2.65e-4,-0.673959 0.0018,-0.673958 5.23e-4,-0.673959 1.8e-5,-0.673958 v -0.673959 -0.673958 -0.673959 -0.673958 -0.673959 -0.673958 -0.673959 -0.673958 -0.673958 -0.673959 -0.673958 -0.673959 -0.673958 -0.673959 -0.673958 -0.673959 -0.673958 -0.673959 -0.673958 -0.673959 -0.673958 l -1.8e-5,-0.673959 -2.65e-4,-0.673958 -1.55e-4,-0.673959 3.72e-4,-0.673958 h 1.32e-4 v 0 l 3.72e-4,0.673958 -1.55e-4,0.673959 -2.65e-4,0.673958 -1.8e-5,0.673959 v 0.673958 0.673959 0.673958 0.673959 0.673958 0.673959 0.673958 0.673959 0.673958 0.673959 0.673958 0.673959 0.673958 0.673958 0.673959 0.673958 0.673959 0.673958 0.673959 0.673958 0.673959 l 1.8e-5,0.673958 5.23e-4,0.673959 0.0018,0.673958 -2.65e-4,0.673959 -0.0014,0.673958 -6.04e-4,0.673959 -5.6e-5,0.673958 -10e-7,0.673959 v 0.673958 l 9e-6,0.673959 2e-4,0.673958 2.7e-4,0.673959 -3.22e-4,0.673958 4.14e-4,0.673958 9.84e-4,0.673959 4.07e-4,0.673958 0.0018,0.673959 0.0014,0.673958 -0.0013,0.673959 -3.95e-4,0.673958 -8.44e-4,0.673959 0.0011,0.673958 9.33e-4,0.673959 -5.07e-4,0.673958 0.0013,0.673959 0.0048,0.673958 0.0016,0.673959 5.81e-4,0.673958 0.0042,0.673959 -0.0018,0.673958 0.0023,0.673959 0.0016,0.673958 -0.0014,0.673959 0.0077,0.673958 0.0051,0.673958 0.0012,0.673959 0.0053,0.673958 0.0072,0.673959 0.0042,0.673958 0.006,0.673959 0.02398,0.673958 0.0075,0.673959 0.0077,0.673958 0.01788,0.673959 0.01949,0.673958 -0.0029,0.673959 0.01141,0.673958 0.03512,0.673959 0.02607,0.673958 0.01044,0.673959 0.02069,0.673958 0.05191,0.673959 0.04298,0.673958 0.01325,0.673959 0.04226,0.673958 0.01336,0.673958 0.0087,0.673959 0.02448,0.673958 0.0037,0.673959 0.0031,0.673958 0.01704,0.673959 0.03218,0.673958 -0.04068,0.673959 -0.0379,0.673958 -0.03397,0.673959 -0.0574,0.673958 -0.03272,0.673959 -0.06644,0.673958 -0.06966,0.673959 -0.05526,0.673958 1.576722,0.673959 20.192603,0.673958 7.900362,0.673959 z"
       style="stroke:#3d3d3d;stroke-width:1.5" /><path
       id="m82b1f12ee4"
       d="M 162.19339,-31.68 H 133.00661 147.6 v 0 0 0 0 0 0 h -29.76 29.76 v 0 0 0 0 0 0 0 0 0 0 0 0 0 0 0 0 0 0 0 0 0 0 0 0 0 0 0 0 0 0 0 0 0 0 0 0 0 0 0 0 0 0 0 0 0 0 0 0 0 0 0 0 0 0 0 0 0 0 0 0 -1e-6 0 0 0 0 0 0 0 0 0 0 0 0 0 0 0 0 0 0 0 0 0 0 0 0 0 0 0 0 h -14.59339 29.18678 v 0 H 147.6 v 0 0 0 0 0 0 0 0 0 0 0 0 0 0 0 0 0 0 0 0 0 0 0 0 0 0 0 0 1e-6 0 0 0 0 0 0 0 0 0 0 0 0 0 0 0 0 0 0 0 0 0 0 0 0 0 0 0 0 0 0 0 0 0 0 0 0 0 0 0 0 0 0 0 0 0 0 0 0 0 0 0 0 0 0 0 0 0 0 0 0 h 29.76 -29.76 v 0 0 0 0 0 0 z"
       style="stroke:#3d3d3d;stroke-width:1.5" /><path
       id="m303d63c6d7"
       d="m 224.26542,-20.840805 h -4.53084 l -4.42876,-2.585453 -8.05975,-2.585453 -9.50314,-2.585453 -5.50293,-2.585453 2.48953,-2.585453 8.55066,-2.585453 8.98717,-2.585454 5.71705,-2.585453 2.41789,-2.585453 0.62955,-2.585453 -0.0175,-2.585453 -0.19125,-2.585453 -0.22947,-2.585453 -0.23938,-2.585453 -0.25149,-2.585453 -0.26965,-2.585453 -0.28377,-2.585454 -0.29177,-2.585453 -0.31035,-2.585453 -0.35422,-2.585453 -0.41697,-2.585453 -0.47964,-2.585453 -0.53057,-2.585453 -0.57185,-2.585453 -0.60783,-2.585453 -0.63635,-2.585453 -0.65981,-2.585454 -0.69527,-2.585453 -0.76162,-2.585453 -0.85596,-2.585453 -0.94496,-2.585452 -0.98562,-2.58545 -0.95481,-2.58546 -0.85294,-2.58545 -0.6949,-2.58545 -0.51325,-2.58546 -0.34768,-2.58545 -0.20733,-2.58545 -0.0578,-2.58546 0.13415,-2.58545 0.35214,-2.58545 0.5423,-2.58545 0.66571,-2.58546 0.72991,-2.58545 0.77351,-2.58545 0.82415,-2.58546 0.87889,-2.58545 0.92143,-2.58545 0.93968,-2.58546 0.92151,-2.58545 0.85663,-2.58545 0.75796,-2.58546 0.66443,-2.58545 0.60369,-2.58545 0.56438,-2.58545 0.52148,-2.58546 0.47376,-2.58545 0.43374,-2.58545 0.39679,-2.58546 0.35079,-2.58545 0.30061,-2.58545 0.25565,-2.58546 0.21345,-2.58545 0.17246,-2.58545 0.14,-2.58546 0.12006,-2.58545 0.10699,-2.58545 0.093,-2.58546 0.0759,-2.58545 0.0601,-2.58545 0.0499,-2.58545 0.0451,-2.58546 0.0422,-2.58545 0.0394,-2.58545 0.0359,-2.58546 0.0306,-2.58545 0.0227,-2.58545 0.014,-2.58546 0.007,-2.58545 0.004,-2.58545 0.004,-2.58546 0.006,-2.58545 0.008,-2.58545 0.009,-2.58545 0.008,-2.58546 0.004,-2.58545 0.002,-2.58545 1.3e-4,-2.58546 -2.7e-4,-2.58545 -4.3e-4,-2.58545 -9.5e-4,-2.58546 -0.002,-2.58545 -0.002,-2.58545 -0.001,-2.58546 8.8e-4,-2.58545 0.003,-2.58545 0.003,-2.58545 0.002,-2.58546 0.001,-2.58545 h 10e-4 v 0 l 0.001,2.58545 0.002,2.58546 0.003,2.58545 0.003,2.58545 8.8e-4,2.58545 -0.001,2.58546 -0.002,2.58545 -0.002,2.58545 -9.5e-4,2.58546 -4.4e-4,2.58545 -2.6e-4,2.58545 1.3e-4,2.58546 0.002,2.58545 0.004,2.58545 0.008,2.58546 0.009,2.58545 0.008,2.58545 0.006,2.58545 0.004,2.58546 0.004,2.58545 0.007,2.58545 0.014,2.58546 0.0227,2.58545 0.0306,2.58545 0.0359,2.58546 0.0394,2.58545 0.0422,2.58545 0.0451,2.58546 0.0499,2.58545 0.0601,2.58545 0.076,2.58545 0.093,2.58546 0.10699,2.58545 0.12005,2.58545 0.14,2.58546 0.17247,2.58545 0.21345,2.58545 0.25565,2.58546 0.30061,2.58545 0.35078,2.58545 0.3968,2.58546 0.43374,2.58545 0.47376,2.58545 0.52148,2.58546 0.56438,2.58545 0.60369,2.58545 0.66443,2.58545 0.75796,2.58546 0.85662,2.58545 0.92152,2.58545 0.93968,2.58546 0.92143,2.58545 0.87889,2.58545 0.82415,2.58546 0.7735,2.58545 0.72992,2.58545 0.6657,2.58546 0.54231,2.58545 0.35214,2.58545 0.13415,2.58545 -0.0578,2.58546 -0.20734,2.58545 -0.34767,2.58545 -0.51325,2.58546 -0.6949,2.58545 -0.85294,2.58545 -0.95481,2.58546 -0.98562,2.58545 -0.94496,2.585452 -0.85596,2.585453 -0.76163,2.585453 -0.69526,2.585453 -0.65981,2.585454 -0.63635,2.585453 -0.60783,2.585453 -0.57185,2.585453 -0.53057,2.585453 -0.47964,2.585453 -0.41697,2.585453 -0.35422,2.585453 -0.31035,2.585453 -0.29177,2.585453 -0.28377,2.585454 -0.26965,2.585453 -0.25149,2.585453 -0.23938,2.585453 -0.22947,2.585453 -0.19125,2.585453 -0.0175,2.585453 0.62955,2.585453 2.41789,2.585453 5.71705,2.585453 8.98717,2.585454 8.55066,2.585453 2.48953,2.585453 -5.50293,2.585453 -9.50314,2.585453 -8.05975,2.585453 z"
       style="stroke:#3d3d3d;stroke-width:1.5" /><path
       id="m8abdcf7507"
       d="M 0,0 V 3.5"
       style="stroke:#000000;stroke-width:0.8" /><path
       id="DejaVuSans-44-3"
       d="M 1259,4147 V 519 h 763 q 966,0 1414,437 448,438 448,1382 0,937 -448,1373 -448,436 -1414,436 z m -631,519 h 1297 q 1356,0 1990,-564 635,-564 635,-1764 Q 4550,1131 3912,565 3275,0 1925,0 H 628 Z"
       transform="scale(0.015625)" /><path
       id="DejaVuSans-6f-0"
       d="m 1959,3097 q -462,0 -731,-361 -269,-361 -269,-989 0,-628 267,-989 268,-361 733,-361 460,0 728,362 269,363 269,988 0,622 -269,986 -268,364 -728,364 z m 0,487 q 750,0 1178,-488 429,-487 429,-1349 Q 3566,888 3137,398 2709,-91 1959,-91 1206,-91 779,398 353,888 353,1747 q 0,862 426,1349 427,488 1180,488 z"
       transform="scale(0.015625)" /><path
       id="DejaVuSans-6e-5"
       d="M 3513,2113 V 0 h -575 v 2094 q 0,497 -194,743 -194,247 -581,247 -466,0 -735,-297 -269,-296 -269,-809 V 0 H 581 v 3500 h 578 v -544 q 207,316 486,472 280,156 646,156 603,0 912,-373 310,-373 310,-1098 z"
       transform="scale(0.015625)" /><path
       id="DejaVuSans-72-5"
       d="m 2631,2963 q -97,56 -211,82 -114,27 -251,27 -488,0 -749,-317 -261,-317 -261,-911 V 0 H 581 v 3500 h 578 v -544 q 182,319 472,473 291,155 707,155 59,0 131,-8 72,-7 159,-23 z"
       transform="scale(0.015625)" /><path
       id="DejaVuSans-54-4"
       d="M -19,4666 H 3928 V 4134 H 2272 V 0 H 1638 V 4134 H -19 Z"
       transform="scale(0.015625)" /><path
       id="DejaVuSans-61-4"
       d="m 2194,1759 q -697,0 -966,-159 -269,-159 -269,-544 0,-306 202,-486 202,-179 548,-179 479,0 768,339 289,339 289,901 v 128 z m 1147,238 V 0 H 2766 V 531 Q 2569,213 2275,61 1981,-91 1556,-91 q -537,0 -855,302 -317,302 -317,808 0,590 395,890 396,300 1180,300 h 807 v 57 q 0,397 -261,614 -261,217 -733,217 -300,0 -585,-72 -284,-72 -546,-216 v 532 q 315,122 612,182 297,61 578,61 760,0 1135,-394 375,-393 375,-1193 z"
       transform="scale(0.015625)" /><path
       id="DejaVuSans-73-8"
       d="m 2834,3397 v -544 q -243,125 -506,187 -262,63 -544,63 -428,0 -642,-131 -214,-131 -214,-394 0,-200 153,-314 153,-114 616,-217 l 197,-44 q 612,-131 870,-370 258,-239 258,-667 0,-488 -386,-773 Q 2250,-91 1575,-91 1294,-91 989,-36 684,19 347,128 v 594 q 319,-166 628,-249 309,-82 613,-82 406,0 624,139 219,139 219,392 0,234 -158,359 -157,125 -692,241 l -200,47 q -534,112 -772,345 -237,233 -237,639 0,494 350,762 350,269 994,269 318,0 599,-47 282,-46 519,-140 z"
       transform="scale(0.015625)" /><path
       id="DejaVuSans-63-3"
       d="m 3122,3366 v -538 q -244,135 -489,202 -245,67 -495,67 -560,0 -870,-355 -309,-354 -309,-995 0,-641 309,-996 310,-354 870,-354 250,0 495,67 245,67 489,202 V 134 Q 2881,22 2623,-34 2366,-91 2075,-91 1284,-91 818,406 353,903 353,1747 q 0,856 470,1346 471,491 1290,491 265,0 518,-55 253,-54 491,-163 z"
       transform="scale(0.015625)" /><path
       id="DejaVuSans-6a-5"
       d="m 603,3500 h 575 V -63 q 0,-668 -255,-968 -254,-300 -820,-300 h -219 v 487 H 38 q 328,0 446,152 119,151 119,629 z m 0,1363 h 575 V 4134 H 603 Z"
       transform="scale(0.015625)" /><path
       id="DejaVuSans-75-97"
       d="m 544,1381 v 2119 h 575 V 1403 q 0,-497 193,-746 194,-248 582,-248 465,0 735,297 271,297 271,810 v 1984 h 575 V 0 H 2900 V 538 Q 2691,219 2414,64 2138,-91 1772,-91 1169,-91 856,284 544,659 544,1381 Z m 1447,2203 z"
       transform="scale(0.015625)" /><path
       id="DejaVuSans-67-4"
       d="m 2906,1791 q 0,625 -258,968 -257,344 -723,344 -462,0 -720,-344 -258,-343 -258,-968 0,-622 258,-966 258,-344 720,-344 466,0 723,344 258,344 258,966 z M 3481,434 q 0,-893 -397,-1329 -396,-436 -1215,-436 -303,0 -572,45 -269,45 -522,139 v 559 q 253,-137 500,-202 247,-66 503,-66 566,0 847,295 281,295 281,892 V 616 Q 2728,306 2450,153 2172,0 1784,0 1141,0 747,490 353,981 353,1791 q 0,812 394,1302 394,491 1037,491 388,0 666,-153 278,-153 456,-462 v 531 h 575 z"
       transform="scale(0.015625)" /><path
       id="DejaVuSans-74-9"
       d="M 1172,4494 V 3500 H 2356 V 3053 H 1172 V 1153 q 0,-428 117,-550 117,-122 477,-122 h 590 V 0 H 1766 Q 1100,0 847,248 594,497 594,1153 V 3053 H 172 v 447 h 422 v 994 z"
       transform="scale(0.015625)" /><path
       id="DejaVuSans-52-3"
       d="m 2841,2188 q 203,-69 395,-294 192,-225 386,-619 L 4263,0 h -679 l -596,1197 q -232,469 -449,622 -217,153 -592,153 H 1259 V 0 H 628 v 4666 h 1425 q 800,0 1194,-335 394,-334 394,-1009 0,-441 -205,-732 -205,-290 -595,-402 z M 1259,4147 V 2491 h 794 q 456,0 689,211 233,211 233,620 0,409 -233,617 -233,208 -689,208 z"
       transform="scale(0.015625)" /><path
       id="DejaVuSans-65-5"
       d="M 3597,1894 V 1613 H 953 q 38,-594 358,-905 320,-311 892,-311 331,0 642,81 311,81 618,244 V 178 Q 3153,47 2828,-22 2503,-91 2169,-91 1331,-91 842,396 353,884 353,1716 q 0,859 464,1363 464,505 1252,505 706,0 1117,-455 411,-454 411,-1235 z m -575,169 q -6,471 -264,752 -258,282 -683,282 -481,0 -770,-272 -289,-272 -333,-766 z"
       transform="scale(0.015625)" /><path
       id="DejaVuSans-69-6"
       d="m 603,3500 h 575 V 0 H 603 Z m 0,1363 h 575 V 4134 H 603 Z"
       transform="scale(0.015625)" /><path
       id="DejaVuSans-70-2"
       d="M 1159,525 V -1331 H 581 v 4831 h 578 v -531 q 182,312 458,463 277,152 661,152 638,0 1036,-506 399,-506 399,-1331 0,-825 -399,-1332 -398,-506 -1036,-506 -384,0 -661,152 -276,152 -458,464 z m 1957,1222 q 0,634 -261,995 -261,361 -717,361 -457,0 -718,-361 -261,-361 -261,-995 0,-634 261,-995 261,-361 718,-361 456,0 717,361 261,361 261,995 z"
       transform="scale(0.015625)" /><path
       id="m28a88ec9fc"
       d="M 0,0 H -3.5"
       style="stroke:#000000;stroke-width:0.8" /><path
       id="DejaVuSans-30-9"
       d="m 2034,4250 q -487,0 -733,-480 -245,-479 -245,-1442 0,-959 245,-1439 246,-480 733,-480 491,0 736,480 246,480 246,1439 0,963 -246,1442 -245,480 -736,480 z m 0,500 q 785,0 1199,-621 414,-620 414,-1801 0,-1178 -414,-1799 -414,-620 -1199,-620 -784,0 -1198,620 -414,621 -414,1799 0,1181 414,1801 414,621 1198,621 z"
       transform="scale(0.015625)" /><path
       id="DejaVuSans-31-2"
       d="M 794,531 H 1825 V 4091 L 703,3866 v 575 l 1116,225 h 631 V 531 H 3481 V 0 H 794 Z"
       transform="scale(0.015625)" /><path
       id="DejaVuSans-32-4"
       d="M 1228,531 H 3431 V 0 H 469 v 531 q 359,372 979,998 621,627 780,809 303,340 423,576 121,236 121,464 0,372 -261,606 -261,235 -680,235 -297,0 -627,-103 -329,-103 -704,-313 v 638 q 381,153 712,231 332,78 607,78 725,0 1156,-363 431,-362 431,-968 0,-288 -108,-546 -107,-257 -392,-607 -78,-91 -497,-524 Q 1991,1309 1228,531 Z"
       transform="scale(0.015625)" /><path
       id="DejaVuSans-33-0"
       d="m 2597,2516 q 453,-97 707,-404 255,-306 255,-756 0,-690 -475,-1069 -475,-378 -1350,-378 -293,0 -604,58 -311,58 -642,174 v 609 q 262,-153 574,-231 313,-78 654,-78 593,0 904,234 311,234 311,681 0,413 -289,645 -289,233 -804,233 h -544 v 519 h 569 q 465,0 712,186 247,186 247,536 0,359 -255,551 -254,193 -729,193 -260,0 -557,-57 -297,-56 -653,-174 v 562 q 360,100 674,150 314,50 592,50 719,0 1137,-327 419,-326 419,-882 0,-388 -222,-655 -222,-267 -631,-370 z"
       transform="scale(0.015625)" /><path
       id="DejaVuSans-34-5"
       d="M 2419,4116 825,1625 h 1594 z m -166,550 h 794 V 1625 h 666 V 1100 H 3047 V 0 H 2419 V 1100 H 313 v 609 z"
       transform="scale(0.015625)" /><path
       id="DejaVuSans-35-8"
       d="M 691,4666 H 3169 V 4134 H 1269 V 2991 q 137,47 274,70 138,23 276,23 781,0 1237,-428 457,-428 457,-1159 Q 3513,744 3044,326 2575,-91 1722,-91 1428,-91 1123,-41 819,9 494,109 v 635 q 281,-153 581,-228 300,-75 634,-75 541,0 856,284 316,284 316,772 0,487 -316,771 -315,285 -856,285 -253,0 -505,-56 -251,-56 -513,-175 z"
       transform="scale(0.015625)" /><path
       id="DejaVuSans-36"
       d="m 2113,2584 q -425,0 -674,-291 -248,-290 -248,-796 0,-503 248,-796 249,-292 674,-292 425,0 673,292 248,293 248,796 0,506 -248,796 -248,291 -673,291 z m 1253,1979 v -575 q -238,112 -480,171 -242,60 -480,60 -625,0 -955,-422 -329,-422 -376,-1275 184,272 462,417 279,145 613,145 703,0 1111,-427 408,-426 408,-1160 0,-719 -425,-1154 -425,-434 -1131,-434 -810,0 -1238,620 -428,621 -428,1799 0,1106 525,1764 525,658 1409,658 238,0 480,-47 242,-47 505,-140 z"
       transform="scale(0.015625)" /><path
       id="DejaVuSans-53-5"
       d="m 3425,4513 v -616 q -359,172 -678,256 -319,85 -616,85 -515,0 -795,-200 -280,-200 -280,-569 0,-310 186,-468 186,-157 705,-254 l 381,-78 q 706,-135 1042,-474 336,-339 336,-907 0,-679 -455,-1029 -454,-350 -1332,-350 -331,0 -705,75 -373,75 -773,222 v 650 q 384,-215 753,-325 369,-109 725,-109 540,0 834,212 294,213 294,607 0,343 -211,537 -211,194 -692,291 l -385,75 q -706,140 -1022,440 -315,300 -315,835 0,619 436,975 436,356 1201,356 329,0 669,-60 341,-59 697,-177 z"
       transform="scale(0.015625)" /><path
       id="DejaVuSans-64-11"
       d="m 2906,2969 v 1894 h 575 V 0 H 2906 V 525 Q 2725,213 2448,61 2172,-91 1784,-91 1150,-91 751,415 353,922 353,1747 q 0,825 398,1331 399,506 1033,506 388,0 664,-152 277,-151 458,-463 z M 947,1747 q 0,-634 261,-995 261,-361 717,-361 456,0 718,361 263,361 263,995 0,634 -263,995 -262,361 -718,361 -456,0 -717,-361 -261,-361 -261,-995 z"
       transform="scale(0.015625)" /><path
       id="DejaVuSans-79"
       d="m 2059,-325 q -243,-625 -475,-815 -231,-191 -618,-191 H 506 v 481 h 338 q 237,0 368,113 132,112 291,531 L 1606,56 191,3500 H 800 L 1894,763 2988,3500 h 609 z"
       transform="scale(0.015625)" /><path
       id="DejaVuSans-2d"
       d="M 313,2009 H 1997 V 1497 H 313 Z"
       transform="scale(0.015625)" /><path
       id="DejaVuSans-20-9"
       transform="scale(0.015625)"
       d="" /><path
       id="DejaVuSans-43"
       d="m 4122,4306 v -665 q -319,297 -680,443 -361,147 -767,147 -800,0 -1225,-489 -425,-489 -425,-1414 0,-922 425,-1411 425,-489 1225,-489 406,0 767,147 361,147 680,444 V 359 Q 3791,134 3420,21 3050,-91 2638,-91 1578,-91 968,557 359,1206 359,2328 q 0,1125 609,1773 610,649 1670,649 418,0 788,-111 371,-111 696,-333 z"
       transform="scale(0.015625)" /><path
       id="ma6eee7b075"
       d="M 0,1.5 C 0.397805,1.5 0.77937,1.341951 1.06066,1.06066 1.341951,0.77937 1.5,0.397805 1.5,0 1.5,-0.397805 1.341951,-0.77937 1.06066,-1.06066 0.77937,-1.341951 0.397805,-1.5 0,-1.5 c -0.397805,0 -0.77937,0.158049 -1.06066,0.43934 C -1.341951,-0.77937 -1.5,-0.397805 -1.5,0 c 0,0.397805 0.158049,0.77937 0.43934,1.06066 C -0.77937,1.341951 -0.397805,1.5 0,1.5 Z"
       style="stroke:#3d3d3d" /><style
       type="text/css"
       id="style28866">*{stroke-linejoin: round; stroke-linecap: butt}</style><path
       id="m5b771224df"
       d="m 251.76,-31.678649 h -59.52 l 29.48023,-0.0039 0.23303,-0.0039 0.0227,-0.0039 -0.0173,-0.0039 -0.002,-0.0039 0.007,-0.0039 -0.0163,-0.0039 -0.0261,-0.0039 -0.003,-0.0039 -0.01,-0.0039 0.008,-0.0039 0.0205,-0.0039 0.008,-0.0039 -0.0153,-0.0039 0.0278,-0.0039 -0.005,-0.0039 0.0145,-0.0039 0.0137,-0.0039 0.001,-0.0039 0.0138,-0.0039 -0.0156,-0.0039 0.0144,-0.0039 -0.005,-0.0039 0.003,-0.0039 -0.005,-0.0039 -8e-5,-0.0039 0.002,-0.0039 0.007,-0.0039 -0.009,-0.0039 0.009,-0.0039 0.003,-0.0039 -10e-4,-0.0039 -7e-4,-0.0039 -0.003,-0.0039 0.006,-0.0039 -6e-5,-0.0039 -4.2e-4,-0.0039 -1.7e-4,-0.0039 -1.4e-4,-0.0039 0.002,-0.0039 1.3e-4,-0.0039 -0.002,-0.0039 0.002,-0.0039 v -0.0039 l -9.3e-4,-0.0039 9.1e-4,-0.0039 -4.8e-4,-0.0039 5e-4,-0.0039 -1.2e-4,-0.0039 7e-5,-0.0039 5e-5,-0.0039 v -0.0039 -0.0039 -0.0039 -0.0039 -0.0039 -0.0039 l -0.001,-0.0039 0.001,-0.0039 v -0.0039 -0.0039 l -0.004,-0.0039 0.004,-0.0039 v -0.0039 -0.0039 l -1.2e-4,-0.0039 1.1e-4,-0.0039 1e-5,-0.0039 -1.7e-4,-0.0039 1.4e-4,-0.0039 3e-5,-0.0039 v -0.0039 -0.0039 -0.0039 -0.0039 -0.0039 -0.0039 -0.0039 -0.0039 l -0.003,-0.0039 5.6e-4,-0.0039 0.002,-0.0039 -1e-5,-0.0039 -8e-5,-0.0039 9e-5,-0.0039 v -0.0039 -0.0039 -0.0039 -0.0039 -0.0039 -0.0039 -0.0039 -0.0039 -0.0039 -0.0039 -0.0039 -0.0039 -0.0039 l -3.5e-4,-0.0039 h 6.9e-4 v 0 l -3.4e-4,0.0039 v 0.0039 0.0039 0.0039 0.0039 0.0039 0.0039 0.0039 0.0039 0.0039 0.0039 0.0039 0.0039 0.0039 l 9e-5,0.0039 -8e-5,0.0039 -1e-5,0.0039 0.002,0.0039 5.6e-4,0.0039 -0.003,0.0039 v 0.0039 0.0039 0.0039 0.0039 0.0039 0.0039 0.0039 0.0039 l 3e-5,0.0039 1.4e-4,0.0039 -1.7e-4,0.0039 1e-5,0.0039 1.1e-4,0.0039 -1.2e-4,0.0039 v 0.0039 0.0039 l 0.004,0.0039 -0.004,0.0039 v 0.0039 0.0039 l 0.001,0.0039 -0.001,0.0039 v 0.0039 0.0039 0.0039 0.0039 0.0039 0.0039 l 5e-5,0.0039 7e-5,0.0039 -1.2e-4,0.0039 5e-4,0.0039 -4.9e-4,0.0039 9.2e-4,0.0039 -9.3e-4,0.0039 v 0.0039 l 0.002,0.0039 -0.002,0.0039 1.3e-4,0.0039 0.002,0.0039 -1.4e-4,0.0039 -1.7e-4,0.0039 -4.2e-4,0.0039 -6e-5,0.0039 0.006,0.0039 -0.003,0.0039 -7e-4,0.0039 -0.001,0.0039 0.003,0.0039 0.009,0.0039 -0.009,0.0039 0.007,0.0039 0.002,0.0039 -9e-5,0.0039 -0.005,0.0039 0.003,0.0039 -0.005,0.0039 0.0144,0.0039 -0.0156,0.0039 0.0138,0.0039 0.001,0.0039 0.0137,0.0039 0.0145,0.0039 -0.005,0.0039 0.0278,0.0039 -0.0153,0.0039 0.008,0.0039 0.0205,0.0039 0.008,0.0039 -0.01,0.0039 -0.003,0.0039 -0.0261,0.0039 -0.0163,0.0039 0.007,0.0039 -0.002,0.0039 -0.0173,0.0039 0.0227,0.0039 0.23303,0.0039 z"
       style="stroke:#3d3d3d;stroke-width:1.5" /><path
       id="m9524f6656b"
       d="M 0,0 V 3.5"
       style="stroke:#000000;stroke-width:0.8" /><path
       id="DejaVuSans-44-1"
       d="M 1259,4147 V 519 h 763 q 966,0 1414,437 448,438 448,1382 0,937 -448,1373 -448,436 -1414,436 z m -631,519 h 1297 q 1356,0 1990,-564 635,-564 635,-1764 Q 4550,1131 3912,565 3275,0 1925,0 H 628 Z"
       transform="scale(0.015625)" /><path
       id="DejaVuSans-6f-3"
       d="m 1959,3097 q -462,0 -731,-361 -269,-361 -269,-989 0,-628 267,-989 268,-361 733,-361 460,0 728,362 269,363 269,988 0,622 -269,986 -268,364 -728,364 z m 0,487 q 750,0 1178,-488 429,-487 429,-1349 Q 3566,888 3137,398 2709,-91 1959,-91 1206,-91 779,398 353,888 353,1747 q 0,862 426,1349 427,488 1180,488 z"
       transform="scale(0.015625)" /><path
       id="DejaVuSans-6e-6"
       d="M 3513,2113 V 0 h -575 v 2094 q 0,497 -194,743 -194,247 -581,247 -466,0 -735,-297 -269,-296 -269,-809 V 0 H 581 v 3500 h 578 v -544 q 207,316 486,472 280,156 646,156 603,0 912,-373 310,-373 310,-1098 z"
       transform="scale(0.015625)" /><path
       id="DejaVuSans-72-8"
       d="m 2631,2963 q -97,56 -211,82 -114,27 -251,27 -488,0 -749,-317 -261,-317 -261,-911 V 0 H 581 v 3500 h 578 v -544 q 182,319 472,473 291,155 707,155 59,0 131,-8 72,-7 159,-23 z"
       transform="scale(0.015625)" /><path
       id="DejaVuSans-54-9"
       d="M -19,4666 H 3928 V 4134 H 2272 V 0 H 1638 V 4134 H -19 Z"
       transform="scale(0.015625)" /><path
       id="DejaVuSans-61-2"
       d="m 2194,1759 q -697,0 -966,-159 -269,-159 -269,-544 0,-306 202,-486 202,-179 548,-179 479,0 768,339 289,339 289,901 v 128 z m 1147,238 V 0 H 2766 V 531 Q 2569,213 2275,61 1981,-91 1556,-91 q -537,0 -855,302 -317,302 -317,808 0,590 395,890 396,300 1180,300 h 807 v 57 q 0,397 -261,614 -261,217 -733,217 -300,0 -585,-72 -284,-72 -546,-216 v 532 q 315,122 612,182 297,61 578,61 760,0 1135,-394 375,-393 375,-1193 z"
       transform="scale(0.015625)" /><path
       id="DejaVuSans-73-2"
       d="m 2834,3397 v -544 q -243,125 -506,187 -262,63 -544,63 -428,0 -642,-131 -214,-131 -214,-394 0,-200 153,-314 153,-114 616,-217 l 197,-44 q 612,-131 870,-370 258,-239 258,-667 0,-488 -386,-773 Q 2250,-91 1575,-91 1294,-91 989,-36 684,19 347,128 v 594 q 319,-166 628,-249 309,-82 613,-82 406,0 624,139 219,139 219,392 0,234 -158,359 -157,125 -692,241 l -200,47 q -534,112 -772,345 -237,233 -237,639 0,494 350,762 350,269 994,269 318,0 599,-47 282,-46 519,-140 z"
       transform="scale(0.015625)" /><path
       id="DejaVuSans-63-8"
       d="m 3122,3366 v -538 q -244,135 -489,202 -245,67 -495,67 -560,0 -870,-355 -309,-354 -309,-995 0,-641 309,-996 310,-354 870,-354 250,0 495,67 245,67 489,202 V 134 Q 2881,22 2623,-34 2366,-91 2075,-91 1284,-91 818,406 353,903 353,1747 q 0,856 470,1346 471,491 1290,491 265,0 518,-55 253,-54 491,-163 z"
       transform="scale(0.015625)" /><path
       id="DejaVuSans-6a-1"
       d="m 603,3500 h 575 V -63 q 0,-668 -255,-968 -254,-300 -820,-300 h -219 v 487 H 38 q 328,0 446,152 119,151 119,629 z m 0,1363 h 575 V 4134 H 603 Z"
       transform="scale(0.015625)" /><path
       id="DejaVuSans-75-6"
       d="m 544,1381 v 2119 h 575 V 1403 q 0,-497 193,-746 194,-248 582,-248 465,0 735,297 271,297 271,810 v 1984 h 575 V 0 H 2900 V 538 Q 2691,219 2414,64 2138,-91 1772,-91 1169,-91 856,284 544,659 544,1381 Z m 1447,2203 z"
       transform="scale(0.015625)" /><path
       id="DejaVuSans-67-0"
       d="m 2906,1791 q 0,625 -258,968 -257,344 -723,344 -462,0 -720,-344 -258,-343 -258,-968 0,-622 258,-966 258,-344 720,-344 466,0 723,344 258,344 258,966 z M 3481,434 q 0,-893 -397,-1329 -396,-436 -1215,-436 -303,0 -572,45 -269,45 -522,139 v 559 q 253,-137 500,-202 247,-66 503,-66 566,0 847,295 281,295 281,892 V 616 Q 2728,306 2450,153 2172,0 1784,0 1141,0 747,490 353,981 353,1791 q 0,812 394,1302 394,491 1037,491 388,0 666,-153 278,-153 456,-462 v 531 h 575 z"
       transform="scale(0.015625)" /><path
       id="DejaVuSans-74-2"
       d="M 1172,4494 V 3500 H 2356 V 3053 H 1172 V 1153 q 0,-428 117,-550 117,-122 477,-122 h 590 V 0 H 1766 Q 1100,0 847,248 594,497 594,1153 V 3053 H 172 v 447 h 422 v 994 z"
       transform="scale(0.015625)" /><path
       id="DejaVuSans-52-36"
       d="m 2841,2188 q 203,-69 395,-294 192,-225 386,-619 L 4263,0 h -679 l -596,1197 q -232,469 -449,622 -217,153 -592,153 H 1259 V 0 H 628 v 4666 h 1425 q 800,0 1194,-335 394,-334 394,-1009 0,-441 -205,-732 -205,-290 -595,-402 z M 1259,4147 V 2491 h 794 q 456,0 689,211 233,211 233,620 0,409 -233,617 -233,208 -689,208 z"
       transform="scale(0.015625)" /><path
       id="DejaVuSans-65-1"
       d="M 3597,1894 V 1613 H 953 q 38,-594 358,-905 320,-311 892,-311 331,0 642,81 311,81 618,244 V 178 Q 3153,47 2828,-22 2503,-91 2169,-91 1331,-91 842,396 353,884 353,1716 q 0,859 464,1363 464,505 1252,505 706,0 1117,-455 411,-454 411,-1235 z m -575,169 q -6,471 -264,752 -258,282 -683,282 -481,0 -770,-272 -289,-272 -333,-766 z"
       transform="scale(0.015625)" /><path
       id="DejaVuSans-69-1"
       d="m 603,3500 h 575 V 0 H 603 Z m 0,1363 h 575 V 4134 H 603 Z"
       transform="scale(0.015625)" /><path
       id="DejaVuSans-70-4"
       d="M 1159,525 V -1331 H 581 v 4831 h 578 v -531 q 182,312 458,463 277,152 661,152 638,0 1036,-506 399,-506 399,-1331 0,-825 -399,-1332 -398,-506 -1036,-506 -384,0 -661,152 -276,152 -458,464 z m 1957,1222 q 0,634 -261,995 -261,361 -717,361 -457,0 -718,-361 -261,-361 -261,-995 0,-634 261,-995 261,-361 718,-361 456,0 717,361 261,361 261,995 z"
       transform="scale(0.015625)" /><path
       id="mb6c066062f"
       d="M 0,1.5 C 0.397805,1.5 0.77937,1.341951 1.06066,1.06066 1.341951,0.77937 1.5,0.397805 1.5,0 1.5,-0.397805 1.341951,-0.77937 1.06066,-1.06066 0.77937,-1.341951 0.397805,-1.5 0,-1.5 c -0.397805,0 -0.77937,0.158049 -1.06066,0.43934 C -1.341951,-0.77937 -1.5,-0.397805 -1.5,0 c 0,0.397805 0.158049,0.77937 0.43934,1.06066 C -0.77937,1.341951 -0.397805,1.5 0,1.5 Z"
       style="stroke:#3d3d3d" /><clipPath
       id="p53c5dff66f-4"><rect
         x="36"
         y="34.560001"
         width="223.2"
         height="221.75999"
         id="rect29240-8" /></clipPath><clipPath
       id="p3c8f93e722-4"><rect
         x="36"
         y="34.560001"
         width="223.2"
         height="221.75999"
         id="rect28176-7" /></clipPath><clipPath
       clipPathUnits="userSpaceOnUse"
       id="clipPath21572-6"><rect
         style="fill:none;stroke:#000000;stroke-width:0.351;stroke-linecap:square;stroke-linejoin:round;stroke-dasharray:none;stroke-opacity:1;paint-order:markers fill stroke;stop-color:#000000"
         id="rect21574-9"
         width="556.54773"
         height="216.23166"
         x="-11.808432"
         y="205.15691" /></clipPath><clipPath
       clipPathUnits="userSpaceOnUse"
       id="clipPath21572-8"><rect
         style="fill:none;stroke:#000000;stroke-width:0.351;stroke-linecap:square;stroke-linejoin:round;stroke-dasharray:none;stroke-opacity:1;paint-order:markers fill stroke;stop-color:#000000"
         id="rect21574-5"
         width="556.54773"
         height="216.23166"
         x="-11.808432"
         y="205.15691" /></clipPath><clipPath
       clipPathUnits="userSpaceOnUse"
       id="clipPath21556-0"><rect
         style="fill:none;stroke:#000000;stroke-width:0.351;stroke-linecap:square;stroke-linejoin:round;stroke-dasharray:none;stroke-opacity:1;paint-order:markers fill stroke;stop-color:#000000"
         id="rect21558-8"
         width="556.54773"
         height="216.23166"
         x="-275.35797"
         y="205.82643" /></clipPath></defs><g
     id="layer1"
     transform="translate(-134.83703,-255.08706)"><g
       id="axes_1-6"
       style="stroke-linecap:butt;stroke-linejoin:round"
       transform="matrix(0.35277777,0,0,0.35277777,133.06756,249.81445)"><g
         id="patch_2-3"
         style="stroke-linecap:butt;stroke-linejoin:round"><path
           d="M 36,256.32 H 259.2 V 34.56 H 36 Z"
           style="fill:#ffffff;stroke-linecap:butt;stroke-linejoin:round"
           id="path27825" /></g><g
         id="PolyCollection_1"
         style="stroke-linecap:butt;stroke-linejoin:round"><defs
           id="defs27829" /><g
           clip-path="url(#p3c8f93e722-4)"
           id="g27833"
           style="stroke-linecap:butt;stroke-linejoin:round"><use
             xlink:href="#mc498c85d4f"
             x="0"
             y="288"
             style="fill:#3274a1;stroke:#3d3d3d;stroke-width:1.5;stroke-linecap:butt;stroke-linejoin:round"
             id="use27831" /></g></g><g
         id="PolyCollection_2"
         style="stroke-linecap:butt;stroke-linejoin:round"><defs
           id="defs27837" /><g
           clip-path="url(#p3c8f93e722-4)"
           id="g27841"
           style="stroke-linecap:butt;stroke-linejoin:round"><use
             xlink:href="#m82b1f12ee4"
             x="0"
             y="288"
             style="fill:#e1812c;stroke:#3d3d3d;stroke-width:1.5;stroke-linecap:butt;stroke-linejoin:round"
             id="use27839" /></g></g><g
         id="PolyCollection_3"
         style="stroke-linecap:butt;stroke-linejoin:round"><defs
           id="defs27845" /><g
           clip-path="url(#p3c8f93e722-4)"
           id="g27849"
           style="stroke-linecap:butt;stroke-linejoin:round"><use
             xlink:href="#m303d63c6d7"
             x="0"
             y="288"
             style="fill:#3a923a;stroke:#3d3d3d;stroke-width:1.5;stroke-linecap:butt;stroke-linejoin:round"
             id="use27847" /></g></g><g
         id="matplotlib.axis_1-4"
         style="stroke-linecap:butt;stroke-linejoin:round"><g
           id="xtick_1-7"
           style="stroke-linecap:butt;stroke-linejoin:round"><g
             id="line2d_1-6"
             style="stroke-linecap:butt;stroke-linejoin:round"><defs
               id="defs27853" /><g
               id="g27857"
               style="stroke-linecap:butt;stroke-linejoin:round"><use
                 xlink:href="#m8abdcf7507"
                 x="73.199997"
                 y="256.32001"
                 style="stroke:#000000;stroke-width:0.8;stroke-linecap:butt;stroke-linejoin:round"
                 id="use27855" /></g></g><g
             id="text_1-0"
             style="stroke-linecap:butt;stroke-linejoin:round"><!-- Donor --><g
               transform="matrix(0.1,0,0,-0.1,58.007031,270.91844)"
               id="g27876"
               style="stroke-linecap:butt;stroke-linejoin:round"><defs
                 id="defs27864" /><use
                 xlink:href="#DejaVuSans-44-3"
                 id="use27866"
                 style="stroke-linecap:butt;stroke-linejoin:round" /><use
                 xlink:href="#DejaVuSans-6f-0"
                 x="77.001953"
                 id="use27868"
                 style="stroke-linecap:butt;stroke-linejoin:round" /><use
                 xlink:href="#DejaVuSans-6e-5"
                 x="138.18359"
                 id="use27870"
                 style="stroke-linecap:butt;stroke-linejoin:round" /><use
                 xlink:href="#DejaVuSans-6f-0"
                 x="201.5625"
                 id="use27872"
                 style="stroke-linecap:butt;stroke-linejoin:round" /><use
                 xlink:href="#DejaVuSans-72-5"
                 x="262.74414"
                 id="use27874"
                 style="stroke-linecap:butt;stroke-linejoin:round" /></g></g></g><g
           id="xtick_2-4"
           style="stroke-linecap:butt;stroke-linejoin:round"><g
             id="line2d_2-6"
             style="stroke-linecap:butt;stroke-linejoin:round"><g
               id="g27882"
               style="stroke-linecap:butt;stroke-linejoin:round"><use
                 xlink:href="#m8abdcf7507"
                 x="147.60001"
                 y="256.32001"
                 style="stroke:#000000;stroke-width:0.8;stroke-linecap:butt;stroke-linejoin:round"
                 id="use27880" /></g></g><g
             id="text_2-83"
             style="stroke-linecap:butt;stroke-linejoin:round"><!-- Transconjugant --><g
               transform="matrix(0.1,0,0,-0.1,109.48828,270.91844)"
               id="g27923"
               style="stroke-linecap:butt;stroke-linejoin:round"><defs
                 id="defs27893" /><use
                 xlink:href="#DejaVuSans-54-4"
                 id="use27895"
                 style="stroke-linecap:butt;stroke-linejoin:round" /><use
                 xlink:href="#DejaVuSans-72-5"
                 x="46.333984"
                 id="use27897"
                 style="stroke-linecap:butt;stroke-linejoin:round" /><use
                 xlink:href="#DejaVuSans-61-4"
                 x="87.447266"
                 id="use27899"
                 style="stroke-linecap:butt;stroke-linejoin:round" /><use
                 xlink:href="#DejaVuSans-6e-5"
                 x="148.72656"
                 id="use27901"
                 style="stroke-linecap:butt;stroke-linejoin:round" /><use
                 xlink:href="#DejaVuSans-73-8"
                 x="212.10547"
                 id="use27903"
                 style="stroke-linecap:butt;stroke-linejoin:round" /><use
                 xlink:href="#DejaVuSans-63-3"
                 x="264.20508"
                 id="use27905"
                 style="stroke-linecap:butt;stroke-linejoin:round" /><use
                 xlink:href="#DejaVuSans-6f-0"
                 x="319.18555"
                 id="use27907"
                 style="stroke-linecap:butt;stroke-linejoin:round" /><use
                 xlink:href="#DejaVuSans-6e-5"
                 x="380.36719"
                 id="use27909"
                 style="stroke-linecap:butt;stroke-linejoin:round" /><use
                 xlink:href="#DejaVuSans-6a-5"
                 x="443.74609"
                 id="use27911"
                 style="stroke-linecap:butt;stroke-linejoin:round" /><use
                 xlink:href="#DejaVuSans-75-97"
                 x="471.5293"
                 id="use27913"
                 style="stroke-linecap:butt;stroke-linejoin:round" /><use
                 xlink:href="#DejaVuSans-67-4"
                 x="534.9082"
                 id="use27915"
                 style="stroke-linecap:butt;stroke-linejoin:round" /><use
                 xlink:href="#DejaVuSans-61-4"
                 x="598.38477"
                 id="use27917"
                 style="stroke-linecap:butt;stroke-linejoin:round" /><use
                 xlink:href="#DejaVuSans-6e-5"
                 x="659.66406"
                 id="use27919"
                 style="stroke-linecap:butt;stroke-linejoin:round" /><use
                 xlink:href="#DejaVuSans-74-9"
                 x="723.04297"
                 id="use27921"
                 style="stroke-linecap:butt;stroke-linejoin:round" /></g></g></g><g
           id="xtick_3-0"
           style="stroke-linecap:butt;stroke-linejoin:round"><g
             id="line2d_3-6"
             style="stroke-linecap:butt;stroke-linejoin:round"><g
               id="g27929"
               style="stroke-linecap:butt;stroke-linejoin:round"><use
                 xlink:href="#m8abdcf7507"
                 x="222"
                 y="256.32001"
                 style="stroke:#000000;stroke-width:0.8;stroke-linecap:butt;stroke-linejoin:round"
                 id="use27927" /></g></g><g
             id="text_3-5"
             style="stroke-linecap:butt;stroke-linejoin:round"><!-- Recipient --><g
               transform="matrix(0.1,0,0,-0.1,198.76719,270.91844)"
               id="g27956"
               style="stroke-linecap:butt;stroke-linejoin:round"><defs
                 id="defs27936" /><use
                 xlink:href="#DejaVuSans-52-3"
                 id="use27938"
                 style="stroke-linecap:butt;stroke-linejoin:round" /><use
                 xlink:href="#DejaVuSans-65-5"
                 x="64.982422"
                 id="use27940"
                 style="stroke-linecap:butt;stroke-linejoin:round" /><use
                 xlink:href="#DejaVuSans-63-3"
                 x="126.50586"
                 id="use27942"
                 style="stroke-linecap:butt;stroke-linejoin:round" /><use
                 xlink:href="#DejaVuSans-69-6"
                 x="181.48633"
                 id="use27944"
                 style="stroke-linecap:butt;stroke-linejoin:round" /><use
                 xlink:href="#DejaVuSans-70-2"
                 x="209.26953"
                 id="use27946"
                 style="stroke-linecap:butt;stroke-linejoin:round" /><use
                 xlink:href="#DejaVuSans-69-6"
                 x="272.74609"
                 id="use27948"
                 style="stroke-linecap:butt;stroke-linejoin:round" /><use
                 xlink:href="#DejaVuSans-65-5"
                 x="300.5293"
                 id="use27950"
                 style="stroke-linecap:butt;stroke-linejoin:round" /><use
                 xlink:href="#DejaVuSans-6e-5"
                 x="362.05273"
                 id="use27952"
                 style="stroke-linecap:butt;stroke-linejoin:round" /><use
                 xlink:href="#DejaVuSans-74-9"
                 x="425.43164"
                 id="use27954"
                 style="stroke-linecap:butt;stroke-linejoin:round" /></g></g></g></g><g
         id="matplotlib.axis_2-9"
         style="stroke-linecap:butt;stroke-linejoin:round"><g
           id="ytick_1-1"
           style="stroke-linecap:butt;stroke-linejoin:round"><g
             id="line2d_4-92"
             style="stroke-linecap:butt;stroke-linejoin:round"><defs
               id="defs27962" /><g
               id="g27966"
               style="stroke-linecap:butt;stroke-linejoin:round"><use
                 xlink:href="#m28a88ec9fc"
                 x="36"
                 y="256.32001"
                 style="stroke:#000000;stroke-width:0.8;stroke-linecap:butt;stroke-linejoin:round"
                 id="use27964" /></g></g><g
             id="text_4-0"
             style="stroke-linecap:butt;stroke-linejoin:round"><!-- 0 --><g
               transform="matrix(0.1,0,0,-0.1,22.6375,260.11922)"
               id="g27974"
               style="stroke-linecap:butt;stroke-linejoin:round"><defs
                 id="defs27970" /><use
                 xlink:href="#DejaVuSans-30-9"
                 id="use27972"
                 style="stroke-linecap:butt;stroke-linejoin:round" /></g></g></g><g
           id="ytick_2-1"
           style="stroke-linecap:butt;stroke-linejoin:round"><g
             id="line2d_5-3"
             style="stroke-linecap:butt;stroke-linejoin:round"><g
               id="g27980"
               style="stroke-linecap:butt;stroke-linejoin:round"><use
                 xlink:href="#m28a88ec9fc"
                 x="36"
                 y="219.36"
                 style="stroke:#000000;stroke-width:0.8;stroke-linecap:butt;stroke-linejoin:round"
                 id="use27978" /></g></g><g
             id="text_5-3"
             style="stroke-linecap:butt;stroke-linejoin:round"><!-- 1 --><g
               transform="matrix(0.1,0,0,-0.1,22.6375,223.15922)"
               id="g27988"
               style="stroke-linecap:butt;stroke-linejoin:round"><defs
                 id="defs27984" /><use
                 xlink:href="#DejaVuSans-31-2"
                 id="use27986"
                 style="stroke-linecap:butt;stroke-linejoin:round" /></g></g></g><g
           id="ytick_3-5"
           style="stroke-linecap:butt;stroke-linejoin:round"><g
             id="line2d_6-8"
             style="stroke-linecap:butt;stroke-linejoin:round"><g
               id="g27994"
               style="stroke-linecap:butt;stroke-linejoin:round"><use
                 xlink:href="#m28a88ec9fc"
                 x="36"
                 y="182.39999"
                 style="stroke:#000000;stroke-width:0.8;stroke-linecap:butt;stroke-linejoin:round"
                 id="use27992" /></g></g><g
             id="text_6-9"
             style="stroke-linecap:butt;stroke-linejoin:round"><!-- 2 --><g
               transform="matrix(0.1,0,0,-0.1,22.6375,186.19922)"
               id="g28002"
               style="stroke-linecap:butt;stroke-linejoin:round"><defs
                 id="defs27998" /><use
                 xlink:href="#DejaVuSans-32-4"
                 id="use28000"
                 style="stroke-linecap:butt;stroke-linejoin:round" /></g></g></g><g
           id="ytick_4-1"
           style="stroke-linecap:butt;stroke-linejoin:round"><g
             id="line2d_7-1"
             style="stroke-linecap:butt;stroke-linejoin:round"><g
               id="g28008"
               style="stroke-linecap:butt;stroke-linejoin:round"><use
                 xlink:href="#m28a88ec9fc"
                 x="36"
                 y="145.44"
                 style="stroke:#000000;stroke-width:0.8;stroke-linecap:butt;stroke-linejoin:round"
                 id="use28006" /></g></g><g
             id="text_7-4"
             style="stroke-linecap:butt;stroke-linejoin:round"><!-- 3 --><g
               transform="matrix(0.1,0,0,-0.1,22.6375,149.23922)"
               id="g28016"
               style="stroke-linecap:butt;stroke-linejoin:round"><defs
                 id="defs28012" /><use
                 xlink:href="#DejaVuSans-33-0"
                 id="use28014"
                 style="stroke-linecap:butt;stroke-linejoin:round" /></g></g></g><g
           id="ytick_5-9"
           style="stroke-linecap:butt;stroke-linejoin:round"><g
             id="line2d_8-7"
             style="stroke-linecap:butt;stroke-linejoin:round"><g
               id="g28022"
               style="stroke-linecap:butt;stroke-linejoin:round"><use
                 xlink:href="#m28a88ec9fc"
                 x="36"
                 y="108.48"
                 style="stroke:#000000;stroke-width:0.8;stroke-linecap:butt;stroke-linejoin:round"
                 id="use28020" /></g></g><g
             id="text_8-8"
             style="stroke-linecap:butt;stroke-linejoin:round"><!-- 4 --><g
               transform="matrix(0.1,0,0,-0.1,22.6375,112.27922)"
               id="g28030"
               style="stroke-linecap:butt;stroke-linejoin:round"><defs
                 id="defs28026" /><use
                 xlink:href="#DejaVuSans-34-5"
                 id="use28028"
                 style="stroke-linecap:butt;stroke-linejoin:round" /></g></g></g><g
           id="ytick_6-4"
           style="stroke-linecap:butt;stroke-linejoin:round"><g
             id="line2d_9-3"
             style="stroke-linecap:butt;stroke-linejoin:round"><g
               id="g28036"
               style="stroke-linecap:butt;stroke-linejoin:round"><use
                 xlink:href="#m28a88ec9fc"
                 x="36"
                 y="71.519997"
                 style="stroke:#000000;stroke-width:0.8;stroke-linecap:butt;stroke-linejoin:round"
                 id="use28034" /></g></g><g
             id="text_9-9"
             style="stroke-linecap:butt;stroke-linejoin:round"><!-- 5 --><g
               transform="matrix(0.1,0,0,-0.1,22.6375,75.319219)"
               id="g28044"
               style="stroke-linecap:butt;stroke-linejoin:round"><defs
                 id="defs28040" /><use
                 xlink:href="#DejaVuSans-35-8"
                 id="use28042"
                 style="stroke-linecap:butt;stroke-linejoin:round" /></g></g></g><g
           id="ytick_7"
           style="stroke-linecap:butt;stroke-linejoin:round"><g
             id="line2d_10-0"
             style="stroke-linecap:butt;stroke-linejoin:round"><g
               id="g28050"
               style="stroke-linecap:butt;stroke-linejoin:round"><use
                 xlink:href="#m28a88ec9fc"
                 x="36"
                 y="34.560001"
                 style="stroke:#000000;stroke-width:0.8;stroke-linecap:butt;stroke-linejoin:round"
                 id="use28048" /></g></g><g
             id="text_10-4"
             style="stroke-linecap:butt;stroke-linejoin:round"><!-- 6 --><g
               transform="matrix(0.1,0,0,-0.1,22.6375,38.359219)"
               id="g28058"
               style="stroke-linecap:butt;stroke-linejoin:round"><defs
                 id="defs28054" /><use
                 xlink:href="#DejaVuSans-36"
                 id="use28056"
                 style="stroke-linecap:butt;stroke-linejoin:round" /></g></g></g><g
           id="text_11"
           style="stroke-width:0.836831;stroke-linecap:butt;stroke-linejoin:round"
           transform="matrix(1.1949849,0,0,1.1949849,-2.6904874,-28.377156)"><!-- Steady-state Concentration --><g
             transform="matrix(0,-0.1,-0.1,0,16.557812,214.19078)"
             id="g28122"
             style="stroke-width:0.836831;stroke-linecap:butt;stroke-linejoin:round"><defs
               id="defs28068" /><use
               xlink:href="#DejaVuSans-53-5"
               id="use28070"
               style="stroke-width:0.836831;stroke-linecap:butt;stroke-linejoin:round" /><use
               xlink:href="#DejaVuSans-74-9"
               x="63.476562"
               id="use28072"
               style="stroke-width:0.836831;stroke-linecap:butt;stroke-linejoin:round" /><use
               xlink:href="#DejaVuSans-65-5"
               x="102.68555"
               id="use28074"
               style="stroke-width:0.836831;stroke-linecap:butt;stroke-linejoin:round" /><use
               xlink:href="#DejaVuSans-61-4"
               x="164.20898"
               id="use28076"
               style="stroke-width:0.836831;stroke-linecap:butt;stroke-linejoin:round" /><use
               xlink:href="#DejaVuSans-64-11"
               x="225.48828"
               id="use28078"
               style="stroke-width:0.836831;stroke-linecap:butt;stroke-linejoin:round" /><use
               xlink:href="#DejaVuSans-79"
               x="288.96484"
               id="use28080"
               style="stroke-width:0.836831;stroke-linecap:butt;stroke-linejoin:round" /><use
               xlink:href="#DejaVuSans-2d"
               x="346.39453"
               id="use28082"
               style="stroke-width:0.836831;stroke-linecap:butt;stroke-linejoin:round" /><use
               xlink:href="#DejaVuSans-73-8"
               x="382.47852"
               id="use28084"
               style="stroke-width:0.836831;stroke-linecap:butt;stroke-linejoin:round" /><use
               xlink:href="#DejaVuSans-74-9"
               x="434.57812"
               id="use28086"
               style="stroke-width:0.836831;stroke-linecap:butt;stroke-linejoin:round" /><use
               xlink:href="#DejaVuSans-61-4"
               x="473.78711"
               id="use28088"
               style="stroke-width:0.836831;stroke-linecap:butt;stroke-linejoin:round" /><use
               xlink:href="#DejaVuSans-74-9"
               x="535.06641"
               id="use28090"
               style="stroke-width:0.836831;stroke-linecap:butt;stroke-linejoin:round" /><use
               xlink:href="#DejaVuSans-65-5"
               x="574.27539"
               id="use28092"
               style="stroke-width:0.836831;stroke-linecap:butt;stroke-linejoin:round" /><use
               xlink:href="#DejaVuSans-20-9"
               x="635.79883"
               id="use28094"
               style="stroke-width:0.836831;stroke-linecap:butt;stroke-linejoin:round" /><use
               xlink:href="#DejaVuSans-43"
               x="667.58594"
               id="use28096"
               style="stroke-width:0.836831;stroke-linecap:butt;stroke-linejoin:round" /><use
               xlink:href="#DejaVuSans-6f-0"
               x="737.41016"
               id="use28098"
               style="stroke-width:0.836831;stroke-linecap:butt;stroke-linejoin:round" /><use
               xlink:href="#DejaVuSans-6e-5"
               x="798.5918"
               id="use28100"
               style="stroke-width:0.836831;stroke-linecap:butt;stroke-linejoin:round" /><use
               xlink:href="#DejaVuSans-63-3"
               x="861.9707"
               id="use28102"
               style="stroke-width:0.836831;stroke-linecap:butt;stroke-linejoin:round" /><use
               xlink:href="#DejaVuSans-65-5"
               x="916.95117"
               id="use28104"
               style="stroke-width:0.836831;stroke-linecap:butt;stroke-linejoin:round" /><use
               xlink:href="#DejaVuSans-6e-5"
               x="978.47461"
               id="use28106"
               style="stroke-width:0.836831;stroke-linecap:butt;stroke-linejoin:round" /><use
               xlink:href="#DejaVuSans-74-9"
               x="1041.8535"
               id="use28108"
               style="stroke-width:0.836831;stroke-linecap:butt;stroke-linejoin:round" /><use
               xlink:href="#DejaVuSans-72-5"
               x="1081.0625"
               id="use28110"
               style="stroke-width:0.836831;stroke-linecap:butt;stroke-linejoin:round" /><use
               xlink:href="#DejaVuSans-61-4"
               x="1122.1758"
               id="use28112"
               style="stroke-width:0.836831;stroke-linecap:butt;stroke-linejoin:round" /><use
               xlink:href="#DejaVuSans-74-9"
               x="1183.4551"
               id="use28114"
               style="stroke-width:0.836831;stroke-linecap:butt;stroke-linejoin:round" /><use
               xlink:href="#DejaVuSans-69-6"
               x="1222.6641"
               id="use28116"
               style="stroke-width:0.836831;stroke-linecap:butt;stroke-linejoin:round" /><use
               xlink:href="#DejaVuSans-6f-0"
               x="1250.4473"
               id="use28118"
               style="stroke-width:0.836831;stroke-linecap:butt;stroke-linejoin:round" /><use
               xlink:href="#DejaVuSans-6e-5"
               x="1311.6289"
               id="use28120"
               style="stroke-width:0.836831;stroke-linecap:butt;stroke-linejoin:round" /></g></g></g><g
         id="line2d_11-5"
         style="stroke-linecap:butt;stroke-linejoin:round"><path
           d="m 73.2,256.28284 v -0.12758"
           clip-path="url(#p3c8f93e722-4)"
           style="fill:none;stroke:#3d3d3d;stroke-width:1.5;stroke-linecap:square;stroke-linejoin:round"
           id="path28126" /></g><g
         id="line2d_12-6"
         style="stroke-linecap:butt;stroke-linejoin:round"><path
           d="m 73.2,256.26544 v -0.0441"
           clip-path="url(#p3c8f93e722-4)"
           style="fill:none;stroke:#3d3d3d;stroke-width:4.5;stroke-linecap:square;stroke-linejoin:round"
           id="path28129" /></g><g
         id="line2d_13-8"
         style="stroke-linecap:butt;stroke-linejoin:round"><path
           d="m 147.6,256.32 v 0"
           clip-path="url(#p3c8f93e722-4)"
           style="fill:none;stroke:#3d3d3d;stroke-width:1.5;stroke-linecap:square;stroke-linejoin:round"
           id="path28132" /></g><g
         id="line2d_14-0"
         style="stroke-linecap:butt;stroke-linejoin:round"><path
           d="m 147.6,256.32 v 0"
           clip-path="url(#p3c8f93e722-4)"
           style="fill:none;stroke:#3d3d3d;stroke-width:4.5;stroke-linecap:square;stroke-linejoin:round"
           id="path28135" /></g><g
         id="line2d_15-1"
         style="stroke-linecap:butt;stroke-linejoin:round"><path
           d="M 222,257.61199 V 20.746542"
           clip-path="url(#p3c8f93e722-4)"
           style="fill:none;stroke:#3d3d3d;stroke-width:1.5;stroke-linecap:square;stroke-linejoin:round"
           id="path28138" /></g><g
         id="line2d_16-2"
         style="stroke-linecap:butt;stroke-linejoin:round"><path
           d="M 222,256.31682 V 156.99336"
           clip-path="url(#p3c8f93e722-4)"
           style="fill:none;stroke:#3d3d3d;stroke-width:4.5;stroke-linecap:square;stroke-linejoin:round"
           id="path28141" /></g><g
         id="patch_3-9"
         style="stroke-linecap:butt;stroke-linejoin:round"><path
           d="M 36,256.32 V 34.56"
           style="fill:none;stroke:#000000;stroke-width:0.8;stroke-linecap:square;stroke-linejoin:miter"
           id="path28144" /></g><g
         id="patch_4-1"
         style="stroke-linecap:butt;stroke-linejoin:round"><path
           d="M 259.2,256.32 V 34.56"
           style="fill:none;stroke:#000000;stroke-width:0.8;stroke-linecap:square;stroke-linejoin:miter"
           id="path28147" /></g><g
         id="patch_5-3"
         style="stroke-linecap:butt;stroke-linejoin:round"><path
           d="M 36,256.32 H 259.2"
           style="fill:none;stroke:#000000;stroke-width:0.8;stroke-linecap:square;stroke-linejoin:miter"
           id="path28150" /></g><g
         id="patch_6-4"
         style="stroke-linecap:butt;stroke-linejoin:round"><path
           d="M 36,34.56 H 259.2"
           style="fill:none;stroke:#000000;stroke-width:0.8;stroke-linecap:square;stroke-linejoin:miter"
           id="path28153" /></g><g
         id="PathCollection_1"
         style="stroke-linecap:butt;stroke-linejoin:round"><defs
           id="defs28157" /><g
           clip-path="url(#p3c8f93e722-4)"
           id="g28161"
           style="stroke-linecap:butt;stroke-linejoin:round"><use
             xlink:href="#ma6eee7b075"
             x="73.199997"
             y="256.25235"
             style="fill:#ffffff;stroke:#3d3d3d;stroke-linecap:butt;stroke-linejoin:round"
             id="use28159" /></g></g><g
         id="PathCollection_2"
         style="stroke-linecap:butt;stroke-linejoin:round"><g
           clip-path="url(#p3c8f93e722-4)"
           id="g28166"
           style="stroke-linecap:butt;stroke-linejoin:round"><use
             xlink:href="#ma6eee7b075"
             x="147.60001"
             y="256.32001"
             style="fill:#ffffff;stroke:#3d3d3d;stroke-linecap:butt;stroke-linejoin:round"
             id="use28164" /></g></g><g
         id="PathCollection_3"
         style="stroke-linecap:butt;stroke-linejoin:round"><g
           clip-path="url(#p3c8f93e722-4)"
           id="g28171"
           style="stroke-linecap:butt;stroke-linejoin:round"><use
             xlink:href="#ma6eee7b075"
             x="222"
             y="179.79848"
             style="fill:#ffffff;stroke:#3d3d3d;stroke-linecap:butt;stroke-linejoin:round"
             id="use28169" /></g></g></g><g
       id="axes_1-5"
       transform="matrix(0.35277777,0,0,0.35277777,238.42728,249.81415)"
       style="stroke-linecap:butt;stroke-linejoin:round"><g
         id="patch_2-4"
         style="stroke-linecap:butt;stroke-linejoin:round"
         transform="translate(-63)"><path
           d="M 36,256.32 H 259.2 V 34.56 H 36 Z"
           style="fill:#ffffff;stroke-linecap:butt;stroke-linejoin:round"
           id="path28873" /></g><g
         id="PolyCollection_1-4"
         style="stroke-linecap:butt;stroke-linejoin:round"
         transform="translate(-63)"><path
           d="m 75.148751,263.03807 h -3.897502 l -7.297356,-2.96841 -13.237089,-2.96841 -7.276804,-2.96841 5.336065,-2.96841 8.606836,-2.96841 5.271025,-2.96841 2.558872,-2.96841 1.301949,-2.96841 0.750419,-2.96842 0.499002,-2.96841 0.365591,-2.96841 0.310497,-2.96841 0.311733,-2.96841 0.296879,-2.96841 0.223689,-2.96841 0.156944,-2.96841 0.122239,-2.96842 0.08662,-2.96841 0.09019,-2.96841 0.136425,-2.96841 0.146214,-2.96841 0.130087,-2.96841 0.144529,-2.96841 0.171555,-2.96841 0.164299,-2.96841 0.136893,-2.96842 0.124769,-2.96841 0.143955,-2.96841 0.183792,-2.96841 0.201839,-2.96841 0.181681,-2.96841 0.143877,-2.96841 0.112391,-2.96841 0.108959,-2.96841 0.10503,-2.96842 0.09404,-2.96841 0.108397,-2.96841 0.117468,-2.96841 0.08912,-2.96841 0.05696,-2.96841 0.05698,-2.96841 0.06215,-2.96841 0.04634,-2.96841 0.02896,-2.96842 0.02738,-2.96841 0.0338,-2.96841 0.04751,-2.96841 0.05726,-2.96841 0.04567,-2.96841 0.02441,-2.96841 0.005,-2.96841 0.0066,-2.96841 0.02804,-2.96842 0.03304,-2.96841 0.02023,-2.968408 0.01395,-2.968411 0.01447,-2.968411 0.01006,-2.968411 0.0078,-2.968411 0.0136,-2.968411 0.015,-2.968411 0.0098,-2.968411 0.0087,-2.968412 0.01003,-2.968411 0.0088,-2.968411 0.005,-2.968411 -3.92e-4,-2.968411 -0.0035,-2.968411 -5.79e-4,-2.968411 0.0043,-2.968412 0.0051,-2.968411 0.0033,-2.968411 0.0026,-2.968411 0.0022,-2.968411 4.62e-4,-2.968411 1.32e-4,-2.968411 0.0029,-2.968411 0.004,-2.968412 0.0014,-2.968411 -3.77e-4,-2.968411 4.5e-4,-2.968411 7.27e-4,-2.968411 0.0015,-2.968411 0.0023,-2.968411 0.0012,-2.968412 -1.61e-4,-2.968411 -6.46e-4,-2.968411 -7.94e-4,-2.968411 -5.82e-4,-2.968411 1.89e-4,-2.968411 2.73e-4,-2.968411 -5.51e-4,-2.968411 -5.08e-4,-2.968412 6.87e-4,-2.968411 0.0013,-2.968411 5.72e-4,-2.968411 1.89e-4,-2.968411 4.13e-4,-2.968411 3.31e-4,-2.968411 h 2.3e-4 v 0 l 3.31e-4,2.968411 4.13e-4,2.968411 1.89e-4,2.968411 5.72e-4,2.968411 0.0013,2.968411 6.87e-4,2.968411 -5.08e-4,2.968412 -5.51e-4,2.968411 2.73e-4,2.968411 1.89e-4,2.968411 -5.82e-4,2.968411 -7.94e-4,2.968411 -6.46e-4,2.968411 -1.61e-4,2.968411 0.0012,2.968412 0.0023,2.968411 0.0015,2.968411 7.27e-4,2.968411 4.5e-4,2.968411 -3.77e-4,2.968411 0.0014,2.968411 0.004,2.968412 0.003,2.968411 1.32e-4,2.968411 4.62e-4,2.968411 0.0022,2.968411 0.0026,2.968411 0.0033,2.968411 0.0051,2.968411 0.0043,2.968412 -5.79e-4,2.968411 -0.0035,2.968411 -3.92e-4,2.968411 0.005,2.968411 0.0088,2.968411 0.01003,2.968411 0.0087,2.968412 0.0098,2.968411 0.015,2.968411 0.0136,2.968411 0.0078,2.968411 0.01006,2.968411 0.01447,2.968411 0.01395,2.968411 0.02022,2.968408 0.03304,2.96841 0.02804,2.96842 0.0066,2.96841 0.005,2.96841 0.02441,2.96841 0.04567,2.96841 0.05726,2.96841 0.04751,2.96841 0.0338,2.96841 0.02738,2.96841 0.02895,2.96842 0.04634,2.96841 0.06215,2.96841 0.05698,2.96841 0.05696,2.96841 0.08912,2.96841 0.117468,2.96841 0.108397,2.96841 0.09404,2.96841 0.10503,2.96842 0.108959,2.96841 0.112391,2.96841 0.143877,2.96841 0.181681,2.96841 0.201839,2.96841 0.183792,2.96841 0.143955,2.96841 0.124769,2.96841 0.136893,2.96842 0.164299,2.96841 0.171555,2.96841 0.144529,2.96841 0.130087,2.96841 0.146214,2.96841 0.136425,2.96841 0.09019,2.96841 0.08662,2.96841 0.122239,2.96842 0.156944,2.96841 0.223689,2.96841 0.296879,2.96841 0.311733,2.96841 0.310497,2.96841 0.365591,2.96841 0.499002,2.96841 0.750419,2.96842 1.301949,2.96841 2.558872,2.96841 5.271025,2.96841 8.606836,2.96841 5.336065,2.96841 -7.276804,2.96841 -13.237089,2.96841 z"
           clip-path="url(#p53c5dff66f-4)"
           style="fill:#3274a1;stroke:#3d3d3d;stroke-width:1.5;stroke-linecap:butt;stroke-linejoin:round"
           id="path28876" /></g><g
         id="PolyCollection_2-2"
         style="stroke-linecap:butt;stroke-linejoin:round"
         transform="translate(-63)"><path
           d="m 147.75649,268.10136 h -0.31298 l -3.63273,-10.09494 -12.39774,-10.09494 -9.8171,-10.09495 -3.69359,-10.09494 -0.0623,-10.09494 0.89994,-10.09494 2.27602,-10.09495 2.59322,-10.09494 3.26638,-10.09494 3.08006,-10.09494 3.2964,-10.09495 2.77888,-10.09494 1.94504,-10.09494 2.032,-10.09494 1.62732,-10.09495 1.07831,-10.09494 0.98866,-10.094941 0.84415,-10.094943 0.63326,-10.094942 0.63672,-10.094943 0.41392,-10.094942 0.22249,-10.094943 0.2809,-10.094942 0.19717,-10.094943 0.15612,-10.094942 0.0848,-10.094943 0.0837,-10.094942 0.0511,-10.094943 0.0347,-10.094942 0.0217,-10.094943 0.0131,-10.094942 0.0291,-10.094943 0.0178,-10.094942 0.0145,-10.094943 0.0287,-10.094942 -0.01,-10.094943 0.0384,-10.094941 0.002,-10.09494 -0.006,-10.09495 0.0109,-10.09494 0.0181,-10.09494 -0.004,-10.09494 -0.0112,-10.09495 0.0213,-10.09494 0.021,-10.09494 -0.01,-10.09494 0.004,-10.09495 0.003,-10.09494 -0.004,-10.09494 0.0106,-10.09494 -0.008,-10.09495 0.005,-10.09494 0.01,-10.09494 0.007,-10.09494 0.01,-10.09495 0.004,-10.09494 -0.005,-10.09494 -0.004,-10.09494 7.6e-4,-10.09495 0.006,-10.09494 0.003,-10.09494 0.009,-10.09494 -5.9e-4,-10.09495 0.005,-10.09494 9.1e-4,-10.09494 -0.005,-10.09494 0.003,-10.09495 0.002,-10.09494 1.9e-4,-10.09494 -9.6e-4,-10.09494 -0.001,-10.09495 0.006,-10.09494 0.002,-10.09494 -10e-4,-10.09494 -4.2e-4,-10.09495 0.003,-10.09494 -0.003,-10.09494 8.4e-4,-10.09494 0.003,-10.09495 1e-4,-10.09494 -5.3e-4,-10.09494 -0.002,-10.09494 0.002,-10.09495 -0.001,-10.09494 -4.3e-4,-10.09494 3.4e-4,-10.09494 0.002,-10.09495 1.9e-4,-10.09494 v -10.09494 -10.09494 -10.09495 -10.09494 -10.09494 -10.09494 -10.09495 l -2e-5,-10.09494 -8e-4,-10.09494 -0.001,-10.09494 0.002,-10.09495 h 6.1e-4 v 0 l 0.002,10.09495 -0.001,10.09494 -8e-4,10.09494 -2e-5,10.09494 v 10.09495 10.09494 10.09494 10.09494 10.09495 10.09494 10.09494 l 1.8e-4,10.09494 0.002,10.09495 3.4e-4,10.09494 -4.3e-4,10.09494 -0.001,10.09494 0.002,10.09495 -0.002,10.09494 -5.3e-4,10.09494 1e-4,10.09494 0.003,10.09495 8.4e-4,10.09494 -0.003,10.09494 0.003,10.09494 -4.2e-4,10.09495 -0.001,10.09494 0.002,10.09494 0.006,10.09494 -10e-4,10.09495 -9.6e-4,10.09494 1.9e-4,10.09494 0.002,10.09494 0.003,10.09495 -0.005,10.09494 9.1e-4,10.09494 0.005,10.09494 -6e-4,10.09495 0.009,10.09494 0.003,10.09494 0.006,10.09494 7.6e-4,10.09495 -0.004,10.09494 -0.005,10.09494 0.005,10.09494 0.01,10.09495 0.007,10.09494 0.01,10.09494 0.005,10.09494 -0.009,10.09495 0.0106,10.09494 -0.004,10.09494 0.003,10.09494 0.004,10.09495 -0.01,10.09494 0.021,10.09494 0.0213,10.09494 -0.0112,10.09495 -0.004,10.09494 0.0181,10.09494 0.0109,10.09494 -0.006,10.09495 0.002,10.09494 0.0384,10.094941 -0.01,10.094943 0.0287,10.094942 0.0145,10.094943 0.0178,10.094942 0.0291,10.094943 0.0131,10.094942 0.0217,10.094943 0.0347,10.094942 0.0511,10.094943 0.0837,10.094942 0.0848,10.094943 0.15612,10.094942 0.19717,10.094943 0.2809,10.094942 0.22249,10.094943 0.41392,10.094942 0.63672,10.094943 0.63326,10.094942 0.84415,10.094943 0.98866,10.094941 1.07831,10.09494 1.62732,10.09495 2.03199,10.09494 1.94505,10.09494 2.77888,10.09494 3.2964,10.09495 3.08006,10.09494 3.26638,10.09494 2.59322,10.09494 2.27602,10.09495 0.89994,10.09494 -0.0624,10.09494 -3.69359,10.09494 -9.8171,10.09495 -12.39775,10.09494 z"
           clip-path="url(#p53c5dff66f-4)"
           style="fill:#e1812c;stroke:#3d3d3d;stroke-width:1.5;stroke-linecap:butt;stroke-linejoin:round"
           id="path28879" /></g><g
         id="PolyCollection_3-3"
         style="stroke-linecap:butt;stroke-linejoin:round"
         transform="translate(-63)"><defs
           id="defs28883" /><g
           clip-path="url(#p53c5dff66f-4)"
           id="g28887"
           style="stroke-linecap:butt;stroke-linejoin:round"><use
             xlink:href="#m5b771224df"
             x="0"
             y="288"
             style="fill:#3a923a;stroke:#3d3d3d;stroke-width:1.5;stroke-linecap:butt;stroke-linejoin:round"
             id="use28885" /></g></g><g
         id="matplotlib.axis_1-2"
         style="stroke-linecap:butt;stroke-linejoin:round"
         transform="translate(-63)"><g
           id="xtick_1-75"
           style="stroke-linecap:butt;stroke-linejoin:round"><g
             id="line2d_1-0"
             style="stroke-linecap:butt;stroke-linejoin:round"><defs
               id="defs28891" /><g
               id="g28895"
               style="stroke-linecap:butt;stroke-linejoin:round"><use
                 xlink:href="#m9524f6656b"
                 x="73.199997"
                 y="256.32001"
                 style="stroke:#000000;stroke-width:0.8;stroke-linecap:butt;stroke-linejoin:round"
                 id="use28893" /></g></g><g
             id="text_1-7"
             style="stroke-linecap:butt;stroke-linejoin:round"><!-- Donor --><g
               transform="matrix(0.1,0,0,-0.1,58.007031,270.91844)"
               id="g28914"
               style="stroke-linecap:butt;stroke-linejoin:round"><defs
                 id="defs28902" /><use
                 xlink:href="#DejaVuSans-44-1"
                 id="use28904"
                 style="stroke-linecap:butt;stroke-linejoin:round" /><use
                 xlink:href="#DejaVuSans-6f-3"
                 x="77.001953"
                 id="use28906"
                 style="stroke-linecap:butt;stroke-linejoin:round" /><use
                 xlink:href="#DejaVuSans-6e-6"
                 x="138.18359"
                 id="use28908"
                 style="stroke-linecap:butt;stroke-linejoin:round" /><use
                 xlink:href="#DejaVuSans-6f-3"
                 x="201.5625"
                 id="use28910"
                 style="stroke-linecap:butt;stroke-linejoin:round" /><use
                 xlink:href="#DejaVuSans-72-8"
                 x="262.74414"
                 id="use28912"
                 style="stroke-linecap:butt;stroke-linejoin:round" /></g></g></g><g
           id="xtick_2-5"
           style="stroke-linecap:butt;stroke-linejoin:round"><g
             id="line2d_2-0"
             style="stroke-linecap:butt;stroke-linejoin:round"><g
               id="g28920"
               style="stroke-linecap:butt;stroke-linejoin:round"><use
                 xlink:href="#m9524f6656b"
                 x="147.60001"
                 y="256.32001"
                 style="stroke:#000000;stroke-width:0.8;stroke-linecap:butt;stroke-linejoin:round"
                 id="use28918" /></g></g><g
             id="text_2-7"
             style="stroke-linecap:butt;stroke-linejoin:round"><!-- Transconjugant --><g
               transform="matrix(0.1,0,0,-0.1,109.48828,270.91844)"
               id="g28961"
               style="stroke-linecap:butt;stroke-linejoin:round"><defs
                 id="defs28931" /><use
                 xlink:href="#DejaVuSans-54-9"
                 id="use28933"
                 style="stroke-linecap:butt;stroke-linejoin:round" /><use
                 xlink:href="#DejaVuSans-72-8"
                 x="46.333984"
                 id="use28935"
                 style="stroke-linecap:butt;stroke-linejoin:round" /><use
                 xlink:href="#DejaVuSans-61-2"
                 x="87.447266"
                 id="use28937"
                 style="stroke-linecap:butt;stroke-linejoin:round" /><use
                 xlink:href="#DejaVuSans-6e-6"
                 x="148.72656"
                 id="use28939"
                 style="stroke-linecap:butt;stroke-linejoin:round" /><use
                 xlink:href="#DejaVuSans-73-2"
                 x="212.10547"
                 id="use28941"
                 style="stroke-linecap:butt;stroke-linejoin:round" /><use
                 xlink:href="#DejaVuSans-63-8"
                 x="264.20508"
                 id="use28943"
                 style="stroke-linecap:butt;stroke-linejoin:round" /><use
                 xlink:href="#DejaVuSans-6f-3"
                 x="319.18555"
                 id="use28945"
                 style="stroke-linecap:butt;stroke-linejoin:round" /><use
                 xlink:href="#DejaVuSans-6e-6"
                 x="380.36719"
                 id="use28947"
                 style="stroke-linecap:butt;stroke-linejoin:round" /><use
                 xlink:href="#DejaVuSans-6a-1"
                 x="443.74609"
                 id="use28949"
                 style="stroke-linecap:butt;stroke-linejoin:round" /><use
                 xlink:href="#DejaVuSans-75-6"
                 x="471.5293"
                 id="use28951"
                 style="stroke-linecap:butt;stroke-linejoin:round" /><use
                 xlink:href="#DejaVuSans-67-0"
                 x="534.9082"
                 id="use28953"
                 style="stroke-linecap:butt;stroke-linejoin:round" /><use
                 xlink:href="#DejaVuSans-61-2"
                 x="598.38477"
                 id="use28955"
                 style="stroke-linecap:butt;stroke-linejoin:round" /><use
                 xlink:href="#DejaVuSans-6e-6"
                 x="659.66406"
                 id="use28957"
                 style="stroke-linecap:butt;stroke-linejoin:round" /><use
                 xlink:href="#DejaVuSans-74-2"
                 x="723.04297"
                 id="use28959"
                 style="stroke-linecap:butt;stroke-linejoin:round" /></g></g></g><g
           id="xtick_3-3"
           style="stroke-linecap:butt;stroke-linejoin:round"><g
             id="line2d_3-0"
             style="stroke-linecap:butt;stroke-linejoin:round"><g
               id="g28967"
               style="stroke-linecap:butt;stroke-linejoin:round"><use
                 xlink:href="#m9524f6656b"
                 x="222"
                 y="256.32001"
                 style="stroke:#000000;stroke-width:0.8;stroke-linecap:butt;stroke-linejoin:round"
                 id="use28965" /></g></g><g
             id="text_3-48"
             style="stroke-linecap:butt;stroke-linejoin:round"><!-- Recipient --><g
               transform="matrix(0.1,0,0,-0.1,198.76719,270.91844)"
               id="g28994"
               style="stroke-linecap:butt;stroke-linejoin:round"><defs
                 id="defs28974" /><use
                 xlink:href="#DejaVuSans-52-36"
                 id="use28976"
                 style="stroke-linecap:butt;stroke-linejoin:round" /><use
                 xlink:href="#DejaVuSans-65-1"
                 x="64.982422"
                 id="use28978"
                 style="stroke-linecap:butt;stroke-linejoin:round" /><use
                 xlink:href="#DejaVuSans-63-8"
                 x="126.50586"
                 id="use28980"
                 style="stroke-linecap:butt;stroke-linejoin:round" /><use
                 xlink:href="#DejaVuSans-69-1"
                 x="181.48633"
                 id="use28982"
                 style="stroke-linecap:butt;stroke-linejoin:round" /><use
                 xlink:href="#DejaVuSans-70-4"
                 x="209.26953"
                 id="use28984"
                 style="stroke-linecap:butt;stroke-linejoin:round" /><use
                 xlink:href="#DejaVuSans-69-1"
                 x="272.74609"
                 id="use28986"
                 style="stroke-linecap:butt;stroke-linejoin:round" /><use
                 xlink:href="#DejaVuSans-65-1"
                 x="300.5293"
                 id="use28988"
                 style="stroke-linecap:butt;stroke-linejoin:round" /><use
                 xlink:href="#DejaVuSans-6e-6"
                 x="362.05273"
                 id="use28990"
                 style="stroke-linecap:butt;stroke-linejoin:round" /><use
                 xlink:href="#DejaVuSans-74-2"
                 x="425.43164"
                 id="use28992"
                 style="stroke-linecap:butt;stroke-linejoin:round" /></g></g></g></g><g
         id="line2d_11-4"
         style="stroke-linecap:butt;stroke-linejoin:round"
         transform="translate(-63)"><path
           d="M 73.2,256.13432 V 152.62041"
           clip-path="url(#p53c5dff66f-4)"
           style="fill:none;stroke:#3d3d3d;stroke-width:1.5;stroke-linecap:square;stroke-linejoin:round"
           id="path29190" /></g><g
         id="line2d_12-96"
         style="stroke-linecap:butt;stroke-linejoin:round"
         transform="translate(-63)"><path
           d="M 73.2,254.25009 V 213.59703"
           clip-path="url(#p53c5dff66f-4)"
           style="fill:none;stroke:#3d3d3d;stroke-width:4.5;stroke-linecap:square;stroke-linejoin:round"
           id="path29193" /></g><g
         id="line2d_13-40"
         style="stroke-linecap:butt;stroke-linejoin:round"
         transform="translate(-63)"><path
           d="M 147.6,256.2953 V 71.823449"
           clip-path="url(#p53c5dff66f-4)"
           style="fill:none;stroke:#3d3d3d;stroke-width:1.5;stroke-linecap:square;stroke-linejoin:round"
           id="path29196" /></g><g
         id="line2d_14-5"
         style="stroke-linecap:butt;stroke-linejoin:round"
         transform="translate(-63)"><path
           d="M 147.6,223.24932 V 162.67177"
           clip-path="url(#p53c5dff66f-4)"
           style="fill:none;stroke:#3d3d3d;stroke-width:4.5;stroke-linecap:square;stroke-linejoin:round"
           id="path29199" /></g><g
         id="line2d_15-8"
         style="stroke-linecap:butt;stroke-linejoin:round"
         transform="translate(-63)"><path
           d="m 222,256.32 v 0"
           clip-path="url(#p53c5dff66f-4)"
           style="fill:none;stroke:#3d3d3d;stroke-width:1.5;stroke-linecap:square;stroke-linejoin:round"
           id="path29202" /></g><g
         id="line2d_16-06"
         style="stroke-linecap:butt;stroke-linejoin:round"
         transform="translate(-63)"><path
           d="m 222,256.32 v 0"
           clip-path="url(#p53c5dff66f-4)"
           style="fill:none;stroke:#3d3d3d;stroke-width:4.5;stroke-linecap:square;stroke-linejoin:round"
           id="path29205" /></g><g
         id="patch_3-13"
         style="stroke-linecap:butt;stroke-linejoin:round"
         transform="translate(-63)"><path
           d="M 36,256.32 V 34.56"
           style="fill:none;stroke:#000000;stroke-width:0.8;stroke-linecap:square;stroke-linejoin:miter"
           id="path29208" /></g><g
         id="patch_4-3"
         style="stroke-linecap:butt;stroke-linejoin:round"
         transform="translate(-63)"><path
           d="M 259.2,256.32 V 34.56"
           style="fill:none;stroke:#000000;stroke-width:0.8;stroke-linecap:square;stroke-linejoin:miter"
           id="path29211" /></g><g
         id="patch_5-6"
         style="stroke-linecap:butt;stroke-linejoin:round"
         transform="translate(-63)"><path
           d="M 36,256.32 H 259.2"
           style="fill:none;stroke:#000000;stroke-width:0.8;stroke-linecap:square;stroke-linejoin:miter"
           id="path29214" /></g><g
         id="patch_6-17"
         style="stroke-linecap:butt;stroke-linejoin:round"
         transform="translate(-63)"><path
           d="M 36,34.56 H 259.2"
           style="fill:none;stroke:#000000;stroke-width:0.8;stroke-linecap:square;stroke-linejoin:miter"
           id="path29217" /></g><g
         id="PathCollection_1-8"
         style="stroke-linecap:butt;stroke-linejoin:round"
         transform="translate(-63)"><defs
           id="defs29221" /><g
           clip-path="url(#p53c5dff66f-4)"
           id="g29225"
           style="stroke-linecap:butt;stroke-linejoin:round"><use
             xlink:href="#mb6c066062f"
             x="73.199997"
             y="245.20131"
             style="fill:#ffffff;stroke:#3d3d3d;stroke-linecap:butt;stroke-linejoin:round"
             id="use29223" /></g></g><g
         id="PathCollection_2-5"
         style="stroke-linecap:butt;stroke-linejoin:round"
         transform="translate(-63)"><g
           clip-path="url(#p53c5dff66f-4)"
           id="g29230"
           style="stroke-linecap:butt;stroke-linejoin:round"><use
             xlink:href="#mb6c066062f"
             x="147.60001"
             y="197.35356"
             style="fill:#ffffff;stroke:#3d3d3d;stroke-linecap:butt;stroke-linejoin:round"
             id="use29228" /></g></g><g
         id="PathCollection_3-1"
         style="stroke-linecap:butt;stroke-linejoin:round"
         transform="translate(-63)"><g
           clip-path="url(#p53c5dff66f-4)"
           id="g29235"
           style="stroke-linecap:butt;stroke-linejoin:round"><use
             xlink:href="#mb6c066062f"
             x="222"
             y="256.32001"
             style="fill:#ffffff;stroke:#3d3d3d;stroke-linecap:butt;stroke-linejoin:round"
             id="use29233" /></g></g></g><g
       id="text_11-5-5-0-8"
       transform="matrix(0.35277777,0,0,0.35277777,73.36574,219.15817)"
       style="stroke-linecap:butt;stroke-linejoin:round"
       clip-path="url(#clipPath21572-6)"><!-- Model Parameter --><g
         aria-label="Conjugation"
         id="text6356-3-2"
         style="font-size:12px;line-height:1.25;font-family:'DejaVu Sans';-inkscape-font-specification:'DejaVu Sans, Normal';text-align:center;text-anchor:middle;stroke-width:0.75;stroke-linecap:butt;stroke-linejoin:round"><g
           id="text34319"
           style="font-size:30px;stroke-width:0.5625" /><g
           id="text34323"
           style="font-size:30px;stroke-width:0.5625" /><g
           aria-label="Strain"
           id="text34331"
           style="font-size:30px;stroke-width:0.5625"><path
             d="m 421.53427,365.05042 v 1.15429 q -0.67383,-0.32226 -1.27148,-0.48047 -0.59766,-0.1582 -1.1543,-0.1582 -0.9668,0 -1.49414,0.375 -0.52149,0.375 -0.52149,1.06641 0,0.58007 0.34571,0.8789 0.35156,0.29297 1.32422,0.47461 l 0.71484,0.14649 q 1.32422,0.25195 1.95117,0.89062 0.63281,0.63281 0.63281,1.69922 0,1.27148 -0.85546,1.92773 -0.84961,0.65625 -2.4961,0.65625 -0.62109,0 -1.32422,-0.14062 -0.69726,-0.14063 -1.44726,-0.41602 v -1.21875 q 0.7207,0.4043 1.41211,0.60938 0.6914,0.20508 1.35937,0.20508 1.01367,0 1.56446,-0.39844 0.55078,-0.39844 0.55078,-1.13672 0,-0.64453 -0.39844,-1.00781 -0.39258,-0.36328 -1.29492,-0.54492 l -0.72071,-0.14063 q -1.32421,-0.26367 -1.91601,-0.82617 -0.5918,-0.5625 -0.5918,-1.56445 0,-1.16016 0.81445,-1.82813 0.82032,-0.66797 2.25586,-0.66797 0.61524,0 1.25391,0.11133 0.63867,0.11133 1.30664,0.33399 z"
             style="font-size:12px"
             id="path37890" /><path
             d="m 424.92685,365.08557 v 1.86328 h 2.2207 v 0.83789 h -2.2207 v 3.5625 q 0,0.80274 0.2168,1.03125 0.22265,0.22852 0.89648,0.22852 h 1.10742 v 0.90234 h -1.10742 q -1.24805,0 -1.72266,-0.46289 -0.47461,-0.46875 -0.47461,-1.69922 v -3.5625 h -0.79101 v -0.83789 h 0.79101 v -1.86328 z"
             style="font-size:12px"
             id="path37892" /><path
             d="m 432.36826,367.95667 q -0.18165,-0.10547 -0.39844,-0.15235 -0.21094,-0.0527 -0.46875,-0.0527 -0.91406,0 -1.40625,0.59765 -0.48633,0.5918 -0.48633,1.70508 v 3.45703 h -1.08398 v -6.5625 h 1.08398 v 1.01953 q 0.33984,-0.59765 0.88477,-0.88476 0.54492,-0.29297 1.32421,-0.29297 0.11133,0 0.2461,0.0176 0.13476,0.0117 0.29883,0.041 z"
             style="font-size:12px"
             id="path37894" /><path
             d="m 436.48154,370.21252 q -1.30664,0 -1.81055,0.29883 -0.50391,0.29883 -0.50391,1.01953 0,0.57422 0.375,0.91407 0.38086,0.33398 1.03125,0.33398 0.89649,0 1.43555,-0.63281 0.54492,-0.63867 0.54492,-1.69336 v -0.24024 z m 2.15039,-0.44531 v 3.74414 h -1.07813 v -0.99609 q -0.36914,0.59766 -0.91992,0.88476 -0.55078,0.28125 -1.34766,0.28125 -1.00781,0 -1.60546,-0.5625 -0.5918,-0.56835 -0.5918,-1.51757 0,-1.10743 0.73828,-1.66993 0.74414,-0.5625 2.21484,-0.5625 h 1.51172 v -0.10546 q 0,-0.74414 -0.49219,-1.14844 -0.48632,-0.41016 -1.37109,-0.41016 -0.5625,0 -1.0957,0.13477 -0.53321,0.13476 -1.02539,0.40429 v -0.99609 q 0.59179,-0.22851 1.14843,-0.33984 0.55665,-0.11719 1.08399,-0.11719 1.42383,0 2.12695,0.73828 0.70313,0.73828 0.70313,2.23828 z"
             style="font-size:12px"
             id="path37896" /><path
             d="m 440.85263,366.94885 h 1.07813 v 6.5625 h -1.07813 z m 0,-2.55468 h 1.07813 v 1.36523 h -1.07813 z"
             style="font-size:12px"
             id="path37898" /><path
             d="m 449.64169,369.55042 v 3.96093 h -1.07812 v -3.92578 q 0,-0.93164 -0.36328,-1.39453 -0.36328,-0.46289 -1.08985,-0.46289 -0.87304,0 -1.37695,0.55664 -0.50391,0.55664 -0.50391,1.51758 v 3.70898 h -1.08398 v -6.5625 h 1.08398 v 1.01953 q 0.38672,-0.59179 0.90821,-0.88476 0.52734,-0.29297 1.21289,-0.29297 1.13086,0 1.71093,0.70312 0.58008,0.69727 0.58008,2.05665 z"
             style="font-size:12px"
             id="path37900" /></g></g><g
         aria-label="Conjugation"
         id="text6356-3-2-6"
         style="font-size:12px;line-height:1.25;font-family:'DejaVu Sans';-inkscape-font-specification:'DejaVu Sans, Normal';text-align:center;text-anchor:middle;stroke-width:0.75;stroke-linecap:butt;stroke-linejoin:round"
         transform="translate(-150.5905,-147.47376)"><g
           id="text34319-8"
           style="font-size:30px;stroke-width:0.5625" /><g
           id="text34323-6"
           style="font-size:30px;stroke-width:0.5625" /><g
           id="text34331-4"
           style="font-size:30px;stroke-width:0.5625" /></g></g><g
       id="text_11-5-5-0-6"
       transform="matrix(0.35277777,0,0,0.35277777,214.53799,182.53918)"
       style="stroke-linecap:butt;stroke-linejoin:round"
       clip-path="url(#clipPath21572-8)"><!-- Model Parameter --><g
         aria-label="Conjugation"
         id="text6356-3-5"
         style="font-size:12px;line-height:1.25;font-family:'DejaVu Sans';-inkscape-font-specification:'DejaVu Sans, Normal';text-align:center;text-anchor:middle;stroke-width:0.75;stroke-linecap:butt;stroke-linejoin:round"><path
           d="m 122.45023,211.49698 v 1.24805 q -0.59766,-0.55664 -1.27735,-0.83204 -0.67383,-0.27539 -1.43554,-0.27539 -1.5,0 -2.29688,0.91993 -0.79687,0.91406 -0.79687,2.64843 0,1.72852 0.79687,2.64844 0.79688,0.91406 2.29688,0.91406 0.76171,0 1.43554,-0.27539 0.67969,-0.27539 1.27735,-0.83203 v 1.23633 q -0.6211,0.42187 -1.31836,0.63281 -0.69141,0.21094 -1.46485,0.21094 -1.98633,0 -3.1289,-1.21289 -1.14258,-1.21875 -1.14258,-3.32227 0,-2.10937 1.14258,-3.32226 1.14257,-1.21875 3.1289,-1.21875 0.78516,0 1.47657,0.21094 0.69726,0.20507 1.30664,0.62109 z"
           id="path10103-8"
           style="stroke-linecap:butt;stroke-linejoin:round" /><path
           d="m 126.77444,213.76456 q -0.86718,0 -1.37109,0.67968 -0.50391,0.67383 -0.50391,1.85157 0,1.17773 0.49805,1.85742 0.50391,0.67383 1.37695,0.67383 0.86133,0 1.36524,-0.67969 0.50391,-0.67969 0.50391,-1.85156 0,-1.16602 -0.50391,-1.84571 -0.50391,-0.68554 -1.36524,-0.68554 z m 0,-0.91407 q 1.40625,0 2.20899,0.91407 0.80273,0.91406 0.80273,2.53125 0,1.61133 -0.80273,2.53125 -0.80274,0.91406 -2.20899,0.91406 -1.4121,0 -2.21484,-0.91406 -0.79687,-0.91992 -0.79687,-2.53125 0,-1.61719 0.79687,-2.53125 0.80274,-0.91407 2.21484,-0.91407 z"
           id="path10105-5"
           style="stroke-linecap:butt;stroke-linejoin:round" /><path
           d="m 137.02835,215.61026 v 3.96094 h -1.07812 v -3.92578 q 0,-0.93164 -0.36329,-1.39453 -0.36328,-0.4629 -1.08984,-0.4629 -0.87305,0 -1.37695,0.55665 -0.50391,0.55664 -0.50391,1.51757 v 3.70899 h -1.08398 v -6.5625 h 1.08398 v 1.01953 q 0.38672,-0.5918 0.9082,-0.88477 0.52735,-0.29297 1.2129,-0.29297 1.13085,0 1.71093,0.70313 0.58008,0.69727 0.58008,2.05664 z"
           id="path10107-3"
           style="stroke-linecap:butt;stroke-linejoin:round" /><path
           d="m 139.17874,213.0087 h 1.07813 v 6.67969 q 0,1.2539 -0.48047,1.8164 -0.47461,0.5625 -1.53516,0.5625 h -0.41015 v -0.91406 h 0.2871 q 0.61524,0 0.8379,-0.28711 0.22265,-0.28125 0.22265,-1.17773 z m 0,-2.55469 h 1.07813 v 1.36523 h -1.07813 z"
           id="path10109-4"
           style="stroke-linecap:butt;stroke-linejoin:round" /><path
           d="m 142.4014,216.98135 v -3.97265 h 1.07812 v 3.93164 q 0,0.93164 0.36328,1.40039 0.36329,0.46289 1.08985,0.46289 0.87304,0 1.37695,-0.55664 0.50977,-0.55664 0.50977,-1.51758 v -3.7207 h 1.07812 v 6.5625 h -1.07812 v -1.00781 q -0.39258,0.59765 -0.91407,0.89062 -0.51562,0.28711 -1.20117,0.28711 -1.13086,0 -1.71679,-0.70313 -0.58594,-0.70312 -0.58594,-2.05664 z m 2.71289,-4.13086 z"
           id="path10111-1"
           style="stroke-linecap:butt;stroke-linejoin:round" /><path
           d="m 154.43655,216.21378 q 0,-1.17188 -0.48632,-1.81641 -0.48047,-0.64453 -1.35352,-0.64453 -0.86719,0 -1.35352,0.64453 -0.48046,0.64453 -0.48046,1.81641 0,1.16601 0.48046,1.81054 0.48633,0.64453 1.35352,0.64453 0.87305,0 1.35352,-0.64453 0.48632,-0.64453 0.48632,-1.81054 z m 1.07813,2.54296 q 0,1.67579 -0.74414,2.49024 -0.74414,0.82031 -2.2793,0.82031 -0.56836,0 -1.07226,-0.0879 -0.50391,-0.082 -0.97852,-0.25781 v -1.04883 q 0.47461,0.25781 0.9375,0.38086 0.46289,0.12305 0.94336,0.12305 1.06055,0 1.58789,-0.55664 0.52734,-0.55079 0.52734,-1.66993 v -0.5332 q -0.33398,0.58008 -0.85546,0.86719 -0.52149,0.28711 -1.24805,0.28711 -1.20703,0 -1.94531,-0.91992 -0.73829,-0.91993 -0.73829,-2.4375 0,-1.52344 0.73829,-2.44336 0.73828,-0.91993 1.94531,-0.91993 0.72656,0 1.24805,0.28711 0.52148,0.28711 0.85546,0.86719 v -0.99609 h 1.07813 z"
           id="path10113-3"
           style="stroke-linecap:butt;stroke-linejoin:round" /><path
           d="m 160.7178,216.27237 q -1.30664,0 -1.81054,0.29883 -0.50391,0.29883 -0.50391,1.01953 0,0.57422 0.375,0.91406 0.38086,0.33399 1.03125,0.33399 0.89649,0 1.43555,-0.63282 0.54492,-0.63867 0.54492,-1.69336 v -0.24023 z m 2.15039,-0.44531 v 3.74414 h -1.07812 v -0.9961 q -0.36914,0.59766 -0.91992,0.88477 -0.55078,0.28125 -1.34766,0.28125 -1.00781,0 -1.60547,-0.5625 -0.59179,-0.56836 -0.59179,-1.51758 0,-1.10742 0.73828,-1.66992 0.74414,-0.5625 2.21484,-0.5625 h 1.51172 v -0.10547 q 0,-0.74414 -0.49219,-1.14844 -0.48633,-0.41015 -1.37109,-0.41015 -0.5625,0 -1.0957,0.13476 -0.53321,0.13477 -1.0254,0.4043 v -0.99609 q 0.5918,-0.22852 1.14844,-0.33985 0.55664,-0.11719 1.08399,-0.11719 1.42382,0 2.12695,0.73829 0.70312,0.73828 0.70312,2.23828 z"
           id="path10115-4"
           style="stroke-linecap:butt;stroke-linejoin:round" /><path
           d="m 166.1553,211.14542 v 1.86328 h 2.22071 v 0.83789 h -2.22071 v 3.5625 q 0,0.80273 0.2168,1.03125 0.22266,0.22851 0.89649,0.22851 h 1.10742 v 0.90235 h -1.10742 q -1.24805,0 -1.72266,-0.46289 -0.47461,-0.46875 -0.47461,-1.69922 v -3.5625 h -0.79102 v -0.83789 h 0.79102 v -1.86328 z"
           id="path10117-8"
           style="stroke-linecap:butt;stroke-linejoin:round" /><path
           d="m 169.79398,213.0087 h 1.07812 v 6.5625 h -1.07812 z m 0,-2.55469 h 1.07812 v 1.36523 h -1.07812 z"
           id="path10119-4"
           style="stroke-linecap:butt;stroke-linejoin:round" /><path
           d="m 175.67093,213.76456 q -0.86719,0 -1.37109,0.67968 -0.50391,0.67383 -0.50391,1.85157 0,1.17773 0.49805,1.85742 0.5039,0.67383 1.37695,0.67383 0.86133,0 1.36523,-0.67969 0.50391,-0.67969 0.50391,-1.85156 0,-1.16602 -0.50391,-1.84571 -0.5039,-0.68554 -1.36523,-0.68554 z m 0,-0.91407 q 1.40625,0 2.20898,0.91407 0.80274,0.91406 0.80274,2.53125 0,1.61133 -0.80274,2.53125 -0.80273,0.91406 -2.20898,0.91406 -1.41211,0 -2.21484,-0.91406 -0.79688,-0.91992 -0.79688,-2.53125 0,-1.61719 0.79688,-2.53125 0.80273,-0.91407 2.21484,-0.91407 z"
           id="path10121-7"
           style="stroke-linecap:butt;stroke-linejoin:round" /><path
           d="m 185.92484,215.61026 v 3.96094 h -1.07813 v -3.92578 q 0,-0.93164 -0.36328,-1.39453 -0.36328,-0.4629 -1.08984,-0.4629 -0.87305,0 -1.37696,0.55665 -0.5039,0.55664 -0.5039,1.51757 v 3.70899 h -1.08399 v -6.5625 h 1.08399 v 1.01953 q 0.38671,-0.5918 0.9082,-0.88477 0.52734,-0.29297 1.21289,-0.29297 1.13086,0 1.71094,0.70313 0.58008,0.69727 0.58008,2.05664 z"
           id="path10123-8"
           style="stroke-linecap:butt;stroke-linejoin:round" /></g></g><g
       id="text_11-5-5-6"
       transform="matrix(0.35277777,0,0,0.35277777,131.89911,182.53918)"
       style="stroke-linecap:butt;stroke-linejoin:round"
       clip-path="url(#clipPath21556-0)"><!-- Model Parameter --><g
         aria-label="No Conjugation"
         id="text6356-7"
         style="font-size:30px;line-height:1.25;font-family:'DejaVu Sans';-inkscape-font-specification:'DejaVu Sans, Normal';text-align:center;text-anchor:middle;stroke-width:0.75;stroke-linecap:butt;stroke-linejoin:round"><path
           d="m 105.83304,210.82315 h 1.59375 l 3.8789,7.31836 v -7.31836 h 1.14844 v 8.74805 h -1.59375 l -3.8789,-7.31836 v 7.31836 h -1.14844 z"
           style="font-size:12px;stroke-linecap:butt;stroke-linejoin:round"
           id="path10126-6" /><path
           d="m 117.30569,213.76456 q -0.86718,0 -1.37109,0.67968 -0.50391,0.67383 -0.50391,1.85157 0,1.17773 0.49805,1.85742 0.50391,0.67383 1.37695,0.67383 0.86133,0 1.36524,-0.67969 0.50391,-0.67969 0.50391,-1.85156 0,-1.16602 -0.50391,-1.84571 -0.50391,-0.68554 -1.36524,-0.68554 z m 0,-0.91407 q 1.40625,0 2.20899,0.91407 0.80273,0.91406 0.80273,2.53125 0,1.61133 -0.80273,2.53125 -0.80274,0.91406 -2.20899,0.91406 -1.4121,0 -2.21484,-0.91406 -0.79687,-0.91992 -0.79687,-2.53125 0,-1.61719 0.79687,-2.53125 0.80274,-0.91407 2.21484,-0.91407 z"
           style="font-size:12px;stroke-linecap:butt;stroke-linejoin:round"
           id="path10128-9" /><path
           d="m 132.51663,211.49698 v 1.24805 q -0.59765,-0.55664 -1.27734,-0.83204 -0.67383,-0.27539 -1.43555,-0.27539 -1.5,0 -2.29687,0.91993 -0.79688,0.91406 -0.79688,2.64843 0,1.72852 0.79688,2.64844 0.79687,0.91406 2.29687,0.91406 0.76172,0 1.43555,-0.27539 0.67969,-0.27539 1.27734,-0.83203 v 1.23633 q -0.62109,0.42187 -1.31836,0.63281 -0.6914,0.21094 -1.46484,0.21094 -1.98633,0 -3.12891,-1.21289 -1.14258,-1.21875 -1.14258,-3.32227 0,-2.10937 1.14258,-3.32226 1.14258,-1.21875 3.12891,-1.21875 0.78516,0 1.47656,0.21094 0.69727,0.20507 1.30664,0.62109 z"
           style="font-size:12px;stroke-linecap:butt;stroke-linejoin:round"
           id="path10130-7" /><path
           d="m 136.84085,213.76456 q -0.86719,0 -1.37109,0.67968 -0.50391,0.67383 -0.50391,1.85157 0,1.17773 0.49805,1.85742 0.5039,0.67383 1.37695,0.67383 0.86133,0 1.36524,-0.67969 0.5039,-0.67969 0.5039,-1.85156 0,-1.16602 -0.5039,-1.84571 -0.50391,-0.68554 -1.36524,-0.68554 z m 0,-0.91407 q 1.40625,0 2.20899,0.91407 0.80273,0.91406 0.80273,2.53125 0,1.61133 -0.80273,2.53125 -0.80274,0.91406 -2.20899,0.91406 -1.41211,0 -2.21484,-0.91406 -0.79688,-0.91992 -0.79688,-2.53125 0,-1.61719 0.79688,-2.53125 0.80273,-0.91407 2.21484,-0.91407 z"
           style="font-size:12px;stroke-linecap:butt;stroke-linejoin:round"
           id="path10132-2" /><path
           d="m 147.09476,215.61026 v 3.96094 h -1.07813 v -3.92578 q 0,-0.93164 -0.36328,-1.39453 -0.36328,-0.4629 -1.08984,-0.4629 -0.87305,0 -1.37696,0.55665 -0.5039,0.55664 -0.5039,1.51757 v 3.70899 h -1.08399 v -6.5625 h 1.08399 v 1.01953 q 0.38672,-0.5918 0.9082,-0.88477 0.52734,-0.29297 1.21289,-0.29297 1.13086,0 1.71094,0.70313 0.58008,0.69727 0.58008,2.05664 z"
           style="font-size:12px;stroke-linecap:butt;stroke-linejoin:round"
           id="path10134-3" /><path
           d="m 149.24515,213.0087 h 1.07812 v 6.67969 q 0,1.2539 -0.48047,1.8164 -0.47461,0.5625 -1.53515,0.5625 h -0.41016 v -0.91406 h 0.28711 q 0.61524,0 0.83789,-0.28711 0.22266,-0.28125 0.22266,-1.17773 z m 0,-2.55469 h 1.07812 v 1.36523 h -1.07812 z"
           style="font-size:12px;stroke-linecap:butt;stroke-linejoin:round"
           id="path10136-3" /><path
           d="m 152.4678,216.98135 v -3.97265 h 1.07813 v 3.93164 q 0,0.93164 0.36328,1.40039 0.36328,0.46289 1.08984,0.46289 0.87305,0 1.37696,-0.55664 0.50976,-0.55664 0.50976,-1.51758 v -3.7207 h 1.07813 v 6.5625 h -1.07813 v -1.00781 q -0.39258,0.59765 -0.91406,0.89062 -0.51562,0.28711 -1.20117,0.28711 -1.13086,0 -1.7168,-0.70313 -0.58594,-0.70312 -0.58594,-2.05664 z m 2.71289,-4.13086 z"
           style="font-size:12px;stroke-linecap:butt;stroke-linejoin:round"
           id="path10138-6" /><path
           d="m 164.50296,216.21378 q 0,-1.17188 -0.48633,-1.81641 -0.48047,-0.64453 -1.35351,-0.64453 -0.86719,0 -1.35352,0.64453 -0.48047,0.64453 -0.48047,1.81641 0,1.16601 0.48047,1.81054 0.48633,0.64453 1.35352,0.64453 0.87304,0 1.35351,-0.64453 0.48633,-0.64453 0.48633,-1.81054 z m 1.07813,2.54296 q 0,1.67579 -0.74415,2.49024 -0.74414,0.82031 -2.27929,0.82031 -0.56836,0 -1.07227,-0.0879 -0.5039,-0.082 -0.97851,-0.25781 v -1.04883 q 0.47461,0.25781 0.9375,0.38086 0.46289,0.12305 0.94336,0.12305 1.06054,0 1.58789,-0.55664 0.52734,-0.55079 0.52734,-1.66993 v -0.5332 q -0.33398,0.58008 -0.85547,0.86719 -0.52148,0.28711 -1.24805,0.28711 -1.20703,0 -1.94531,-0.91992 -0.73828,-0.91993 -0.73828,-2.4375 0,-1.52344 0.73828,-2.44336 0.73828,-0.91993 1.94531,-0.91993 0.72657,0 1.24805,0.28711 0.52149,0.28711 0.85547,0.86719 v -0.99609 h 1.07813 z"
           style="font-size:12px;stroke-linecap:butt;stroke-linejoin:round"
           id="path10140-1" /><path
           d="m 170.78421,216.27237 q -1.30664,0 -1.81055,0.29883 -0.5039,0.29883 -0.5039,1.01953 0,0.57422 0.375,0.91406 0.38086,0.33399 1.03125,0.33399 0.89648,0 1.43554,-0.63282 0.54493,-0.63867 0.54493,-1.69336 v -0.24023 z m 2.15039,-0.44531 v 3.74414 h -1.07812 v -0.9961 q -0.36914,0.59766 -0.91993,0.88477 -0.55078,0.28125 -1.34765,0.28125 -1.00781,0 -1.60547,-0.5625 -0.5918,-0.56836 -0.5918,-1.51758 0,-1.10742 0.73828,-1.66992 0.74414,-0.5625 2.21485,-0.5625 h 1.51172 v -0.10547 q 0,-0.74414 -0.49219,-1.14844 -0.48633,-0.41015 -1.3711,-0.41015 -0.5625,0 -1.0957,0.13476 -0.5332,0.13477 -1.02539,0.4043 v -0.99609 q 0.5918,-0.22852 1.14844,-0.33985 0.55664,-0.11719 1.08398,-0.11719 1.42383,0 2.12696,0.73829 0.70312,0.73828 0.70312,2.23828 z"
           style="font-size:12px;stroke-linecap:butt;stroke-linejoin:round"
           id="path10142-0" /><path
           d="m 176.22171,211.14542 v 1.86328 h 2.2207 v 0.83789 h -2.2207 v 3.5625 q 0,0.80273 0.2168,1.03125 0.22265,0.22851 0.89648,0.22851 h 1.10742 v 0.90235 h -1.10742 q -1.24805,0 -1.72265,-0.46289 -0.47461,-0.46875 -0.47461,-1.69922 v -3.5625 h -0.79102 v -0.83789 h 0.79102 v -1.86328 z"
           style="font-size:12px;stroke-linecap:butt;stroke-linejoin:round"
           id="path10144-6" /><path
           d="m 179.86038,213.0087 h 1.07813 v 6.5625 h -1.07813 z m 0,-2.55469 h 1.07813 v 1.36523 h -1.07813 z"
           style="font-size:12px;stroke-linecap:butt;stroke-linejoin:round"
           id="path10146-5" /><path
           d="m 185.73734,213.76456 q -0.86719,0 -1.3711,0.67968 -0.5039,0.67383 -0.5039,1.85157 0,1.17773 0.49804,1.85742 0.50391,0.67383 1.37696,0.67383 0.86132,0 1.36523,-0.67969 0.50391,-0.67969 0.50391,-1.85156 0,-1.16602 -0.50391,-1.84571 -0.50391,-0.68554 -1.36523,-0.68554 z m 0,-0.91407 q 1.40625,0 2.20898,0.91407 0.80273,0.91406 0.80273,2.53125 0,1.61133 -0.80273,2.53125 -0.80273,0.91406 -2.20898,0.91406 -1.41211,0 -2.21485,-0.91406 -0.79687,-0.91992 -0.79687,-2.53125 0,-1.61719 0.79687,-2.53125 0.80274,-0.91407 2.21485,-0.91407 z"
           style="font-size:12px;stroke-linecap:butt;stroke-linejoin:round"
           id="path10148-1" /><path
           d="m 195.99124,215.61026 v 3.96094 h -1.07812 v -3.92578 q 0,-0.93164 -0.36328,-1.39453 -0.36329,-0.4629 -1.08985,-0.4629 -0.87305,0 -1.37695,0.55665 -0.50391,0.55664 -0.50391,1.51757 v 3.70899 h -1.08398 v -6.5625 h 1.08398 v 1.01953 q 0.38672,-0.5918 0.90821,-0.88477 0.52734,-0.29297 1.21289,-0.29297 1.13086,0 1.71093,0.70313 0.58008,0.69727 0.58008,2.05664 z"
           style="font-size:12px;stroke-linecap:butt;stroke-linejoin:round"
           id="path10150-7" /></g></g></g></svg>
